<svg width="411" height="550" viewBox="0 0 411 550" fill="none" xmlns="http://www.w3.org/2000/svg">
<g clip-path="url(#clip0_488_32998)">
<path d="M26.844 172.495L-102.028 216.04L-33.5964 418.561L95.2754 375.016L26.844 172.495Z" fill="#C9C9C0"/>
<path d="M98.2395 113.47L-84.2925 160.846L-12.603 437.054L169.929 389.678L98.2395 113.47Z" fill="white"/>
<path d="M68.315 115.008L-102.686 189.645L5.33383 437.129L176.335 362.491L68.315 115.008Z" fill="#9ACCCD"/>
<g style="mix-blend-mode:multiply" opacity="0.49">
<path d="M-1.57014 349.302L-14.5845 354.983L16.0258 425.113L29.0401 419.433L-1.57014 349.302Z" fill="#0083C9"/>
</g>
<g style="mix-blend-mode:multiply" opacity="0.49">
<path d="M5.2199 308.257L-7.79443 313.937L36.7488 415.989L49.7631 410.309L5.2199 308.257Z" fill="#0083C9"/>
</g>
<g style="mix-blend-mode:multiply" opacity="0.49">
<path d="M16.9406 277.481L3.92627 283.161L57.8142 406.624L70.8285 400.943L16.9406 277.481Z" fill="#0083C9"/>
</g>
<g style="mix-blend-mode:multiply" opacity="0.49">
<path d="M29.1589 248.288L16.1445 253.969L78.6051 397.071L91.6194 391.391L29.1589 248.288Z" fill="#0083C9"/>
</g>
<g style="mix-blend-mode:multiply" opacity="0.49">
<path d="M52.9533 177.999L39.939 183.68L123.813 375.843L136.827 370.162L52.9533 177.999Z" fill="#0083C9"/>
</g>
<g style="mix-blend-mode:multiply" opacity="0.49">
<path d="M69.3234 150.209L56.3091 155.89L147.568 364.972L160.582 359.291L69.3234 150.209Z" fill="#0083C9"/>
</g>
<g style="mix-blend-mode:multiply" opacity="0.49">
<path d="M40.9756 213.649L27.9116 219.329L101.312 388.149L114.376 382.469L40.9756 213.649Z" fill="#0083C9"/>
</g>
<g style="mix-blend-mode:multiply" opacity="0.54">
<path d="M-88.5 198.08L1.57 158.78" stroke="#0083C9" stroke-width="6" stroke-miterlimit="10" stroke-linecap="round"/>
</g>
<g style="mix-blend-mode:multiply" opacity="0.64">
<path d="M48.6001 138.25L61.6101 132.58" stroke="#29B89A" stroke-width="3" stroke-miterlimit="10" stroke-linecap="round"/>
</g>
<g style="mix-blend-mode:multiply" opacity="0.64">
<path d="M24.6597 148.7L37.6797 143.02" stroke="#29B89A" stroke-width="3" stroke-miterlimit="10" stroke-linecap="round"/>
</g>
<path d="M167.44 356.81L6.93994 426.85" stroke="#0083C9" stroke-width="6" stroke-miterlimit="10"/>
<path d="M-35.3101 317.6L-17.8001 331.32L-12.6301 266.74L9.95994 269.03L17.3899 196.37L31.1699 198.08L37.6799 161.59" stroke="#FFE161" stroke-width="4" stroke-miterlimit="10" stroke-linecap="round"/>
<path d="M28.0098 174.13L38.9198 156.25L41.5898 177.64L35.6098 173.16L28.0098 174.13Z" fill="#FFE161"/>
<path d="M-332.1 342.37C-297 313.1 -239.55 323.88 -83.0001 345.46C323.49 401.52 383.42 390.46 428.82 370.24C452.92 359.49 490.09 338.49 547.46 334.62C567.57 333.27 633.85 328.81 684.73 364.04C738 401 762.25 473.07 728.8 507.27C698.33 538.42 637.23 520.45 368.96 503.39C265.16 496.79 213.26 493.49 177.76 494.88C20.9999 501 -17.8401 536 -145.8 527.39C-210.8 523.03 -294.88 517.39 -335.04 467.01C-364.55 430 -367.74 372.09 -332.1 342.37Z" fill="#3C5CA9"/>
<g style="mix-blend-mode:multiply" opacity="0.46">
<path d="M79.8499 472C79.8499 464.61 38.5599 458.63 -12.3801 458.63C-63.3201 458.63 -104.62 464.63 -104.62 472C-104.62 475.12 -97.2101 478 -84.8001 480.28C-95.8001 482.21 -102.8 485.05 -102.8 488.22C-102.8 494.06 -79.2201 498.79 -50.1301 498.79C-21.0401 498.79 2.56989 494 2.56989 488.2C2.56989 487.2 1.80988 486.2 0.419884 485.2C45.2999 484.31 79.8499 478.73 79.8499 472Z" fill="#8198EC"/>
</g>
<path d="M-307.1 358.37C-272 329.1 -214.55 339.88 -58.0001 361.46C348.49 417.52 408.42 406.46 453.82 386.24C477.92 375.49 515.09 354.49 572.46 350.62C592.57 349.27 658.85 344.81 709.73 380.04C763 417 787.25 489.07 753.8 523.27C723.33 554.42 662.23 536.45 393.96 519.39C290.16 512.79 238.26 509.49 202.76 510.88C45.9999 517 7.15987 552 -120.8 543.39C-185.8 539.03 -269.88 533.39 -310.04 483.01C-339.55 446 -342.74 388.09 -307.1 358.37Z" stroke="white" stroke-width="3" stroke-miterlimit="10"/>
<path d="M454.71 177.52H269.32V439.37H454.71V177.52Z" fill="#EFEFED"/>
<path d="M472.012 254.212L305.325 220.359L263.494 426.335L430.181 460.187L472.012 254.212Z" fill="#EFEFED"/>
<path d="M471.792 165.247L304.726 148.041L275.938 427.562L443.005 444.768L471.792 165.247Z" fill="white"/>
<path d="M421.291 254.865C429.511 230.462 416.392 204.017 391.99 195.797C367.588 187.577 341.142 200.696 332.922 225.098C324.702 249.501 337.821 275.946 362.224 284.166C386.626 292.386 413.071 279.267 421.291 254.865Z" fill="#CCC9D3"/>
<path d="M421.73 224.91C419.299 218.983 415.69 213.611 411.121 209.121C406.552 204.631 401.118 201.117 395.15 198.79L377.15 241.79L372.39 288.06C379.822 288.881 387.342 287.958 394.355 285.365C401.368 282.772 407.68 278.579 412.79 273.12C419.529 266.069 423.749 256.988 424.79 247.29C425.672 239.691 424.62 231.993 421.73 224.91Z" fill="white"/>
<g opacity="0.46">
<path opacity="0.46" d="M380.61 240.64L398.18 197.57C404.012 199.921 409.301 203.441 413.723 207.912C418.144 212.383 421.604 217.712 423.89 223.57L380.61 240.64Z" fill="#BC46AB"/>
<path opacity="0.46" d="M386.85 242.11L430.13 225.06C432.932 232.173 433.938 239.866 433.06 247.46L386.85 242.11Z" fill="#29B89A"/>
<path opacity="0.46" d="M380.49 245.15L415 276.36C421.588 269.227 425.695 260.157 426.71 250.5L380.49 245.15Z" fill="#FFE161"/>
<path opacity="0.46" d="M378.87 247.13L374.11 293.39C381.377 294.166 388.725 293.205 395.548 290.587C402.372 287.968 408.476 283.768 413.36 278.33L378.87 247.13Z" fill="#0083C9"/>
</g>
<path opacity="0.59" d="M313.51 159.13L458.88 174.09" stroke="#0071BC" stroke-width="5" stroke-miterlimit="10" stroke-linecap="round"/>
<path opacity="0.53" d="M321.14 167.16L384.19 173.65" stroke="#6D3C6B" stroke-width="2" stroke-miterlimit="10" stroke-linecap="round"/>
<path opacity="0.53" d="M320.63 172.05L402.37 180.46" stroke="#6D3C6B" stroke-width="2" stroke-miterlimit="10" stroke-linecap="round"/>
<path opacity="0.53" d="M320.19 177.52L419.41 187.73" stroke="#6D3C6B" stroke-width="2" stroke-miterlimit="10" stroke-linecap="round"/>
<path opacity="0.53" d="M447.13 311.9L303.16 297.08" stroke="#6D3C6B" stroke-width="2" stroke-miterlimit="10" stroke-linecap="round"/>
<path opacity="0.53" d="M435.8 319.64L302.26 305.9" stroke="#6D3C6B" stroke-width="2" stroke-miterlimit="10" stroke-linecap="round"/>
<path opacity="0.53" d="M434.9 328.35L301.09 314.58" stroke="#6D3C6B" stroke-width="2" stroke-miterlimit="10" stroke-linecap="round"/>
<path opacity="0.53" d="M434.03 336.85L300.49 323.11" stroke="#6D3C6B" stroke-width="2" stroke-miterlimit="10" stroke-linecap="round"/>
<path d="M397.35 302.51C396.73 302.36 396.11 302.19 395.48 302C392.58 301.14 390.66 299.19 388.89 296.71C386.885 293.695 385.551 290.285 384.98 286.71C383.997 281.619 383.832 276.403 384.49 271.26C385.32 264.76 387.88 256.37 394.6 253.75C395.623 253.307 396.739 253.117 397.851 253.197C398.964 253.277 400.04 253.625 400.99 254.21C403.021 253.883 405.103 254.11 407.016 254.868C408.929 255.625 410.602 256.885 411.858 258.514C413.115 260.144 413.908 262.082 414.155 264.124C414.402 266.167 414.092 268.238 413.26 270.12C412.13 272.303 410.685 274.308 408.97 276.07C405.03 280.59 401.2 285.7 400.62 291.67C400.43 293.59 400.69 295.74 402.12 297.03C403.31 298.11 407.32 298.65 408.12 296.62C407.565 298.191 406.663 299.617 405.48 300.79C403.2 302.93 400.22 303.19 397.35 302.51Z" fill="#7C5E1C"/>
<path d="M383.62 282.11C383.943 281.718 384.345 281.398 384.8 281.17C385.609 280.824 386.388 280.413 387.13 279.94C387.893 279.365 388.436 278.546 388.67 277.62C390.19 280.22 393.67 276.88 394.67 275.33C395.54 273.96 395.93 271.8 394.46 270.69C394.202 270.5 393.908 270.364 393.596 270.292C393.284 270.22 392.96 270.213 392.645 270.271C392.33 270.33 392.031 270.452 391.765 270.63C391.499 270.809 391.273 271.04 391.1 271.31C392.53 268.48 394.79 265.1 394.59 261.82C394.486 260.541 394.123 259.296 393.523 258.161C392.923 257.026 392.099 256.026 391.1 255.22C389.079 253.617 386.606 252.69 384.03 252.57C379.53 252.29 376.43 254.42 374.19 258.17C371.535 262.63 369.753 267.554 368.94 272.68C368.777 273.51 368.733 274.358 368.81 275.2C369.06 277.14 370.49 278.47 372.04 279.49C373.36 280.34 376.33 281.14 376.35 282.93C376.397 286.167 376.142 289.401 375.59 292.59C375.502 292.884 375.524 293.2 375.65 293.48C375.758 293.606 375.891 293.707 376.041 293.778C376.191 293.848 376.354 293.887 376.52 293.89C378.807 294.253 381.128 294.367 383.44 294.23C383.21 294.23 382.74 291.44 382.69 291.04C382.51 289.691 382.46 288.328 382.54 286.97C382.62 285.19 382.56 283.39 383.62 282.11Z" fill="#FFB8B3"/>
<g style="mix-blend-mode:multiply">
<path d="M383.49 282C383.65 281.87 383.81 281.76 383.98 281.64C384.98 280.98 386.18 280.71 387.13 279.99C388.74 278.79 388.58 277.04 389.13 275.31C388.78 276.642 388.05 277.844 387.03 278.77C386.191 279.405 385.237 279.871 384.22 280.14C381.061 281.091 377.718 281.259 374.48 280.63C375.17 281.27 376.29 281.93 376.3 282.98C376.31 284.03 376.3 285.21 376.24 286.32C376.307 287.285 376.236 288.255 376.03 289.2C377.52 287.58 379.09 286.06 380.72 284.57C381.64 283.7 382.52 282.71 383.49 282Z" fill="#FFB8B3"/>
</g>
<path d="M382.69 267.39C382.1 268.14 381.13 268.81 380.69 267.59C380.619 267.147 380.654 266.693 380.791 266.266C380.929 265.838 381.164 265.449 381.48 265.13C382.11 264.51 383.02 264.6 383.23 265.54C383.303 265.931 383.258 266.335 383.1 266.7C382.995 266.947 382.857 267.179 382.69 267.39Z" fill="#241B2B"/>
<path d="M374 264.25C373.862 264.471 373.678 264.659 373.46 264.8C372.84 265.18 372.46 264.74 372.52 264.13C372.513 263.777 372.588 263.427 372.739 263.108C372.89 262.789 373.113 262.509 373.39 262.29C374.02 261.92 374.39 262.29 374.39 262.9C374.384 263.377 374.249 263.843 374 264.25Z" fill="#241B2B"/>
<g style="mix-blend-mode:multiply" opacity="0.64">
<g style="mix-blend-mode:multiply" opacity="0.64">
<path d="M377.28 262C377.12 264.16 375.47 265.92 373.89 267.22C374.095 268.045 374.433 268.832 374.89 269.55C373.95 268.92 372.25 267.33 373.58 266.28C374.987 265.002 376.242 263.566 377.32 262H377.28Z" fill="#894010"/>
</g>
</g>
<path d="M371.32 270.13C372.51 272.06 374.46 272.28 376.62 272.56C374.75 273.9 371.05 272.79 371.32 270.13Z" fill="#894010"/>
<path d="M373.83 258.85C373.36 257.75 374.56 256.72 375.71 257.07C375.964 257.136 376.197 257.266 376.386 257.448C376.575 257.631 376.713 257.859 376.788 258.11C376.862 258.362 376.87 258.629 376.811 258.885C376.752 259.141 376.627 259.377 376.45 259.57C375.88 259.35 375.5 258.9 375.14 258.99C374.944 258.876 374.725 258.804 374.5 258.78C374.274 258.756 374.046 258.78 373.83 258.85Z" fill="#997620"/>
<path d="M382 261.39C382 260.03 383.77 259.39 384.87 260.01C385.148 260.131 385.397 260.31 385.601 260.534C385.805 260.758 385.959 261.023 386.053 261.311C386.148 261.599 386.18 261.904 386.149 262.205C386.117 262.507 386.022 262.798 385.87 263.06C385.36 262.74 385.03 262.39 384.74 262.2C384.519 262.051 384.285 261.924 384.04 261.82C383.431 261.48 382.735 261.33 382.04 261.39H382Z" fill="#997620"/>
<g style="mix-blend-mode:multiply" opacity="0.64">
<g style="mix-blend-mode:multiply" opacity="0.64">
<path d="M393.39 274.14C393.521 273.635 393.521 273.105 393.39 272.6C392.831 272.655 392.296 272.852 391.836 273.172C391.376 273.492 391.005 273.926 390.76 274.43C390.42 275.22 390.76 275.89 391.34 275.56C391.92 275.23 391.8 273.97 391.04 273.56C391.328 273.603 391.598 273.729 391.817 273.921C392.036 274.114 392.195 274.365 392.275 274.646C392.355 274.926 392.353 275.223 392.269 275.503C392.185 275.782 392.022 276.031 391.8 276.22C391.66 276.339 391.496 276.427 391.32 276.478C391.143 276.529 390.958 276.542 390.776 276.515C390.594 276.489 390.42 276.424 390.266 276.324C390.111 276.225 389.98 276.094 389.88 275.94C388.97 274.24 390.79 272.34 392.38 272.05C394.29 271.62 394.19 272.94 393.38 274.17L393.39 274.14Z" fill="#894010"/>
</g>
</g>
<path d="M392.85 270.19C393.086 270.183 393.322 270.227 393.54 270.32C395.38 271.09 395.74 273.97 394.54 275.39C396.86 272.668 398.737 269.597 400.1 266.29C400.594 265.214 400.899 264.06 401 262.88C401.047 262.29 400.974 261.697 400.785 261.137C400.596 260.576 400.295 260.06 399.9 259.62C399.288 258.994 398.455 258.635 397.58 258.62C397.951 258.352 398.263 258.012 398.5 257.62L396.63 257.79C395.58 255.26 394.58 253.16 392.44 251.39C390.388 249.656 387.869 248.567 385.2 248.26C382.496 248.005 379.785 248.664 377.5 250.13C375.72 251.28 372.88 253.99 372.72 256.27C374.38 257.06 376.72 256.38 378.4 256C377.88 256.45 378.18 257.38 378.79 257.7C379.427 257.953 380.129 257.991 380.79 257.81L383.65 257.35C383.21 257.43 383.12 258.08 383.39 258.43C383.708 258.747 384.124 258.948 384.57 259C385.845 259.353 387.166 259.515 388.49 259.48C388.198 260.038 388.058 260.664 388.084 261.293C388.111 261.923 388.302 262.534 388.64 263.066C388.977 263.598 389.449 264.032 390.007 264.324C390.565 264.616 391.19 264.756 391.82 264.73C389.93 266.417 388.598 268.639 388 271.1C387.87 271.75 387.73 272.37 387.59 273.01C387.45 273.65 387.59 274.52 387.15 275.01C388.18 273.83 390.76 270.26 392.85 270.19Z" fill="#997620"/>
<path d="M357.38 460.55C354.38 461.46 351.06 461.92 348.44 462.63C348.319 462.638 348.202 462.672 348.095 462.727C347.988 462.783 347.894 462.86 347.818 462.954C347.742 463.048 347.686 463.156 347.653 463.272C347.621 463.389 347.613 463.51 347.63 463.63C347.469 464.541 347.402 465.466 347.43 466.39C347.6 467.98 370.16 465.8 372.68 465.76C372.43 464.76 372.5 453.93 372.05 453.93C369.76 453.93 367.4 454.29 365.05 454.04C365.096 454.508 365.045 454.98 364.901 455.428C364.756 455.875 364.521 456.288 364.21 456.64C362.362 458.58 359.988 459.938 357.38 460.55Z" fill="#241B2B"/>
<path d="M357.73 465.2C353.963 465.405 350.187 465.405 346.42 465.2C346.08 465.2 346.75 466.98 346.95 467.2C348.06 468.26 350.75 467.72 352.1 467.72C353.45 467.72 373.25 467.12 373.04 466.05C372.89 465.368 372.89 464.662 373.04 463.98C368.1 465 362.81 464.93 357.73 465.2Z" fill="#CCC9D3"/>
<path d="M405.74 453.46C403.648 454.24 401.419 454.58 399.19 454.46C400.19 456.3 399.06 457.99 397.66 459.21C395.15 461.37 391.87 462.37 388.66 463.31C388.162 463.411 387.7 463.642 387.32 463.98C386.96 464.433 386.756 464.991 386.74 465.57C386.641 466.326 386.588 467.087 386.58 467.85C386.567 468.004 386.602 468.157 386.68 468.29C386.751 468.364 386.836 468.422 386.931 468.462C387.026 468.502 387.127 468.521 387.23 468.52C390.833 468.91 394.46 469.02 398.08 468.85C401.558 468.804 405.027 468.469 408.45 467.85C408.529 467.839 408.602 467.804 408.66 467.75C408.685 467.716 408.704 467.677 408.714 467.636C408.724 467.595 408.726 467.552 408.72 467.51C408.777 465.054 408.542 462.6 408.02 460.2C407.388 457.912 406.626 455.662 405.74 453.46Z" fill="#241B2B"/>
<path d="M409.13 464.76C408.176 465.622 406.954 466.127 405.67 466.19C402.285 466.597 398.88 466.814 395.47 466.84C392.3 466.89 388.87 467.15 385.75 466.42C385.714 467.155 385.744 467.891 385.84 468.62C392.254 469.302 398.725 469.258 405.13 468.49C406.594 468.361 408.031 468.024 409.4 467.49C409.4 466.97 408.85 465.09 409.19 464.67L409.13 464.76Z" fill="#CCC9D3"/>
<path d="M391.53 348.34C392.09 353.57 392.53 358.82 392.85 364.07C393.37 371.71 393.85 379.34 394.53 386.96C394.88 390.68 395.39 394.4 395.65 398.11C395.89 401.64 397.59 404.58 399.11 407.71C403.99 417.71 404.99 429.19 405.7 440.34C405.78 441.71 406.91 457 408.08 456.79C404.882 457.454 401.608 457.676 398.35 457.45C398.278 457.457 398.206 457.435 398.15 457.39C398.107 457.336 398.082 457.269 398.08 457.2C397.24 451.14 395.27 445.31 393.63 439.39C391.93 433.203 390.223 427.02 388.51 420.84C386.23 412.58 383.63 404.44 381.35 396.15C380.15 391.81 378.957 387.477 377.77 383.15C376.552 378.213 375.036 373.354 373.23 368.6C373.66 375.11 372.1 381.98 371.23 388.43C370.57 393.49 370.04 398.57 369.53 403.65C369.287 405.386 369.253 407.146 369.43 408.89C369.752 410.493 370.201 412.068 370.77 413.6C375.08 427.36 369.99 442.47 372.77 456.6C369.457 456.898 366.123 456.851 362.82 456.46C362.943 455.951 363.027 455.432 363.07 454.91C363.31 452.31 362.52 449.55 362.14 446.99C361.7 444.097 361.27 441.2 360.85 438.3C360.02 432.51 359.23 426.71 358.54 420.9C357.16 409.27 356.16 397.6 355.91 385.9C355.81 380.98 355.857 376.063 356.05 371.15C356.15 368.7 356.29 366.24 356.46 363.79C356.51 363.15 356.37 357.79 356.94 357.48C367.88 352.5 379.58 348.91 391.53 348.34Z" fill="#5F79CA"/>
<path d="M373 456.58C373.07 456.95 365.27 456.46 364.31 456.33C366.03 455.67 368.07 454.79 368.76 452.93C368.959 452.282 369.064 451.608 369.07 450.93C369.697 441.46 369.315 431.949 367.93 422.56C367.39 419.21 366.13 416.02 365.26 412.74C363.708 406.194 363.241 399.437 363.88 392.74C364.29 386.955 365.17 381.213 366.51 375.57C362.86 375.647 359.274 374.6 356.24 372.57C356.3 369.63 356.48 366.69 356.69 363.76C356.74 363.12 356.61 357.76 357.17 357.45C368.07 352.45 379.76 348.9 391.72 348.33C392.27 353.56 392.67 358.81 393.03 364.06C393.55 371.7 394.03 379.33 394.71 386.95C395.06 390.67 395.57 394.39 395.83 398.1C396.08 401.63 397.77 404.57 399.29 407.7C404.18 417.7 405.17 429.18 405.88 440.33C405.97 441.7 407.09 456.99 408.26 456.78C405.22 457.337 402.128 457.562 399.04 457.45C401.04 456.07 401.38 453.35 401.45 450.95C401.57 446.78 401.3 442.61 401.01 438.45C400.4 429.61 399.62 420.45 395.06 412.79C393.69 410.5 391.98 408.38 390.95 405.91C389.44 402.32 389.47 398.3 389.28 394.41C389.087 390.005 388.532 385.624 387.62 381.31C387.301 379.275 386.543 377.333 385.4 375.62C383.23 372.76 379.4 371.73 376.49 369.67C376.537 373.045 376.811 376.412 377.31 379.75C377.07 378.15 376.13 376.48 375.65 374.92C374.99 372.77 374.27 370.64 373.41 368.56C373.85 375.07 372.28 381.94 371.41 388.39C370.75 393.45 370.21 398.53 369.71 403.61C369.457 405.346 369.423 407.106 369.61 408.85C369.929 410.452 370.374 412.027 370.94 413.56C375.29 427.33 370.2 442.44 373 456.58Z" fill="#3C5CA9"/>
<path d="M386.72 292.18H386.66C385.89 291.999 385.152 291.702 384.47 291.3C384.13 291.081 383.837 290.795 383.61 290.46C383.454 290.121 383.327 289.77 383.23 289.41C383.03 288.97 382.71 289.12 382.23 289.12H380.7C379.7 289.12 378.65 289.12 377.63 289.05L376.09 288.97C375.81 288.97 374.89 289.04 374.68 288.87C374.427 289.223 374.15 289.557 373.85 289.87C373.451 290.166 372.989 290.364 372.5 290.45L368.73 291.29C369.18 294.14 369.89 296.95 370.6 299.75C372.39 306.8 374 313.91 375.65 321C376.545 317.508 377.627 314.066 378.89 310.69C379.83 308.19 381.11 305.88 382.26 303.48C383.5 300.92 384.57 298.11 386.36 295.92C386.94 295.22 388.25 292.63 389.21 292.64C388.363 292.598 387.526 292.443 386.72 292.18Z" fill="#3C5CA9"/>
<path d="M374.2 289.23C374.775 289.657 375.376 290.048 376 290.4C377.869 291.396 380.035 291.684 382.1 291.21C382.908 291.081 383.645 290.67 384.18 290.05C384.247 289.977 384.292 289.887 384.31 289.79C384.303 289.66 384.265 289.533 384.2 289.42C384.079 288.922 384.114 288.398 384.3 287.92C384.41 287.42 384.49 286.59 383.91 286.33C383.48 286.13 382.66 286.45 382.21 286.55C380.46 287.089 378.58 287.025 376.87 286.37C376.478 286.137 376.058 285.956 375.62 285.83C375.447 285.788 375.267 285.789 375.095 285.832C374.923 285.875 374.764 285.959 374.631 286.077C374.499 286.195 374.397 286.343 374.334 286.509C374.271 286.675 374.249 286.854 374.27 287.03C374.362 287.432 374.338 287.851 374.2 288.24C374 288.68 373.65 288.84 374.2 289.23Z" fill="#A2B8FF"/>
<path d="M348.84 317.35C352.116 309.385 355.893 301.636 360.15 294.15C360.35 293.723 360.648 293.35 361.02 293.06C361.329 292.872 361.667 292.737 362.02 292.66C365.19 291.77 368.29 290.61 371.58 290.43C371.627 292.537 371.864 294.636 372.29 296.7C373.19 303.27 375.01 309.57 375.69 316.2C377.92 307.42 382.45 299.7 385.38 291.2C389.305 291.674 393.189 292.439 397 293.49C397.534 293.612 398.046 293.814 398.52 294.09C399.141 294.576 399.64 295.199 399.98 295.91C401.26 298.19 402.35 300.57 403.44 302.91C403.44 303.79 404.54 305.32 404.91 306.14C408.5 313.99 412.64 321.91 416.51 329.7C416.746 330.094 416.88 330.541 416.9 331C416.81 333.15 412.44 335.2 410.9 336.13C408.325 337.615 405.608 338.838 402.79 339.78C401.45 340.24 387.43 342.84 387.32 342.35C386.67 339.35 386.13 336.35 385.73 333.35C391.908 331.843 397.946 329.812 403.78 327.28C403.31 327.49 394.71 310.61 395.11 308.94L392.41 320.16C391.6 323.53 390.26 327.16 390.21 330.64C390.234 331.429 390.358 332.212 390.58 332.97C392.705 341.356 395.497 349.559 398.93 357.5C392.48 361.616 385.283 364.423 377.75 365.76C376.26 361.282 375.061 356.712 374.16 352.08L370.48 366C363.567 365.488 356.725 364.272 350.06 362.37C354.9 354.82 355.38 345.37 356.28 336.47C356.84 330.95 357.61 325.47 358.38 319.97C356.325 323.027 353.911 325.827 351.19 328.31C350.97 328.55 350.685 328.721 350.37 328.8C350.036 328.811 349.705 328.724 349.42 328.55C347.71 327.69 345.37 327.07 345.77 324.76C346.17 322.45 347.85 319.57 348.84 317.35Z" fill="#382C3F"/>
<path d="M369.05 310.37C370.424 313.884 371.462 317.52 372.15 321.23C372.663 324.043 373.053 326.87 373.32 329.71C373.54 332.01 373.22 334.14 373.32 336.44C373.46 339.74 373.503 343.04 373.45 346.34C373.45 347.993 373.4 349.66 373.3 351.34C373.24 352.64 373.48 354.59 373.04 355.81C374.15 352.76 374.12 349.44 374.15 346.19C374.253 337.667 374.807 329.155 375.81 320.69C375.971 319.564 376.018 318.425 375.95 317.29C375.801 316.221 375.57 315.164 375.26 314.13C374.785 312.185 374.415 310.215 374.15 308.23C373.35 302.73 372.76 297.23 371.57 291.77C371.515 291.368 371.36 290.986 371.12 290.66C370.44 289.88 368.12 291.21 367.27 291.52C366.98 291.63 364.27 292.88 364.05 292.64C366.911 296.712 369.203 301.157 370.86 305.85C370.86 305.91 369.55 306.29 369.44 306.36C369.176 306.527 368.954 306.751 368.79 307.016C368.625 307.281 368.523 307.58 368.49 307.89C368.48 308.749 368.672 309.599 369.05 310.37Z" fill="#241B2B"/>
<path d="M378.31 307.57C380.31 303.183 382.22 298.753 384.04 294.28C384.37 293.49 384.72 291.69 385.33 291.12C385.94 290.55 387.33 290.91 388.16 291.01C390.488 291.282 392.773 291.846 394.96 292.69C391.839 294.3 389.05 296.485 386.74 299.13C385.534 300.486 384.431 301.93 383.44 303.45C382.94 304.21 382.44 304.98 382.02 305.77C381.79 306.16 381.12 308.04 380.75 308.18C381.264 307.952 381.817 307.823 382.38 307.8C382.659 307.789 382.937 307.857 383.18 307.994C383.424 308.132 383.625 308.335 383.76 308.58C383.848 308.841 383.884 309.116 383.865 309.391C383.846 309.666 383.773 309.934 383.65 310.18C382.586 312.781 381.374 315.318 380.02 317.78C377.043 324.242 375.141 331.146 374.39 338.22C374.65 333.28 374.916 328.343 375.19 323.41C375.29 321.47 375.4 319.54 375.55 317.6C375.647 316.038 375.871 314.486 376.22 312.96C376.736 311.163 377.405 309.413 378.22 307.73L378.31 307.57Z" fill="#241B2B"/>
<g style="mix-blend-mode:multiply" opacity="0.35">
<g style="mix-blend-mode:multiply" opacity="0.35">
<path d="M393 313.23C391.261 317.146 388.228 320.345 384.41 322.29C387.41 319.29 390.12 316.36 393 313.23Z" fill="black"/>
</g>
</g>
<g style="mix-blend-mode:multiply" opacity="0.35">
<g style="mix-blend-mode:multiply" opacity="0.35">
<path d="M361.29 294.13C362.73 294.82 362.9 296.76 362.96 298.13C363.219 302.591 362.569 307.058 361.05 311.26C361.52 306.84 362 302.54 362.18 298.13C362.23 296.72 362.44 295.13 361.29 294.13Z" fill="black"/>
</g>
</g>
<g style="mix-blend-mode:multiply" opacity="0.35">
<g style="mix-blend-mode:multiply" opacity="0.35">
<path d="M380.39 361.83C385.58 361.17 389.74 357.83 394.14 355.23C390.85 358.82 385.51 362.68 380.39 361.83Z" fill="black"/>
</g>
</g>
<g style="mix-blend-mode:multiply" opacity="0.35">
<g style="mix-blend-mode:multiply" opacity="0.35">
<path d="M387.85 356.09C389.7 354.09 391.31 352.4 393.2 350.45C392.861 351.767 392.192 352.977 391.256 353.964C390.32 354.95 389.147 355.682 387.85 356.09Z" fill="black"/>
</g>
</g>
<g style="mix-blend-mode:multiply" opacity="0.35">
<g style="mix-blend-mode:multiply" opacity="0.35">
<path d="M355.16 360.06C358.815 360.527 362.517 360.486 366.16 359.94C364.481 360.872 362.596 361.371 360.675 361.392C358.755 361.413 356.859 360.955 355.16 360.06Z" fill="black"/>
</g>
</g>
<g style="mix-blend-mode:multiply" opacity="0.35">
<g style="mix-blend-mode:multiply" opacity="0.35">
<path d="M393.74 334.24C394.086 334.259 394.422 334.368 394.713 334.556C395.005 334.744 395.243 335.005 395.403 335.312C395.563 335.62 395.641 335.964 395.628 336.311C395.615 336.658 395.512 336.995 395.33 337.29C394.731 336.311 394.2 335.292 393.74 334.24Z" fill="black"/>
</g>
</g>
<g style="mix-blend-mode:multiply" opacity="0.35">
<g style="mix-blend-mode:multiply" opacity="0.35">
<path d="M405.27 326.94C405.807 326.567 406.42 326.318 407.065 326.21C407.71 326.101 408.371 326.137 409.001 326.314C409.63 326.49 410.213 326.804 410.707 327.232C411.202 327.66 411.595 328.192 411.86 328.79C409.954 327.407 407.617 326.751 405.27 326.94Z" fill="black"/>
</g>
</g>
<g style="mix-blend-mode:multiply" opacity="0.35">
<g style="mix-blend-mode:multiply" opacity="0.35">
<path d="M397.73 294.73C396.25 298.93 396.14 303.14 395.29 307.48C394.73 303.18 394.98 298.3 397.73 294.73Z" fill="black"/>
</g>
</g>
<path d="M355.58 315.47C356.05 317.47 356.33 319.4 356.79 321.38" stroke="#FFE161" stroke-miterlimit="10" stroke-linecap="round"/>
<path d="M372.14 315C371.74 317.21 371.84 319.44 371.54 321.66" stroke="#FFE161" stroke-miterlimit="10" stroke-linecap="round"/>
<path d="M365.65 311.85C368.34 312.46 370.82 313.92 373.53 314.36C374.09 314.46 374.87 314.36 374.88 313.78C374.72 314.46 374.55 315.13 374.37 315.78C374.365 315.868 374.34 315.954 374.299 316.032C374.257 316.11 374.199 316.177 374.129 316.231C374.059 316.284 373.978 316.321 373.891 316.34C373.805 316.359 373.716 316.359 373.63 316.34C372.132 316.293 370.65 316.026 369.23 315.55C367.944 315.018 366.632 314.551 365.3 314.15C363.539 313.746 361.697 313.875 360.01 314.52C358.42 315.13 357.28 316.26 355.65 316.83C355.179 317.015 354.684 317.132 354.18 317.18C353.52 317.23 352.85 315.41 352.55 314.91C353.182 315.123 353.869 315.106 354.49 314.86C357.71 313.86 360.56 311.36 363.91 311.57C364.496 311.618 365.078 311.711 365.65 311.85Z" fill="#894010"/>
<path d="M344.25 321V353.65L380.76 354.58L385.61 353.94L386.19 321.86L382.19 321H344.25Z" fill="#894010"/>
<g style="mix-blend-mode:multiply">
<path d="M382.19 321L386.19 321.86L385.61 353.94L380.76 354.58L382.19 321Z" fill="#894010"/>
</g>
<g style="mix-blend-mode:multiply">
<path d="M382.19 321L374.69 331C373.642 332.395 372.283 333.526 370.72 334.302C369.157 335.078 367.435 335.478 365.69 335.47H359.21C357.272 335.47 355.368 334.967 353.682 334.012C351.996 333.057 350.586 331.682 349.59 330.02L344.21 321.02L382.19 321Z" fill="#894010"/>
</g>
<path opacity="0.32" d="M357.11 321V335.23C360.55 335.885 364.077 335.953 367.54 335.43L367.76 321H357.11Z" fill="#894010"/>
<path d="M362.63 340.68C364.475 340.68 365.97 338.809 365.97 336.5C365.97 334.191 364.475 332.32 362.63 332.32C360.785 332.32 359.29 334.191 359.29 336.5C359.29 338.809 360.785 340.68 362.63 340.68Z" fill="#D1A137"/>
<path d="M381.46 332.42C380.659 332.234 379.913 331.864 379.28 331.34C379.05 331.13 377.01 328.65 377.19 328.51C376.853 328.825 376.625 329.238 376.537 329.691C376.449 330.143 376.506 330.612 376.7 331.03C377.112 331.853 377.695 332.579 378.41 333.16L371.54 333.04C370.78 333.04 369.36 332.75 368.78 333.41C368.06 334.24 369.38 334.67 370 334.69C371.865 334.599 373.735 334.73 375.57 335.08C375.698 335.107 375.815 335.169 375.91 335.26C375.935 335.282 375.955 335.308 375.969 335.339C375.983 335.369 375.99 335.402 375.99 335.435C375.99 335.468 375.983 335.501 375.969 335.531C375.955 335.562 375.935 335.588 375.91 335.61C375.867 335.616 375.823 335.616 375.78 335.61C373.3 335.85 370.85 336.34 368.38 336.7C368.113 336.724 367.852 336.795 367.61 336.91C367.488 336.969 367.384 337.06 367.309 337.172C367.233 337.285 367.189 337.415 367.18 337.55C367.18 338.55 368.8 338.47 369.43 338.43C371.52 338.31 373.58 338.06 375.68 337.96C375.766 337.946 375.854 337.96 375.932 338C376.01 338.04 376.073 338.103 376.112 338.181C376.151 338.26 376.164 338.348 376.149 338.434C376.135 338.52 376.093 338.599 376.03 338.66C375.932 338.735 375.819 338.789 375.7 338.82C374.62 339.16 373.52 339.47 372.41 339.75C371.436 340.022 370.481 340.356 369.55 340.75C369.255 340.841 368.98 340.987 368.74 341.18C368.619 341.274 368.526 341.399 368.47 341.542C368.413 341.684 368.396 341.839 368.42 341.99C368.469 342.164 368.572 342.319 368.714 342.431C368.855 342.544 369.029 342.61 369.21 342.62C369.574 342.641 369.938 342.587 370.28 342.46L373.17 341.58C374.206 341.196 375.305 341.009 376.41 341.03C376.63 341.03 376.89 341.11 376.98 341.32C377.07 341.53 376.72 341.89 376.42 342.03C375.86 342.29 372.16 344.17 373.07 345.14C373.139 345.197 373.219 345.24 373.304 345.266C373.39 345.291 373.481 345.3 373.57 345.29C375.48 345.29 376.8 343.29 378.64 342.81C379.479 342.641 380.338 342.597 381.19 342.68C382.046 342.75 382.904 342.558 383.65 342.13C384.51 341.56 384.47 340.72 384.56 339.8C384.56 339.55 387.99 339.45 388.48 339.43C388.581 338.016 388.326 336.6 387.74 335.31C387.698 335.176 387.609 335.062 387.49 334.99C387.385 334.96 387.274 334.96 387.17 334.99C386.53 335.09 385.95 335.22 385.3 335.27C385.116 335.303 384.927 335.299 384.745 335.258C384.563 335.217 384.391 335.139 384.24 335.03C384.057 334.769 383.931 334.473 383.87 334.16C383.629 333.563 383.167 333.083 382.58 332.82C382.215 332.663 381.841 332.53 381.46 332.42Z" fill="#FFB8B3"/>
<path d="M341.75 333.88C341.907 333.66 342.081 333.453 342.27 333.26C342.593 332.977 342.897 332.673 343.18 332.35C343.87 331.44 343.85 330.13 344.54 329.22C344.54 329.53 344.54 333.77 344.54 333.77C346.377 333.709 348.209 333.98 349.95 334.57C350.091 334.603 350.217 334.68 350.31 334.79C350.356 334.877 350.373 334.976 350.359 335.073C350.344 335.17 350.299 335.26 350.23 335.33C350.09 335.465 349.918 335.562 349.73 335.61C348.518 335.949 347.256 336.081 346 336C345.64 336 345 336.06 345 336.54C345 337.24 346.25 337.01 346.67 337.01L351.57 337.08C352.22 337.08 353.1 337.78 352.31 338.38C352.084 338.526 351.827 338.618 351.56 338.65C350.482 338.846 349.393 338.983 348.3 339.06C347.54 339.06 346.3 338.84 345.68 339.33C345.62 339.38 345.56 339.45 345.58 339.52C345.6 339.59 345.71 339.62 345.79 339.63C347.21 339.72 348.67 339.56 350.1 339.52C350.53 339.52 351.78 339.52 352.01 340C352.41 340.83 350.66 341.24 350.15 341.25C348.336 341.295 346.529 341.496 344.75 341.85C344.99 343.57 347.75 342.67 348.9 343.02C348.996 343.04 349.083 343.089 349.15 343.16C349.205 343.228 349.235 343.313 349.235 343.4C349.235 343.487 349.205 343.572 349.15 343.64C349.029 343.767 348.878 343.86 348.71 343.91C347.33 344.44 343.08 345.31 342.16 343.65C342.033 343.409 341.977 343.137 342 342.866C342.023 342.595 342.124 342.336 342.29 342.12C342.081 341.96 341.914 341.752 341.803 341.514C341.691 341.276 341.639 341.014 341.65 340.751C341.66 340.489 341.734 340.232 341.865 340.004C341.995 339.776 342.179 339.582 342.4 339.44C342.145 339.373 341.914 339.234 341.736 339.039C341.559 338.843 341.442 338.601 341.4 338.34C341.367 338.086 341.407 337.828 341.515 337.596C341.623 337.365 341.795 337.168 342.01 337.03C341.33 337.45 341.01 335.16 341.15 334.9C341.307 334.536 341.508 334.194 341.75 333.88Z" fill="#FFB8B3"/>
<path d="M361.48 228.19L362.1 233.44C362.197 234.246 362.558 234.997 363.125 235.578C363.693 236.158 364.436 236.535 365.24 236.65C366.415 236.8 367.605 236.8 368.78 236.65C370.204 236.515 371.601 236.178 372.93 235.65C373.661 235.329 374.27 234.782 374.666 234.089C375.062 233.395 375.225 232.593 375.13 231.8L374.53 226.7L361.48 228.19Z" fill="#573A66" stroke="white" stroke-miterlimit="10"/>
<path d="M360.83 225.9L361.17 228.84C363.17 230.65 373.41 230.01 375.07 227.2L374.74 224.41L360.83 225.9Z" fill="#BC46AB" stroke="white" stroke-miterlimit="10"/>
<path d="M368.055 227.461C371.895 227.008 374.888 225.636 374.742 224.396C374.596 223.157 371.365 222.519 367.525 222.972C363.686 223.425 360.692 224.797 360.839 226.037C360.985 227.276 364.216 227.914 368.055 227.461Z" fill="#FF71F8" stroke="white" stroke-miterlimit="10"/>
<path d="M360.62 219.84C357.647 218.7 355.213 216.483 353.8 213.63C352.568 211.058 352.217 208.152 352.8 205.36C353.6 201.36 356.2 195.73 364.46 194.75C371.76 193.89 375.54 197.67 377.46 201.02C379.234 204.145 379.739 207.833 378.87 211.32C378.155 214.262 376.318 216.807 373.75 218.41L373.92 224.81C372.41 227.04 363.6 227.89 361.84 226.05L360.62 219.84Z" fill="#FFE161" stroke="white" stroke-miterlimit="10"/>
<g style="mix-blend-mode:multiply" opacity="0.43">
<path d="M361.23 224.52C361.637 224.968 362.167 225.286 362.754 225.436C363.34 225.585 363.958 225.559 364.53 225.36C365.21 225.163 365.81 224.753 366.24 224.19C366.42 223.333 366.42 222.447 366.24 221.59C366.091 219.63 365.79 217.684 365.34 215.77C364.847 213.998 364.443 212.202 364.13 210.39C363.94 208.86 363.87 206.75 364.73 205.39C365.584 204.354 366.709 203.575 367.98 203.14C369.19 202.56 370.46 201.74 370.76 200.43C370.846 199.852 370.78 199.262 370.57 198.717C370.36 198.172 370.012 197.69 369.56 197.32C368.616 196.551 367.518 195.995 366.34 195.69C365.331 195.381 364.302 195.14 363.26 194.97C366.424 194.233 369.749 194.708 372.58 196.3C374.481 197.462 376.044 199.103 377.11 201.06C378.885 204.181 379.394 207.865 378.53 211.35C377.812 214.295 375.971 216.843 373.4 218.45L373.57 224.85C372.35 226.65 368.87 226.93 366.93 227.05C365.657 227.166 364.373 227.095 363.12 226.84C362.656 226.773 362.212 226.606 361.82 226.35C361.19 225.88 361.45 225.2 361.23 224.52Z" fill="#F4B01A"/>
</g>
<g opacity="0.56">
<path opacity="0.56" d="M365.24 223.56L365.52 225.92C365.86 226.75 370.05 226.44 370.35 225.35L370.07 222.99L365.24 223.56Z" fill="#BC46AB"/>
<path opacity="0.56" d="M370.07 223C370.12 223.4 369.07 223.85 367.74 224C366.41 224.15 365.28 224 365.24 223.56C365.2 223.12 366.24 222.72 367.57 222.56C368.9 222.4 370 222.6 370.07 223Z" fill="#6D3C6B"/>
</g>
<path d="M366.78 223.08C366.51 220.86 365.99 218.71 365.5 216.52C365.23 215.32 364.96 214.11 364.59 212.93C364.329 211.905 363.824 210.959 363.12 210.17C363.065 210.092 362.989 210.03 362.9 209.993C362.812 209.956 362.715 209.944 362.62 209.96C361.82 210.22 363.2 212.31 363.47 212.62C363.735 213.025 364.13 213.327 364.59 213.476C365.051 213.625 365.548 213.613 366 213.44C366.29 213.284 366.542 213.066 366.739 212.801C366.936 212.537 367.073 212.233 367.14 211.91C367.279 211.265 367.261 210.597 367.09 209.96C367.005 209.496 366.829 209.054 366.57 208.66C366.1 207.98 365.8 208.77 365.76 209.21C365.693 209.877 365.716 210.55 365.83 211.21C366.07 212.4 366.83 213.63 368.22 213.21C368.609 213.06 368.963 212.833 369.262 212.542C369.561 212.252 369.798 211.904 369.96 211.52C370.184 211.107 370.274 210.636 370.22 210.17C370.05 209.38 369.39 209.89 369.14 210.35C368.548 211.523 368.233 212.816 368.22 214.13C368.125 217.043 368.225 219.96 368.52 222.86" stroke="white" stroke-miterlimit="10" stroke-linecap="round"/>
<path opacity="0.58" d="M356.4 200.38C355.589 201.438 355.025 202.665 354.75 203.97C354.66 204.395 354.66 204.835 354.75 205.26C354.91 205.73 355.191 206.15 355.565 206.476C355.94 206.803 356.394 207.024 356.882 207.117C357.37 207.211 357.874 207.173 358.343 207.009C358.811 206.844 359.228 206.558 359.55 206.18C360.024 205.453 360.401 204.666 360.67 203.84C361.215 202.378 362.183 201.111 363.45 200.2C363.824 200.005 364.162 199.748 364.45 199.44C365.13 198.52 364.01 197.49 363.19 197.23C362.28 196.993 361.318 197.06 360.45 197.42C358.847 198.003 357.442 199.029 356.4 200.38Z" fill="white"/>
<path opacity="0.58" d="M357.12 209.64C357.304 209.804 357.457 210.001 357.57 210.22C357.722 210.497 357.817 210.801 357.849 211.115C357.88 211.429 357.849 211.746 357.755 212.047C357.662 212.349 357.509 212.628 357.305 212.869C357.102 213.11 356.851 213.308 356.57 213.45C354.57 214.26 354.09 211.37 354.31 210.07C354.328 209.879 354.39 209.694 354.49 209.53C354.66 209.301 354.91 209.144 355.19 209.09C355.532 209.019 355.886 209.031 356.223 209.127C356.559 209.223 356.867 209.399 357.12 209.64Z" fill="white"/>
<path d="M360.94 170.4C361.7 175.93 362.52 181.4 363.51 186.9" stroke="white" stroke-miterlimit="10" stroke-linecap="round"/>
<path d="M348.17 184.26C349.34 186 350.58 187.68 351.91 189.31" stroke="white" stroke-miterlimit="10" stroke-linecap="round"/>
<path d="M375.31 188C376.19 185.533 377.063 183.063 377.93 180.59" stroke="white" stroke-miterlimit="10" stroke-linecap="round"/>
<path d="M383.63 194.17L397.28 184.17" stroke="white" stroke-miterlimit="10" stroke-linecap="round"/>
<path d="M329.06 192.87L345.72 199.72" stroke="#FFE161" stroke-miterlimit="10" stroke-linecap="round"/>
<path d="M336.71 211.11C339.505 210.962 342.28 210.557 345 209.9" stroke="#FFE161" stroke-miterlimit="10" stroke-linecap="round"/>
<path d="M334.33 229.73C339.543 226.71 344.657 223.53 349.67 220.19" stroke="#FFE161" stroke-miterlimit="10" stroke-linecap="round"/>
<path d="M387.83 203.26L395.23 202.34" stroke="white" stroke-miterlimit="10" stroke-linecap="round"/>
<path d="M386.65 212.32C392.31 214.16 397.937 216.087 403.53 218.1" stroke="white" stroke-miterlimit="10" stroke-linecap="round"/>
<path d="M352.31 231.75L354.59 228.03" stroke="#FFE161" stroke-miterlimit="10" stroke-linecap="round"/>
<path d="M383.84 221.55L389.46 224.42" stroke="white" stroke-miterlimit="10" stroke-linecap="round"/>
<path d="M217.86 380.25H177.48V452.54H217.86V380.25Z" fill="#696784"/>
<g style="mix-blend-mode:multiply" opacity="0.7">
<path d="M217.87 400.28L177.48 421.61V380.25H217.87V400.28Z" fill="#564C7F"/>
</g>
<path d="M96.3199 216H302.32C304.905 215.996 307.466 216.502 309.856 217.49C312.245 218.478 314.416 219.927 316.245 221.755C318.073 223.584 319.522 225.755 320.51 228.144C321.497 230.534 322.004 233.094 322 235.68V377.68C322 381.939 320.308 386.024 317.296 389.036C314.284 392.048 310.199 393.74 305.94 393.74H91.1399C87.342 393.74 83.6996 392.231 81.0141 389.546C78.3286 386.86 76.8199 383.218 76.8199 379.42V235.53C76.8146 232.966 77.3152 230.427 78.2929 228.057C79.2706 225.687 80.7063 223.533 82.5177 221.719C84.3291 219.905 86.4806 218.466 88.849 217.485C91.2174 216.503 93.7562 215.999 96.3199 216Z" fill="#696784"/>
<path d="M97.15 221H302.75C306.5 221 310.097 222.49 312.749 225.142C315.4 227.793 316.89 231.39 316.89 235.14V360.6C316.89 363.695 315.66 366.663 313.472 368.852C311.283 371.04 308.315 372.27 305.22 372.27H91.38C88.8895 372.262 86.5038 371.267 84.7455 369.503C82.9873 367.739 82 365.35 82 362.86V236.2C81.9947 232.176 83.5876 228.314 86.4284 225.464C89.2693 222.614 93.1258 221.008 97.15 221Z" fill="#564C7F"/>
<path d="M99.4298 223.31H300.43C304.18 223.31 307.776 224.8 310.428 227.452C313.08 230.103 314.57 233.7 314.57 237.45V358.32C314.571 359.854 314.27 361.374 313.683 362.791C313.097 364.209 312.237 365.497 311.152 366.582C310.067 367.667 308.779 368.527 307.361 369.114C305.943 369.7 304.424 370.001 302.89 370H93.6698C91.1741 370 88.7806 369.009 87.0159 367.244C85.2512 365.479 84.2598 363.086 84.2598 360.59V238.48C84.2624 234.457 85.8615 230.6 88.7059 227.756C91.5502 224.912 95.4072 223.313 99.4298 223.31Z" fill="#4D4D4D"/>
<path d="M202.89 383.3C202.89 384.33 202.584 385.338 202.012 386.195C201.439 387.051 200.626 387.719 199.674 388.113C198.722 388.508 197.674 388.611 196.663 388.41C195.653 388.209 194.724 387.713 193.996 386.984C193.267 386.255 192.771 385.327 192.57 384.316C192.369 383.306 192.472 382.258 192.866 381.306C193.261 380.354 193.928 379.541 194.785 378.968C195.642 378.396 196.649 378.09 197.68 378.09C199.061 378.093 200.384 378.642 201.361 379.619C202.337 380.595 202.887 381.919 202.89 383.3Z" fill="white"/>
<path d="M247.7 456.75H147.88L152.51 448.55C153.765 446.329 155.587 444.481 157.791 443.195C159.994 441.909 162.499 441.231 165.05 441.23H231.29C234.03 441.231 236.713 442.013 239.025 443.485C241.336 444.957 243.18 447.057 244.34 449.54L247.7 456.75Z" fill="#564C7F"/>
<path d="M148.91 455.21H247.05C248.13 455.21 249.167 455.638 249.932 456.401C250.696 457.164 251.127 458.2 251.13 459.28H144.83C144.833 458.2 145.264 457.164 146.029 456.401C146.793 455.638 147.83 455.21 148.91 455.21Z" fill="#696784"/>
<path d="M147.09 236.52H94.1099V356.28H147.09V236.52Z" fill="#9ACCCD"/>
<g style="mix-blend-mode:multiply" opacity="0.29">
<path d="M107.05 254.51H99.2598V351.16H107.05V254.51Z" fill="#0083C9"/>
</g>
<path d="M147.09 236.52H94.1099V246.17H147.09V236.52Z" fill="#0083C9"/>
<path d="M147.09 236.52H137.44V246.17H147.09V236.52Z" fill="white"/>
<g style="mix-blend-mode:multiply" opacity="0.29">
<path d="M140.55 254.82H118.76V256.79H140.55V254.82Z" fill="#0083C9"/>
</g>
<path opacity="0.65" d="M118.76 258.45H140.55" stroke="white" stroke-miterlimit="10" stroke-linecap="round"/>
<path opacity="0.65" d="M118.76 260.24H140.55" stroke="white" stroke-miterlimit="10" stroke-linecap="round"/>
<g style="mix-blend-mode:multiply" opacity="0.29">
<path d="M140.62 264.25H118.83V266.22H140.62V264.25Z" fill="#0083C9"/>
</g>
<path opacity="0.65" d="M118.83 267.88H140.62" stroke="white" stroke-miterlimit="10" stroke-linecap="round"/>
<path opacity="0.65" d="M118.83 269.67H140.62" stroke="white" stroke-miterlimit="10" stroke-linecap="round"/>
<g style="mix-blend-mode:multiply" opacity="0.29">
<path d="M140.34 273.39H118.55V275.36H140.34V273.39Z" fill="#0083C9"/>
</g>
<path opacity="0.65" d="M118.55 277.03H140.33" stroke="white" stroke-miterlimit="10" stroke-linecap="round"/>
<path opacity="0.65" d="M118.55 278.81H140.33" stroke="white" stroke-miterlimit="10" stroke-linecap="round"/>
<g style="mix-blend-mode:multiply" opacity="0.29">
<path d="M116.18 254.59H109.97V260.8H116.18V254.59Z" fill="#0083C9"/>
</g>
<g style="mix-blend-mode:multiply" opacity="0.29">
<path d="M116.18 264.1H109.97V270.31H116.18V264.1Z" fill="#0083C9"/>
</g>
<g style="mix-blend-mode:multiply" opacity="0.29">
<path d="M116.18 273.3H109.97V279.51H116.18V273.3Z" fill="#0083C9"/>
</g>
<path d="M109.97 285.17H141.48" stroke="#29B89A" stroke-width="2" stroke-miterlimit="10" stroke-linecap="round"/>
<path opacity="0.65" d="M111.01 289.98H135.79" stroke="white" stroke-miterlimit="10" stroke-linecap="round"/>
<path opacity="0.65" d="M111.01 292.31H138.88" stroke="white" stroke-miterlimit="10" stroke-linecap="round"/>
<path opacity="0.65" d="M110.96 294.46H138.83" stroke="white" stroke-miterlimit="10" stroke-linecap="round"/>
<path opacity="0.65" d="M110.96 296.65H138.83" stroke="white" stroke-miterlimit="10" stroke-linecap="round"/>
<g style="mix-blend-mode:multiply" opacity="0.29">
<path d="M117.11 299.31H111.01V351.15H117.11V299.31Z" fill="#0083C9"/>
</g>
<g style="mix-blend-mode:multiply" opacity="0.29">
<path d="M125.72 304.89H119.76V351.16H125.72V304.89Z" fill="#0083C9"/>
</g>
<g style="mix-blend-mode:multiply" opacity="0.29">
<path d="M133.97 308.26H128.26V351.15H133.97V308.26Z" fill="#0083C9"/>
</g>
<g style="mix-blend-mode:multiply" opacity="0.29">
<path d="M141.84 310.8H137.12V351.15H141.84V310.8Z" fill="#0083C9"/>
</g>
<path opacity="0.42" d="M304.47 230.6H240.39V294.68H304.47V230.6Z" fill="#FFE161"/>
<path opacity="0.42" d="M299.42 236.52H245.7V240.69H299.42V236.52Z" fill="#FFE161"/>
<path opacity="0.42" d="M266.86 245.31H254.56V257.61H266.86V245.31Z" fill="white"/>
<path opacity="0.42" d="M275.13 245.31H270.27V277.49H275.13V245.31Z" fill="white"/>
<path opacity="0.42" d="M299.42 245.31H278.56V257.61H299.42V245.31Z" fill="white"/>
<path opacity="0.59" d="M278.56 262.65H299.42" stroke="#FFE161" stroke-miterlimit="10"/>
<path opacity="0.59" d="M278.56 266.5H299.42" stroke="#FFE161" stroke-miterlimit="10"/>
<path opacity="0.59" d="M278.56 270.13H299.42" stroke="#FFE161" stroke-miterlimit="10"/>
<path opacity="0.59" d="M278.56 276.08H299.42" stroke="#FFE161" stroke-miterlimit="10"/>
<path opacity="0.59" d="M254.56 282.5H299.42" stroke="#9ACCCD" stroke-width="2" stroke-miterlimit="10"/>
<path opacity="0.59" d="M254.56 261.4H266.65" stroke="#FFE161" stroke-width="2" stroke-miterlimit="10"/>
<path opacity="0.59" d="M254.56 264.94H266.65" stroke="#FFE161" stroke-width="2" stroke-miterlimit="10"/>
<path opacity="0.59" d="M254.56 268.26H266.65" stroke="#FFE161" stroke-width="2" stroke-miterlimit="10"/>
<path opacity="0.59" d="M254.56 274.18H266.65" stroke="#9ACCCD" stroke-width="2" stroke-miterlimit="10"/>
<path opacity="0.59" d="M254.56 278.03H266.65" stroke="#9ACCCD" stroke-width="2" stroke-miterlimit="10"/>
<path opacity="0.59" d="M254.56 287.83H299.42" stroke="#9ACCCD" stroke-width="2" stroke-miterlimit="10"/>
<path d="M251.12 242.18H152.83V369.68H251.12V242.18Z" fill="#A2B8FF"/>
<path opacity="0.46" d="M160.26 308.48H240.39" stroke="white" stroke-width="2" stroke-miterlimit="10"/>
<path opacity="0.46" d="M160.26 312.41H226.27" stroke="white" stroke-width="2" stroke-miterlimit="10"/>
<path opacity="0.46" d="M160.26 316.61H232.55" stroke="white" stroke-width="2" stroke-miterlimit="10"/>
<path opacity="0.46" d="M160.26 320.85H239.13" stroke="white" stroke-width="2" stroke-miterlimit="10"/>
<path opacity="0.46" d="M160.26 325.22H240.39" stroke="white" stroke-width="2" stroke-miterlimit="10"/>
<path opacity="0.46" d="M160.26 329.89H226.27" stroke="white" stroke-width="2" stroke-miterlimit="10"/>
<path opacity="0.42" d="M161.69 337.97H220.89" stroke="white" stroke-miterlimit="10"/>
<path opacity="0.42" d="M161.69 342.07H228.55" stroke="white" stroke-miterlimit="10"/>
<path d="M240.39 283.9H160.26V303.01H240.39V283.9Z" fill="#5F79CA"/>
<path d="M251.12 242.18H152.83V253.21H251.12V242.18Z" fill="#0083C9"/>
<path d="M251.12 242.18H240.09V253.21H251.12V242.18Z" fill="white"/>
<path d="M180.45 246.45L178.32 294.07C177.78 306.163 177.237 318.257 176.69 330.35C176.34 338.2 176.78 346.59 175.61 354.35C175.12 357.65 173.52 358.12 169.72 358.35C168.997 358.442 168.263 358.331 167.6 358.03C166.42 357.37 166.11 355.84 165.84 354.51C164.93 350.09 162.56 345.42 158.24 344.08C154.08 342.79 149.63 345.08 146.34 347.92C147.081 341.737 146.098 335.469 143.5 329.81C140.37 322.59 135.05 316.03 127.84 312.86C120.63 309.69 111.46 310.48 105.84 315.95C100.84 320.81 99.3099 328.16 98.0499 335.04C98.6699 332.19 94.8699 329.98 92.1399 331.04C89.4099 332.1 87.8699 334.95 86.9399 337.71C85.0699 345.2 84.9399 352.06 84.9399 359.77C84.8036 361.977 85.1447 364.187 85.9399 366.25C87.5699 369.75 91.2599 369.77 94.6199 369.72C99.0499 369.65 103.49 369.72 107.93 369.72C120.54 369.72 133.24 369.87 145.93 369.87H225.46C249.92 369.87 274.34 369.87 298.79 370.53C302.29 370.62 305.91 370.7 309.13 369.34C314.69 366.99 316.3 359.75 313.22 354.7C312.814 353.975 312.213 353.378 311.484 352.979C310.756 352.579 309.929 352.392 309.1 352.44C310.483 349.877 311.241 347.022 311.31 344.11C311.334 342.656 311.019 341.216 310.389 339.905C309.759 338.594 308.831 337.449 307.68 336.56C305.3 334.9 301.68 334.93 299.68 337.03C300.957 330.726 300.483 324.193 298.31 318.14C296.82 314.03 294.45 310.08 290.86 307.59C287.674 305.542 283.986 304.41 280.2 304.32C272.382 303.911 264.706 306.516 258.752 311.599C252.798 316.682 249.021 323.855 248.2 331.64C246.25 327.74 241.34 325.92 237.06 326.72C232.78 327.52 229.15 330.47 226.58 333.98C222.82 339.1 219.68 347.12 221.84 353.41C221.478 351.996 220.793 350.685 219.84 349.58C219.35 349.032 218.71 348.639 217.999 348.449C217.289 348.259 216.538 348.28 215.84 348.51C215.19 342.59 215.73 336.66 215.3 330.7C214.873 322.107 214.437 313.52 213.99 304.94C213.003 285.68 212.003 266.42 210.99 247.16L180.45 246.45Z" fill="white"/>
<path d="M201.63 369.83C202.805 369.965 203.988 370.009 205.17 369.96C215.76 370.03 226.35 369.74 236.93 369.74C251.93 369.74 267.02 369.85 282.07 369.96L252.66 367.09C251.52 366.97 250.09 366.61 249.91 365.47C249.898 364.945 250.018 364.426 250.26 363.96C252.34 358.75 249.69 352.27 244.77 349.58C237.07 345.35 225.51 350.3 223.13 358.58C222.87 356.12 222.57 353.58 221.29 351.46C217.95 345.93 210.1 348.46 207.37 353.28C206.461 354.947 206.038 356.835 206.149 358.73C206.261 360.625 206.902 362.451 208 364C207.422 363.063 206.544 362.351 205.508 361.978C204.473 361.606 203.342 361.596 202.3 361.95C201.274 362.354 200.39 363.053 199.762 363.959C199.134 364.865 198.788 365.937 198.77 367.04C198.7 368.9 200 369.59 201.63 369.83Z" fill="#DEDAEF"/>
<path d="M183.66 349.31C184.87 337.1 184.52 324.81 184.25 312.56C183.98 300.84 184.47 289.2 184.47 277.49C186.54 308.13 188.61 339 184.64 369.49L114.69 369.78C110.5 369.78 106.04 369.78 102.49 367.51C101.3 366.76 100.15 365.51 100.37 364.13C100.476 363.68 100.676 363.257 100.957 362.89C101.238 362.523 101.593 362.22 102 362C102.789 361.53 103.67 361.236 104.583 361.137C105.496 361.039 106.419 361.139 107.29 361.43C106.797 359.286 106.763 357.062 107.19 354.905C107.617 352.747 108.497 350.704 109.77 348.91C111.097 347.189 112.802 345.794 114.752 344.834C116.702 343.874 118.846 343.373 121.02 343.37C122.811 343.348 124.579 343.778 126.16 344.62C127.217 345.22 128.135 346.036 128.855 347.015C129.575 347.993 130.081 349.113 130.34 350.3C130.787 349.512 131.435 348.858 132.219 348.404C133.003 347.95 133.894 347.714 134.8 347.72C136.625 347.76 138.384 348.408 139.8 349.56C141.654 351.02 143.047 352.986 143.81 355.22C144.573 357.454 144.674 359.86 144.1 362.15C146.3 359.9 150.1 359.9 152.86 361.39C155.62 362.88 157.57 365.53 159.24 368.19C159.665 366.923 160.425 365.794 161.439 364.922C162.453 364.051 163.683 363.47 165 363.24C168.28 362.71 170.32 365.78 173.3 366.24C176.6 366.79 179.6 363.24 180.95 360.59C182.71 357.13 183.28 353.19 183.66 349.31Z" fill="#DEDAEF"/>
<path d="M201.56 359.86C200.893 347.707 200.443 335.547 200.21 323.38C199.92 308.52 199.68 293.58 197.69 278.82C197.46 277.13 197.21 275.45 196.94 273.76L192.4 275C192.35 306.5 192.29 338.05 189.6 369.45C190.26 369.38 193.13 369.51 193.79 369.45C194.45 369.39 194.98 352.83 195.05 351.22C195.27 345.29 195.55 339.31 195.49 333.39C195.363 320.857 195.626 308.323 196.28 295.79C197.57 302.79 197.75 309.91 197.92 317.01C198.36 334.54 198.11 352.25 199.24 369.75C200.204 369.846 201.175 369.846 202.14 369.75C201.933 366.437 201.74 363.14 201.56 359.86Z" fill="#DEDAEF"/>
<path d="M206.55 368.94C206.55 364.6 206.11 339.11 206.06 336.58C205.81 325.3 205.37 314.02 205.43 302.74C206.15 314.22 207.07 325.74 207.82 337.18C208.52 347.92 208.31 358.75 208.98 369.41H209.98C210.03 369.41 207.46 284.77 207.27 277.02C207.27 275.61 207.2 274.2 207.15 272.79C206.678 272.933 206.248 273.191 205.899 273.54C205.55 273.888 205.293 274.318 205.15 274.79C204.849 275.73 204.707 276.713 204.73 277.7C204.44 287.38 204.22 296.94 204.23 306.62V346.74C204.23 351.02 204.23 355.303 204.23 359.59C204.23 362.86 204.03 366.59 204.35 369.74C205.071 369.743 205.792 369.706 206.51 369.63C206.541 369.401 206.554 369.171 206.55 368.94Z" fill="#DEDAEF"/>
<path d="M248.2 338.72C248.89 336.07 251.37 334.3 253.7 333.07C259.21 330.07 265.46 333.07 267.52 338.79C268.507 341.356 268.446 344.208 267.35 346.73C267.92 341.79 265.65 336.63 261.16 334.47C257.04 332.58 250.8 335.11 248.16 338.72H248.2Z" fill="#DEDAEF"/>
<path d="M273.22 328.16C273.061 325.251 273.966 322.384 275.766 320.093C277.565 317.803 280.136 316.245 283 315.71C284.118 315.516 285.264 315.567 286.36 315.859C287.456 316.151 288.475 316.678 289.348 317.402C290.221 318.126 290.926 319.032 291.415 320.055C291.904 321.079 292.165 322.196 292.18 323.33C292.245 324.37 292.225 325.413 292.12 326.45C292.121 326.595 292.081 326.738 292.002 326.86C291.924 326.983 291.812 327.08 291.68 327.14C291.659 327.152 291.635 327.159 291.61 327.159C291.586 327.159 291.562 327.152 291.541 327.14C291.519 327.128 291.502 327.111 291.489 327.09C291.477 327.068 291.47 327.044 291.47 327.02C291.56 327.22 291.73 327.02 291.79 326.9C291.85 326.78 291.66 325.72 291.64 325.46C289.7 311.94 275.19 317.82 273.23 328.16H273.22Z" fill="#DEDAEF"/>
<path d="M286.32 340.81C290.66 335.12 300.07 338.04 301.16 344.95C301.463 346.974 301.333 349.04 300.78 351.01C300.538 349.096 300.161 347.201 299.65 345.34C297.88 339.84 291.17 337.79 286.32 340.81Z" fill="#DEDAEF"/>
<path d="M291.42 359.91C291.616 359.661 291.862 359.455 292.141 359.305C292.421 359.155 292.729 359.064 293.045 359.039C293.361 359.014 293.679 359.055 293.979 359.158C294.279 359.262 294.554 359.427 294.787 359.642C295.021 359.857 295.207 360.118 295.334 360.409C295.462 360.699 295.527 361.013 295.528 361.33C295.528 361.648 295.462 361.962 295.335 362.252C295.209 362.543 295.023 362.804 294.79 363.02C294.49 362.286 294.033 361.628 293.451 361.09C292.868 360.553 292.175 360.15 291.42 359.91Z" fill="#DEDAEF"/>
<path d="M95.1797 347.86C91.3897 342.86 97.3497 334.73 103.28 337.66C104.106 338.119 104.81 338.771 105.332 339.559C105.854 340.347 106.179 341.25 106.28 342.19C101.84 335.01 93.8697 340.9 95.2797 347.86H95.1797Z" fill="#DEDAEF"/>
<path d="M110.33 328.13C111.33 321.7 119.33 318.03 124.94 321.58C128.15 323.48 129.94 327.93 128.41 331.31C128.544 329.158 127.86 327.035 126.495 325.367C125.13 323.698 123.186 322.606 121.05 322.31C116.64 321.61 112.55 324.31 110.33 328.17V328.13Z" fill="#DEDAEF"/>
<path d="M123.05 357.63C122.58 354.5 125.78 351.63 128.94 351.89C132.1 352.15 134.84 355.44 133.94 358.46C133.602 357.215 132.906 356.095 131.94 355.24C129.04 352.55 124.64 354.16 123.13 357.63H123.05Z" fill="white"/>
<path d="M262.63 360.84C262.597 360.449 262.665 360.055 262.827 359.697C262.989 359.339 263.239 359.029 263.555 358.794C263.87 358.56 264.24 358.41 264.629 358.359C265.019 358.307 265.415 358.356 265.78 358.5C266.052 358.599 266.285 358.785 266.442 359.029C266.599 359.273 266.672 359.561 266.65 359.85C266.262 359.813 265.871 359.882 265.52 360.05C264.616 360.496 263.635 360.764 262.63 360.84Z" fill="#DEDAEF"/>
<path d="M168.37 189.41C152.71 239.09 156.99 239.12 171.37 287.83V299C183.99 303.82 209.29 303.66 220.87 299L220.66 287.83C241.4 228.53 234.98 230.25 224.11 189.41L215.76 180.05H175.14L168.37 189.41Z" fill="#76CCB6"/>
<g style="mix-blend-mode:multiply" opacity="0.31">
<path d="M205.37 179.62C212.74 189.9 217.98 201.62 221.8 213.62C223.642 218.999 224.834 224.578 225.35 230.24C225.865 238.051 224.367 245.863 221 252.93C218.37 258.45 214.06 265.99 207.14 266.56C204.62 266.77 202.21 265.47 200.29 263.83C198.37 262.19 196.79 260.18 194.87 258.55C191.966 256.154 188.428 254.655 184.687 254.234C180.946 253.813 177.164 254.489 173.8 256.18C168.5 258.94 165.99 264.73 166.43 270.55C166.764 273.629 167.487 276.653 168.58 279.55C169.38 281.93 171.42 285.31 171.42 287.83V299C184.04 303.82 209.34 303.66 220.92 299L220.71 287.83C241.45 228.53 235.03 230.25 224.16 189.41L215.81 180.05C213.652 179.997 211.499 179.824 209.36 179.53C208.89 179.48 205.22 179.38 205.23 179.39L205.37 179.62Z" fill="#0083C9"/>
</g>
<path d="M171.39 287.83V299C184.01 303.82 209.31 303.66 220.89 299L220.68 287.83C204 293.29 187.66 292.54 171.39 287.83Z" fill="#5F79CA"/>
<path d="M196 141C181.51 148.13 168.33 189.41 168.33 189.41C182.16 193.57 208.75 194.08 224.09 189.41C224.13 189.41 210.52 147.26 196 141Z" fill="#FFE161"/>
<path d="M197.8 184.45C188.831 184.597 179.872 183.799 171.07 182.07C170.074 184.468 169.21 186.918 168.48 189.41C182.32 193.57 208.9 194.08 224.25 189.41C223.99 189.49 222.02 182.5 221.82 181.88C216.93 183.88 211.53 184.06 206.26 184.26C203.42 184.37 200.6 184.44 197.8 184.45Z" fill="#5F79CA"/>
<g style="mix-blend-mode:multiply" opacity="0.31">
<path d="M196.15 141C194.79 141.693 193.529 142.564 192.4 143.59C189.4 146.26 186.21 149.83 184.71 153.59C186.546 151.657 188.692 150.045 191.06 148.82L202.06 170.65C203.91 174.31 205.85 177.93 207.75 181.57C208.75 183.43 209.67 185.29 210.61 187.17C210.96 187.88 212.37 191.79 213.02 191.72C215.359 191.368 217.679 190.898 219.97 190.31C220.27 190.25 224.13 189.25 224.21 189.31C224.29 189.37 210.63 147.26 196.15 141Z" fill="#BC46AB"/>
</g>
<path d="M210.541 241.127C218.559 233.11 218.559 220.111 210.541 212.094C202.524 204.076 189.525 204.076 181.508 212.094C173.49 220.111 173.49 233.11 181.508 241.127C189.525 249.145 202.524 249.145 210.541 241.127Z" fill="#5F79CA"/>
<path d="M202.05 240.972C209.979 237.642 213.707 228.516 210.377 220.588C207.048 212.659 197.922 208.931 189.993 212.261C182.065 215.59 178.337 224.717 181.666 232.645C184.996 240.573 194.122 244.301 202.05 240.972Z" fill="#9ACCCD"/>
<path opacity="0.47" d="M198.9 212.33C199.01 212.18 199.12 212.03 199.24 211.89C200.245 212.077 201.223 212.389 202.15 212.82C202.841 213.193 203.509 213.607 204.15 214.06C204.28 214.16 200.44 219.24 200.08 219.7C195.41 225.7 190.92 231.99 186.08 237.92C184.906 237.039 183.917 235.934 183.17 234.67C183.091 234.559 183.045 234.427 183.04 234.29C183.056 234.19 183.093 234.094 183.15 234.01C184.81 231.14 186.98 228.4 188.89 225.67C192.1 221.11 195.5 216.73 198.9 212.33Z" fill="white"/>
<path opacity="0.47" d="M206.69 216.67C207.301 217.303 207.876 217.97 208.41 218.67C208.41 218.67 208.46 218.67 208.47 218.76C208.48 218.85 208.47 218.9 208.39 218.96C205.64 222.29 203.09 225.79 200.39 229.19C197.33 233.08 194.25 236.96 191.05 240.74C190.325 240.595 189.631 240.324 189 239.94C188.94 239.94 193.25 234.44 193.62 233.94C194.82 232.43 206.83 216.79 206.69 216.67Z" fill="white"/>
<path opacity="0.47" d="M209.56 222C211.79 227.54 209.64 233.59 205.2 237.33C202.538 239.569 199.214 240.873 195.74 241.04C198.74 237.04 201.74 233.15 204.56 229.12C206.24 226.753 207.906 224.38 209.56 222Z" fill="white"/>
<path opacity="0.47" d="M192.25 212C189.11 213 185.69 215.07 183.98 217.84C182.98 219.385 182.215 221.07 181.71 222.84C181.463 223.824 181.302 224.828 181.23 225.84C181.23 226.39 181.5 228.15 181.23 228.54C185.07 222.83 188.67 216.91 193.23 211.72C192.88 211.79 192.57 211.88 192.25 212Z" fill="white"/>
<path d="M162.53 251.92L170 278.3C165.93 281.3 163.79 285.67 162.27 291.13C160.801 296.307 157.563 300.804 153.12 303.84L149.63 306.25C149.013 306.652 148.298 306.876 147.563 306.897C146.828 306.919 146.101 306.737 145.462 306.372C144.823 306.007 144.297 305.473 143.942 304.829C143.587 304.185 143.417 303.455 143.45 302.72L145.57 273.72C145.771 271.044 146.883 268.517 148.72 266.56L162.53 251.92Z" fill="#FFE161"/>
<path opacity="0.49" d="M164.46 258C163.93 259.3 165.53 262.46 165.89 263.73L167.81 270.5L170.03 278.3C165.96 281.3 163.82 285.67 162.3 291.13C160.831 296.307 157.593 300.804 153.15 303.84L149.66 306.25C148.58 307 145.66 307.64 145.12 305.89C145.27 306.38 148.66 302.58 148.86 302.23C149.704 300.567 150.22 298.758 150.38 296.9C151.22 291.885 151.781 286.827 152.06 281.75C152.38 277.16 153.12 272.33 155.63 268.37C158.14 264.41 162.74 262.22 164.46 258Z" fill="#BC46AB"/>
<path d="M230.85 252L222.79 278.41C227.34 281.41 229.79 285.76 231.5 291.21C233.295 296.535 236.938 301.041 241.77 303.91L245.66 306.31C248.66 308.19 252.77 306.07 252.47 302.76L249.83 273.76C249.554 271.023 248.288 268.48 246.27 266.61L230.85 252Z" fill="#FFE161"/>
<path opacity="0.49" d="M228.14 261.2C226.4 266.95 224.55 272.67 222.79 278.42C227.34 281.42 229.79 285.77 231.5 291.22C233.295 296.545 236.938 301.051 241.77 303.92L245.66 306.32C246.356 306.778 247.163 307.04 247.995 307.079C248.827 307.117 249.655 306.931 250.39 306.54C252.39 305.3 249.65 304.22 248.76 303.19C246.32 300.36 245.25 296.5 244.7 292.88C243.96 288.02 243.87 282.88 241.7 278.52C240.738 276.715 239.599 275.01 238.3 273.43C235.047 269.243 231.66 265.167 228.14 261.2Z" fill="#BC46AB"/>
<path d="M195.3 255.06C191.81 266.97 189.82 280.83 189.84 297.34C189.7 302.55 191.28 313.19 196.3 313.19C202.66 313.19 202.92 302.55 202.52 297.34C202.689 283.037 200.748 268.787 196.76 255.05C196.713 254.892 196.616 254.754 196.484 254.656C196.352 254.558 196.191 254.505 196.026 254.506C195.862 254.508 195.702 254.562 195.571 254.662C195.44 254.762 195.345 254.901 195.3 255.06Z" fill="#FFE161"/>
<path opacity="0.49" d="M196.54 254.82C196.33 254.71 195.98 254.53 195.99 254.6C196.378 258.695 196.542 262.807 196.48 266.92C196.62 276.79 196.75 286.67 196.75 296.55C196.75 297.55 197.05 313.19 196.19 313.22C203.49 312.99 202.58 302.22 202.58 297.34C202.613 289.4 202.058 281.468 200.92 273.61C200.413 270.163 199.77 266.73 198.99 263.31C198.63 261.74 198.26 260.16 197.82 258.61C197.57 257.69 197.34 256.74 197.01 255.84C196.9 255.55 196.94 255.15 196.69 254.92C196.644 254.88 196.594 254.847 196.54 254.82Z" fill="#BC46AB"/>
<path d="M11.5774 270.191L-102.539 296.411L-58.8413 486.596L55.2753 460.376L11.5774 270.191Z" fill="#EFEFED"/>
<path opacity="0.72" d="M-81.3501 348.44L6.0199 328.36" stroke="#29B89A" stroke-width="3" stroke-miterlimit="10" stroke-linecap="round"/>
<path opacity="0.42" d="M-80.04 354.16L16.27 332.04" stroke="#0083C9" stroke-width="2" stroke-miterlimit="10" stroke-linecap="round"/>
<path opacity="0.72" d="M-86 307.74L-0.32 288.06" stroke="#29B89A" stroke-width="4" stroke-miterlimit="10" stroke-linecap="round"/>
<path opacity="0.72" d="M-86.1802 327.44L11.2598 305.05" stroke="#29B89A" stroke-width="5" stroke-miterlimit="10" stroke-linecap="round"/>
<g style="mix-blend-mode:multiply" opacity="0.42">
<path d="M17.5355 357.048L-70.0522 377.173L-55.5975 440.084L31.9902 419.959L17.5355 357.048Z" fill="#9ACCCD"/>
</g>
<path d="M92.13 332.89H64.25V370.85H92.13V332.89Z" fill="#FFB861"/>
<path d="M61.5401 357.22C65.373 357.22 68.4801 354.113 68.4801 350.28C68.4801 346.447 65.373 343.34 61.5401 343.34C57.7072 343.34 54.6001 346.447 54.6001 350.28C54.6001 354.113 57.7072 357.22 61.5401 357.22Z" fill="#F7B699"/>
<path d="M97.1958 359.052C100.596 357.282 101.917 353.092 100.147 349.692C98.3773 346.292 94.1865 344.971 90.7867 346.741C87.3869 348.51 86.0656 352.701 87.8354 356.101C89.6052 359.501 93.796 360.822 97.1958 359.052Z" fill="#F7B699"/>
<path d="M36.76 525.84C36.3477 523.672 35.7075 521.554 34.85 519.52C33.5086 518.623 32.3086 517.531 31.29 516.28C30.8917 515.634 30.3514 515.086 29.71 514.68C29.2203 514.504 28.6937 514.456 28.18 514.54C25.4 514.75 22.61 514.88 19.83 515.01C19.8808 517.32 19.7201 519.629 19.35 521.91C19.2 522.7 18.63 525.23 19.09 526.28L36.76 525.84Z" fill="#333842"/>
<path d="M55.3399 368.49L55.2499 368.39C53.5794 366.465 51.3883 365.063 48.9402 364.353C46.492 363.644 43.891 363.657 41.4499 364.39C28.8599 368.45 29.3299 387.93 28.2999 399.39C27.2065 411.503 26.0599 423.61 24.8599 435.71C22.5799 458.71 21.4899 492.21 18.8599 515.16C20.8599 516.16 22.7199 516.26 24.9299 516.48C28.7699 516.86 30.0399 516.48 31.2699 515.48C34.4799 494.6 42.2699 463.63 45.9699 442.85C47.9699 431.93 49.4399 426.64 51.5499 415.75C53.1299 407.62 53.5499 399.26 55.5499 391.22C56.4399 387.56 58.8199 384.08 59.1399 380.44C59.4897 376.112 58.125 371.821 55.3399 368.49Z" fill="#4F5D7A"/>
<path d="M42.63 459.12L37.77 458.16" stroke="#333842" stroke-width="0.75" stroke-linecap="round" stroke-linejoin="round"/>
<path d="M42.5801 459.11L36.8301 461.95" stroke="#333842" stroke-width="0.75" stroke-linecap="round" stroke-linejoin="round"/>
<path d="M58.9997 526H59.2097H61.3097C61.9697 526 62.6397 526 63.3097 526.08C68.5097 526.36 73.8497 527.16 78.9697 527.14C80.7639 527.229 82.5579 526.964 84.2497 526.36C88.3997 524.62 83.2497 522.6 81.5597 521.7C79.8763 520.725 78.1404 519.844 76.3597 519.06C73.9509 518.049 71.6494 516.8 69.4897 515.33C66.5258 516.137 63.4607 516.511 60.3897 516.44C58.7997 516.43 56.6897 525.28 58.9997 526Z" fill="#333842"/>
<path d="M71.1399 391C70.2799 385.91 66.0099 368.37 60.1399 367.55C56.3099 367.02 51.4599 368.55 48.8899 371.82C46.9427 374.524 45.7581 377.701 45.4599 381.02C44.7699 386.63 45.3099 392.56 45.6699 398.19C46.2699 407.14 48.4999 424 48.4999 424C48.4999 424 59.1599 497.86 58.9999 516.17C62.4899 520.77 72.4299 516.17 72.4599 515.62C73.2799 501.18 72.4599 468.62 72.4599 457.45C72.4099 445.44 73.1599 402.92 71.1399 391Z" fill="#6C7995"/>
<path d="M47.83 419.45C46.9767 410.41 46.1234 401.377 45.27 392.35" stroke="#333842" stroke-width="0.75" stroke-miterlimit="10"/>
<path d="M36.1898 398.32C40.2304 399.432 44.3536 400.217 48.5198 400.67C56.4162 401.414 64.3792 400.389 71.8298 397.67C71.6498 394.99 71.4198 392.73 71.1398 391.07C70.2798 385.98 66.0098 368.44 60.1398 367.62C58.3683 367.403 56.571 367.552 54.8598 368.06C53.1827 366.256 51.0342 364.957 48.6573 364.31C46.2804 363.663 43.7699 363.694 41.4098 364.4C30.2698 368 29.3498 383.67 28.5698 395.16C30.925 396.613 33.4975 397.68 36.1898 398.32Z" fill="#3C4966"/>
<path d="M58.2298 297.27C58.2898 297.79 58.3298 298.27 58.3498 298.78C58.4598 300.78 58.5598 302.69 58.6698 304.65C58.882 306.643 58.9855 308.646 58.9798 310.65C58.8098 313.46 58.1998 316.15 55.5898 317.52C54.7709 317.896 53.8806 318.09 52.9798 318.09C52.0789 318.09 51.1886 317.896 50.3698 317.52C49.0998 316.97 47.4798 316.1 46.9798 314.68C46.6998 313.706 46.5882 312.691 46.6498 311.68C46.6498 308.42 46.6498 305.15 46.7298 301.89C46.8098 299.79 46.6598 297.52 47.5598 295.58C48.7998 292.92 51.9798 290.31 54.9398 291.47C57.2598 292.48 57.9998 294.93 58.2298 297.27Z" fill="#F7B699"/>
<path d="M65.3498 293.91L65.1198 293.61C64.6198 292.78 64.2498 291.83 63.8298 290.98C63.698 291.201 63.5545 291.415 63.3998 291.62C63.2782 291.983 63.201 292.359 63.1698 292.74C63.0565 293.521 63.023 294.312 63.0698 295.1C63.0625 295.403 63.1423 295.701 63.2998 295.96C63.7198 296.51 65.1798 295.96 65.7498 295.96C65.9398 295.96 66.1698 295.88 66.2298 295.7C66.4498 295.08 65.6698 294.34 65.3498 293.91Z" fill="#F7B699"/>
<path d="M46.05 282.58C48.6984 280.809 51.8139 279.866 55 279.87C59.08 279.81 61.34 281.53 62.27 283.87C63.6408 287.491 64.3192 291.338 64.27 295.21C64.2718 297.147 64.1382 299.082 63.87 301C63.63 302.78 62.87 304 60.93 304.36C59.1608 304.648 57.3723 304.802 55.58 304.82C53.9085 304.964 52.2249 304.87 50.58 304.54C47.96 303.73 46.44 301.14 45.58 298.73C45.33 298.06 44.83 295.84 44.67 295.16C43.61 291 44.4 283.77 46.05 282.58Z" fill="#F7B699"/>
<path d="M60.7899 277.34C60.4038 276.437 59.7633 275.666 58.9465 275.121C58.1297 274.576 57.1719 274.28 56.1899 274.27" stroke="#333842" stroke-width="0.75" stroke-linecap="round" stroke-linejoin="round"/>
<path d="M62.5198 277.12C62.2696 276.998 61.9842 276.97 61.7148 277.039C61.4454 277.109 61.2096 277.272 61.0498 277.5" stroke="#333842" stroke-width="0.75" stroke-linecap="round" stroke-linejoin="round"/>
<path d="M55.1798 300.89C55.3289 300.863 55.4655 300.79 55.5698 300.68C55.7531 300.057 55.8342 299.409 55.8098 298.76L56.2898 295.06C56.3898 294.28 56.2898 293.62 56.9498 293.13C57.5358 292.721 58.2349 292.504 58.9498 292.51C61.4998 292.51 62.1498 292.81 61.7798 290.05C61.4819 288.739 61.4008 287.387 61.5398 286.05C61.629 285.44 61.9342 284.883 62.3998 284.48C63.1998 283.56 64.0698 283.25 64.2798 282.22C62.7198 276.88 57.6598 273.82 51.7198 275.33C49.0819 275.875 46.588 276.969 44.3998 278.54C43.472 279.267 42.7286 280.202 42.2298 281.27C42.0897 281.527 42.0207 281.817 42.0298 282.11C42.0389 282.33 42.097 282.545 42.1998 282.74C40.6298 285.13 41.5898 288.33 42.0598 290.92C42.3982 292.734 42.9382 294.505 43.6698 296.2C44.0298 297.05 44.4398 297.88 44.8698 298.7C45.0498 299.02 45.8698 301 46.1698 301.01C48.778 301.152 51.392 301.148 53.9998 301C54.3956 300.999 54.7906 300.962 55.1798 300.89Z" fill="#333842"/>
<path d="M57.3797 295.09C57.581 295.367 57.8438 295.593 58.1475 295.751C58.4512 295.909 58.7875 295.994 59.1298 296C59.472 296.006 59.811 295.932 60.1199 295.785C60.4287 295.637 60.6991 295.42 60.9097 295.15C61.3032 294.557 61.5152 293.862 61.5197 293.15C61.5748 292.512 61.486 291.869 61.2597 291.27C61.0803 290.892 60.8118 290.564 60.4773 290.313C60.1429 290.062 59.7525 289.896 59.3397 289.83C56.5397 289.21 55.9997 293.47 57.3797 295.09Z" fill="#F7B699"/>
<path d="M58.5601 291.58C58.5881 291.493 58.6345 291.412 58.6963 291.344C58.7581 291.276 58.8338 291.223 58.9182 291.187C59.0027 291.151 59.0938 291.133 59.1856 291.135C59.2774 291.138 59.3676 291.16 59.4501 291.2C59.7783 291.385 60.0273 291.684 60.1501 292.04C60.4005 292.613 60.5493 293.226 60.5901 293.85C60.4307 293.803 60.2596 293.817 60.1099 293.889C59.9603 293.961 59.8427 294.086 59.7801 294.24C59.7287 294.401 59.7417 294.575 59.8163 294.726C59.891 294.877 60.0214 294.993 60.1801 295.05" stroke="#333842" stroke-width="0.48" stroke-miterlimit="10" stroke-linecap="round"/>
<path d="M62.3896 287.85C63.0478 287.58 63.7608 287.47 64.4697 287.53" stroke="#333842" stroke-width="0.48" stroke-miterlimit="10" stroke-linecap="round"/>
<path d="M64.5099 290.92C64.5301 291.094 64.4983 291.271 64.4186 291.427C64.3389 291.583 64.2147 291.712 64.0618 291.798C63.9088 291.884 63.7338 291.923 63.5589 291.91C63.3839 291.897 63.2168 291.832 63.0785 291.724C62.9401 291.616 62.8368 291.47 62.7814 291.303C62.726 291.137 62.721 290.958 62.7671 290.789C62.8132 290.619 62.9083 290.467 63.0405 290.352C63.1727 290.237 63.336 290.163 63.5099 290.14C63.7458 290.112 63.9833 290.178 64.1707 290.324C64.358 290.47 64.4799 290.684 64.5099 290.92Z" fill="#333842"/>
<path d="M62.4399 298.54C62.7599 298.54 63.4399 298.45 63.7899 298.41" stroke="#333842" stroke-width="0.48" stroke-miterlimit="10" stroke-linecap="round"/>
<path d="M37.8798 362.59H29.3198C26.9893 362.587 24.7551 361.66 23.1072 360.013C21.4594 358.365 20.5324 356.13 20.5298 353.8C20.5285 352.645 20.7549 351.501 21.196 350.433C21.6372 349.366 22.2844 348.395 23.1008 347.578C23.9171 346.761 24.8866 346.112 25.9537 345.67C27.0208 345.228 28.1646 345 29.3198 345H37.8798C39.035 344.999 40.179 345.225 41.2466 345.666C42.3143 346.107 43.2844 346.755 44.1017 347.571C44.919 348.387 45.5674 349.357 46.0097 350.424C46.4521 351.491 46.6798 352.635 46.6798 353.79C46.6798 356.124 45.7526 358.362 44.1023 360.013C42.452 361.663 40.2137 362.59 37.8798 362.59Z" fill="#3D434F"/>
<path d="M33.0897 316.85C26.6197 324.38 20.7397 340.85 20.0897 350.6C19.8416 353.063 20.4528 355.536 21.8197 357.6C22.5134 358.606 23.4753 359.396 24.5961 359.882C25.7168 360.369 26.9515 360.531 28.1597 360.35C30.6797 359.84 32.4597 357.6 33.7397 355.35C35.8197 351.72 38.8297 342.55 39.6497 338.59C40.5697 334.16 42.5597 329.98 43.3597 325.46C43.8497 322.64 46.4997 309.46 40.0497 311.16C38.9718 311.516 37.9828 312.099 37.1497 312.87C35.6867 314.08 34.3285 315.411 33.0897 316.85Z" fill="#4F5D7A"/>
<path d="M43.8799 310.11L46.2799 306.31L59.1799 305.91L62.2799 310.31L43.8799 310.11Z" fill="white"/>
<path d="M71.6998 366.79L69.0798 315.7C68.7198 315.7 69.0798 311.75 67.8498 310.99C66.0498 309.92 61.1498 309.15 59.7698 308.89L46.2098 309C44.1949 309.33 42.2113 309.828 40.2798 310.49C39.1163 310.857 38.0828 311.551 37.3026 312.489C36.5225 313.427 36.0286 314.569 35.8798 315.78L33.9998 341.9L31.3998 366.35L25.2798 384.81C27.5319 387.026 30.1122 388.881 32.9298 390.31C33.7898 390.75 34.6698 391.14 35.5498 391.5C35.5498 391.5 48.0898 396.5 59.7698 393.95C61.9598 393.67 64.1198 393.28 66.2298 392.8C70.7498 391.8 71.6398 391.13 75.9698 389.32L71.6998 366.79Z" fill="#6C7995"/>
<path d="M87.79 362.59H79.23C78.0756 362.59 76.9326 362.363 75.8662 361.921C74.7997 361.479 73.8307 360.832 73.0145 360.015C72.1983 359.199 71.5508 358.23 71.1091 357.164C70.6673 356.097 70.44 354.954 70.44 353.8C70.4373 352.644 70.6628 351.5 71.1035 350.432C71.5442 349.363 72.1914 348.393 73.008 347.575C73.8246 346.758 74.7946 346.109 75.8623 345.667C76.93 345.225 78.0744 344.999 79.23 345H87.79C88.9447 344.999 90.0883 345.225 91.1553 345.666C92.2223 346.108 93.1919 346.755 94.0084 347.572C94.8249 348.388 95.4723 349.358 95.9135 350.425C96.3548 351.492 96.5813 352.635 96.58 353.79C96.5813 354.945 96.3549 356.089 95.9137 357.157C95.4726 358.224 94.8253 359.195 94.009 360.012C93.1926 360.829 92.2232 361.478 91.1561 361.92C90.089 362.362 88.9451 362.59 87.79 362.59Z" fill="#6C7995"/>
<path d="M74.2199 317.64C77.4699 322.43 79.3999 328.72 81.3899 334.13C83.3799 339.54 86.7299 346.49 86.5999 352.29C86.619 353.375 86.3954 354.451 85.9456 355.439C85.4958 356.427 84.831 357.302 83.9999 358C83.0563 358.625 81.9883 359.038 80.8696 359.211C79.7509 359.384 78.6081 359.312 77.5199 359C71.0099 357.46 69.2099 351.9 67.1799 346.39C64.5988 339.524 63.0323 332.318 62.5299 325C62.3699 322.07 61.2399 308.28 67.6899 310.9C68.7591 311.393 69.7104 312.109 70.4799 313C71.8539 314.44 73.1049 315.992 74.2199 317.64Z" fill="#6C7995"/>
<path d="M71.2601 354.89C66.2601 344.68 65.6401 340.97 64.6001 337.37" stroke="#333842" stroke-width="0.3" stroke-miterlimit="10"/>
<path d="M65.8399 342.05L63.6299 338.54" stroke="#333842" stroke-width="0.3" stroke-miterlimit="10"/>
<g opacity="0.72">
<g style="mix-blend-mode:multiply" opacity="0.46">
<path d="M379.28 475.33C421.176 475.33 455.14 470.732 455.14 465.06C455.14 459.388 421.176 454.79 379.28 454.79C337.384 454.79 303.42 459.388 303.42 465.06C303.42 470.732 337.384 475.33 379.28 475.33Z" fill="#8198EC"/>
</g>
<g style="mix-blend-mode:multiply" opacity="0.46">
<path d="M192.44 467.82C237.65 467.82 274.3 462.949 274.3 456.94C274.3 450.931 237.65 446.06 192.44 446.06C147.23 446.06 110.58 450.931 110.58 456.94C110.58 462.949 147.23 467.82 192.44 467.82Z" fill="#8198EC"/>
</g>
</g>
</g>
<defs>
<clipPath id="clip0_488_32998">
<rect width="411" height="550" fill="white"/>
</clipPath>
</defs>
</svg>
