<svg width="411" height="550" viewBox="0 0 411 550" fill="none" xmlns="http://www.w3.org/2000/svg">
<g clip-path="url(#clip0_533_25612)">
<path d="M-746.1 330.37C-711 301.1 -653.55 311.88 -497 333.46C-90.5101 389.52 -30.5802 378.46 14.8198 358.24C38.9198 347.49 76.0898 326.49 133.46 322.62C153.57 321.27 219.85 316.81 270.73 352.04C324 389 348.25 461.07 314.8 495.27C284.33 526.42 223.23 508.45 -45.0402 491.39C-148.84 484.79 -200.74 481.49 -236.24 482.88C-393 489 -431.84 524 -559.8 515.39C-624.8 511.03 -708.88 505.39 -749.04 455.01C-778.55 418 -781.74 360.09 -746.1 330.37Z" fill="#3C5CA9"/>
<path d="M-721.1 346.37C-686 317.1 -628.55 327.88 -472 349.46C-65.5102 405.52 -5.58018 394.46 39.8198 374.24C63.9198 363.49 101.09 342.49 158.46 338.62C178.57 337.27 244.85 332.81 295.73 368.04C349 405 373.25 477.07 339.8 511.27C309.33 542.42 248.23 524.45 -20.0402 507.39C-123.84 500.79 -175.74 497.49 -211.24 498.88C-368 505 -406.84 540 -534.8 531.39C-599.8 527.03 -683.88 521.39 -724.04 471.01C-753.55 434 -756.74 376.09 -721.1 346.37Z" stroke="white" stroke-width="3" stroke-miterlimit="10"/>
<path d="M428.912 186.027L134.165 184.638C128.759 184.613 124.355 188.975 124.329 194.382L123.541 361.72C123.515 367.127 127.878 371.53 133.285 371.556L428.031 372.945C433.438 372.97 437.842 368.608 437.867 363.201L438.656 195.863C438.681 190.456 434.319 186.052 428.912 186.027Z" fill="#63738F"/>
<path d="M283 189.12C282.998 189.405 282.912 189.683 282.752 189.918C282.592 190.154 282.366 190.337 282.102 190.444C281.838 190.551 281.548 190.578 281.269 190.52C280.99 190.463 280.735 190.324 280.535 190.121C280.335 189.918 280.199 189.661 280.146 189.381C280.092 189.101 280.123 188.812 280.234 188.55C280.344 188.287 280.531 188.064 280.768 187.907C281.006 187.751 281.285 187.668 281.57 187.67C281.76 187.67 281.947 187.708 282.122 187.781C282.297 187.854 282.455 187.961 282.588 188.096C282.721 188.231 282.826 188.391 282.897 188.567C282.968 188.742 283.003 188.931 283 189.12Z" fill="#333842"/>
<path d="M461.07 373.37L100.21 371.65C100.201 373.62 100.58 375.572 101.325 377.396C102.07 379.219 103.168 380.878 104.554 382.277C105.94 383.677 107.589 384.789 109.405 385.551C111.222 386.314 113.17 386.711 115.14 386.72L446 388.3C447.97 388.309 449.922 387.93 451.746 387.185C453.569 386.44 455.228 385.343 456.627 383.956C458.027 382.57 459.139 380.921 459.902 379.105C460.664 377.289 461.061 375.34 461.07 373.37Z" fill="#3E4D66"/>
<path d="M420.89 367.07L140.45 365.74C139.216 365.733 137.995 365.484 136.857 365.005C135.719 364.527 134.686 363.829 133.818 362.951C132.95 362.074 132.263 361.034 131.797 359.891C131.33 358.748 131.094 357.524 131.1 356.29L131.84 201.38C131.845 200.146 132.094 198.925 132.571 197.787C133.049 196.649 133.746 195.617 134.622 194.748C135.499 193.88 136.538 193.193 137.681 192.727C138.823 192.26 140.046 192.023 141.28 192.03L421.72 193.36C422.955 193.367 424.176 193.616 425.314 194.095C426.452 194.573 427.484 195.271 428.352 196.149C429.221 197.026 429.908 198.066 430.374 199.209C430.84 200.352 431.077 201.576 431.07 202.81L430.33 357.72C430.325 358.954 430.077 360.175 429.599 361.313C429.122 362.451 428.425 363.483 427.548 364.352C426.671 365.22 425.632 365.907 424.49 366.373C423.347 366.84 422.124 367.077 420.89 367.07Z" fill="#FEFEFF"/>
<path d="M199.4 348.154C221.103 344.67 235.872 324.252 232.388 302.549C228.904 280.846 208.486 266.076 186.783 269.56C165.08 273.045 150.31 293.463 153.794 315.166C157.278 336.869 177.696 351.638 199.4 348.154Z" fill="#BFC5D4"/>
<path d="M192.17 309.46L161.17 298.63C158.944 305.014 158.739 311.928 160.584 318.432C162.43 324.936 166.235 330.714 171.482 334.977C176.729 339.24 183.163 341.782 189.907 342.257C196.651 342.732 203.377 341.116 209.17 337.63L192.17 309.46Z" fill="#628AEC"/>
<path d="M193.87 308.84L211 336.9C215.809 333.964 219.783 329.841 222.541 324.928C225.299 320.014 226.748 314.475 226.75 308.84H193.87Z" fill="#E0E9FF"/>
<path d="M194.06 307.26L226.93 306.81C226.871 302.335 225.898 297.92 224.072 293.834C222.246 289.749 219.604 286.079 216.31 283.05L194.06 307.26Z" fill="#FEFEFF"/>
<path d="M239.19 243.63H147.04V248.73H239.19V243.63Z" fill="#333842"/>
<path d="M239.19 233.55H147.04V238.65H239.19V233.55Z" fill="#333842"/>
<path d="M239.19 223.47H147.04V228.57H239.19V223.47Z" fill="#333842"/>
<path d="M239.19 213.4H147.04V218.5H239.19V213.4Z" fill="#333842"/>
<path d="M239.19 252.98H147.04V258.08H239.19V252.98Z" fill="#333842"/>
<path d="M419.32 351.39H259.56V356.49H419.32V351.39Z" fill="#333842"/>
<path d="M419.32 341.31H259.56V346.41H419.32V341.31Z" fill="#333842"/>
<path d="M419.32 331.24H259.56V336.34H419.32V331.24Z" fill="#333842"/>
<path d="M40.7098 165.52H-144.68V427.37H40.7098V165.52Z" fill="#EFEFED"/>
<path d="M58.0134 242.225L-108.674 208.373L-150.505 414.348L16.1821 448.2L58.0134 242.225Z" fill="#EFEFED"/>
<path d="M57.9433 152.428L-108.327 135.633L-136.427 413.823L29.8433 430.618L57.9433 152.428Z" fill="white"/>
<path d="M7.2119 244.797C15.4899 220.481 2.4882 194.058 -21.8282 185.78C-46.1445 177.502 -72.5674 190.504 -80.8454 214.82C-89.1234 239.137 -76.1217 265.559 -51.8053 273.837C-27.489 282.115 -1.06607 269.114 7.2119 244.797Z" fill="#CCC9D3"/>
<path d="M7.72965 212.91C5.29932 206.983 1.69011 201.611 -2.87897 197.121C-7.44806 192.631 -12.8818 189.116 -18.8504 186.79L-36.8503 229.79L-41.6104 276.06C-34.1785 276.881 -26.6575 275.958 -19.6445 273.365C-12.6316 270.772 -6.31982 266.579 -1.21035 261.12C5.52947 254.069 9.74851 244.988 10.7896 235.29C11.6723 227.691 10.6197 219.993 7.72965 212.91Z" fill="white"/>
<g opacity="0.46">
<path opacity="0.46" d="M-33.3901 228.64L-15.8201 185.57C-9.98802 187.921 -4.69857 191.441 -0.27713 195.912C4.14431 200.383 7.60424 205.712 9.88986 211.57L-33.3901 228.64Z" fill="#BC46AB"/>
<path opacity="0.46" d="M-27.1504 230.11L16.1296 213.06C18.9311 220.173 19.9375 227.866 19.0596 235.46L-27.1504 230.11Z" fill="#29B89A"/>
<path opacity="0.46" d="M-33.5103 233.15L0.999744 264.36C7.58066 257.225 11.6809 248.154 12.6897 238.5L-33.5103 233.15Z" fill="#FFE161"/>
</g>
<path opacity="0.59" d="M-100.49 147.13L44.8798 162.09" stroke="#0071BC" stroke-width="5" stroke-miterlimit="10" stroke-linecap="round"/>
<path opacity="0.53" d="M0.669922 186.93L35.8199 190.54" stroke="#D1A137" stroke-width="2" stroke-miterlimit="10" stroke-linecap="round"/>
<path opacity="0.53" d="M26.1597 220.43L43.4297 222.21" stroke="#D1A137" stroke-width="2" stroke-miterlimit="10" stroke-linecap="round"/>
<path opacity="0.53" d="M15.2998 246.03L40.7098 248.65" stroke="#D1A137" stroke-width="2" stroke-miterlimit="10" stroke-linecap="round"/>
<path opacity="0.53" d="M-1.43018 273.99L37.6898 278.02" stroke="#D1A137" stroke-width="2" stroke-miterlimit="10" stroke-linecap="round"/>
<path opacity="0.53" d="M-93.8101 165.52L5.40994 175.73" stroke="#6D3C6B" stroke-width="2" stroke-miterlimit="10" stroke-linecap="round"/>
<path opacity="0.53" d="M33.1302 299.9L-110.84 285.08" stroke="#6D3C6B" stroke-width="2" stroke-miterlimit="10" stroke-linecap="round"/>
<path opacity="0.53" d="M21.7998 307.64L-111.74 293.9" stroke="#6D3C6B" stroke-width="2" stroke-miterlimit="10" stroke-linecap="round"/>
<path opacity="0.53" d="M20.8998 316.35L-112.91 302.58" stroke="#6D3C6B" stroke-width="2" stroke-miterlimit="10" stroke-linecap="round"/>
<path opacity="0.53" d="M20.0298 324.85L-113.51 311.11" stroke="#6D3C6B" stroke-width="2" stroke-miterlimit="10" stroke-linecap="round"/>
<path d="M292.6 477.62C295.51 477.32 298.39 476.76 301.3 476.46C303.75 476.21 306.22 476.07 308.67 475.71C310.443 475.489 312.182 475.052 313.85 474.41C314.85 473.97 314.23 471.22 314.08 470.41C313.767 468.531 313.673 466.621 313.8 464.72C311.01 464.66 308.21 464.61 305.42 464.49C304.902 464.434 304.378 464.485 303.88 464.64C303.25 464.974 302.695 465.433 302.25 465.99C300.05 468.25 297.19 469.47 294.49 470.91C291.79 472.35 289.09 474.2 287.72 477.14C287.597 477.371 287.535 477.629 287.54 477.89C289.23 477.89 290.92 477.79 292.6 477.62Z" fill="#333842"/>
<path d="M342.83 319L342.74 318.9C341.121 316.916 338.961 315.445 336.522 314.664C334.083 313.883 331.471 313.826 329 314.5C316.32 318.25 316.3 337.73 315 349.15C313.613 361.243 312.167 373.323 310.66 385.39C307.81 408.32 305.88 441.78 302.66 464.65C304.6 465.74 306.49 465.85 308.66 466.12C312.5 466.6 313.77 466.25 315.03 465.29C318.76 444.49 327.28 413.72 331.53 393.05C333.77 382.18 335.41 376.93 337.79 366.1C339.56 358.01 340.23 349.66 342.39 341.66C343.39 338.03 345.84 334.61 346.25 330.98C346.716 326.693 345.489 322.394 342.83 319Z" fill="#4F5D7A"/>
<path d="M327.87 409.26L323.03 408.17" stroke="#333842" stroke-width="0.75" stroke-linecap="round" stroke-linejoin="round"/>
<path d="M327.82 409.24L322 411.94" stroke="#333842" stroke-width="0.75" stroke-linecap="round" stroke-linejoin="round"/>
<path d="M342.56 476.48H342.77L344.44 476.53H344.86L346.86 476.66C352.06 477.07 357.37 478 362.5 478.11C364.289 478.241 366.086 478.02 367.79 477.46C371.99 475.83 366.88 473.68 365.21 472.73C363.54 471.78 361.95 470.8 360.09 469.96C357.705 468.895 355.433 467.591 353.31 466.07C350.325 466.801 347.25 467.097 344.18 466.95C342.61 467 340.28 475.75 342.56 476.48Z" fill="#333842"/>
<path d="M358.06 341.9C357.33 336.79 353.5 319.14 347.69 318.18C343.88 317.56 338.99 318.95 336.34 322.18C334.326 324.834 333.062 327.98 332.68 331.29C331.85 336.88 332.25 342.83 332.46 348.46C332.81 357.39 334.61 374.26 334.61 374.26C334.61 374.26 343.42 448.41 342.78 466.71C346.15 471.39 356.2 467.02 356.25 466.49C357.42 452.08 357.4 419.49 357.68 408.34C358 396.32 359.78 353.83 358.06 341.9Z" fill="#616E87"/>
<path d="M334.05 369.72C333.43 360.667 332.803 351.617 332.17 342.57" stroke="#333842" stroke-width="0.75" stroke-miterlimit="10"/>
<path d="M357.91 340.92C356.91 334.85 353.17 319.09 347.69 318.18C345.924 317.917 344.123 318.023 342.4 318.49C340.768 316.643 338.652 315.29 336.291 314.583C333.93 313.876 331.418 313.844 329.04 314.49C320.25 317.09 317.54 327.26 316.27 337.06C321.075 340.226 326.555 342.223 332.27 342.89H332.61C333.21 342.98 333.82 343.05 334.42 343.11L335.05 343.17C335.76 343.24 336.47 343.29 337.18 343.33H337.51C338.14 343.33 338.76 343.39 339.38 343.4H342.09C347.453 343.313 352.778 342.479 357.91 340.92Z" fill="#3C4966"/>
<path d="M344.55 248.69C344.6 249.2 344.64 249.69 344.67 250.2C344.77 252.2 344.88 254.11 344.98 256.06C345.197 258.053 345.3 260.056 345.29 262.06C345.12 264.86 344.52 267.56 341.9 268.93C341.083 269.308 340.195 269.504 339.295 269.504C338.395 269.504 337.506 269.308 336.69 268.93C335.41 268.38 333.79 267.52 333.29 266.09C333.012 265.133 332.904 264.134 332.97 263.14C332.97 259.87 332.91 256.61 333.04 253.35C333.13 251.25 332.97 248.98 333.88 247.04C335.12 244.38 338.3 241.77 341.25 242.93C343.57 243.89 344.29 246.34 344.55 248.69Z" fill="#F7B699"/>
<path d="M341.07 256.51C342.888 254.535 344.115 252.089 344.61 249.45C344.61 249.2 344.61 248.95 344.55 248.69C344.29 246.34 343.55 243.89 341.25 242.98C338.3 241.82 335.12 244.43 333.88 247.09C332.97 249.03 333.13 251.3 333.04 253.4C332.97 255.16 332.96 256.93 332.96 258.7C334.383 259.108 335.891 259.12 337.32 258.734C338.749 258.348 340.046 257.579 341.07 256.51Z" fill="#C46E58"/>
<path d="M357.72 332.78L353.72 312.61L355.09 267.28C354.72 267.28 355.28 263.28 354.09 262.49C352.19 261.28 346.09 260.42 345.32 260.22C345.479 261.354 345.274 262.509 344.735 263.518C344.196 264.528 343.35 265.341 342.32 265.84C339.1 268.25 335.04 268.02 333.32 263.03C333.091 262.171 332.967 261.288 332.95 260.4C330.803 260.753 328.69 261.281 326.63 261.98C325.484 262.371 324.479 263.091 323.739 264.049C322.999 265.008 322.558 266.163 322.47 267.37L320.38 312.49L315.05 329.49C328 339.84 342.81 339.75 357.72 332.78Z" fill="white"/>
<path d="M335.76 316C343.842 311.82 350.586 305.451 355.22 297.62" stroke="#333842" stroke-width="0.3" stroke-miterlimit="10" stroke-linecap="round"/>
<path d="M332.42 333.2C341.139 327.148 348.104 318.899 352.61 309.29" stroke="#333842" stroke-width="0.3" stroke-miterlimit="10" stroke-linecap="round"/>
<path d="M335.74 269.43C336.9 270.032 338.192 270.334 339.499 270.308C340.806 270.281 342.085 269.928 343.22 269.28" stroke="#333842" stroke-width="0.3" stroke-miterlimit="10" stroke-linecap="round"/>
<path d="M318.49 268.27C312.02 275.79 306.14 292.27 305.49 302.02C305.24 304.483 305.851 306.957 307.22 309.02C307.911 310.029 308.872 310.823 309.993 311.311C311.114 311.799 312.35 311.962 313.56 311.78C316.08 311.26 317.86 309.02 319.14 306.78C321.21 303.16 324.23 293.99 325.05 290.03C325.97 285.6 327.96 281.42 328.76 276.89C329.25 274.08 331.9 260.89 325.45 262.59C324.374 262.95 323.385 263.532 322.55 264.3C321.087 265.507 319.729 266.835 318.49 268.27Z" fill="#6C7995"/>
<path d="M319.24 341.73C320.1 342.17 320.98 342.55 321.87 342.91C324.72 321.23 332.53 260.59 332.52 260.43C330.504 260.756 328.52 261.255 326.59 261.92C325.429 262.287 324.398 262.979 323.62 263.915C322.841 264.852 322.348 265.992 322.2 267.2L320.31 293.32L317.72 317.76L311.59 336.22C313.841 338.44 316.421 340.298 319.24 341.73Z" fill="#6C7995"/>
<path d="M332.52 260.43L325.15 266.65L329.31 267.56L324.75 277.59L328.24 294.09L332.52 260.43Z" fill="#ABC0D4"/>
<path d="M325.05 270.52C325.05 270.52 320.99 281.44 320.92 286.62C320.92 289.62 318.11 315.44 318.11 315.44" stroke="#333842" stroke-width="0.3" stroke-miterlimit="10"/>
<path d="M322.6 305.22C322.6 306.933 322.092 308.607 321.14 310.031C320.189 311.455 318.836 312.565 317.254 313.221C315.671 313.876 313.93 314.048 312.25 313.714C310.57 313.379 309.027 312.555 307.816 311.344C306.605 310.132 305.78 308.589 305.446 306.909C305.112 305.23 305.284 303.488 305.939 301.906C306.594 300.324 307.704 298.971 309.129 298.019C310.553 297.068 312.227 296.56 313.94 296.56C315.077 296.559 316.204 296.782 317.255 297.217C318.307 297.651 319.262 298.289 320.066 299.094C320.871 299.898 321.509 300.853 321.943 301.904C322.378 302.956 322.601 304.082 322.6 305.22Z" fill="#6C7995"/>
<path d="M311.31 297.6C312.656 297.196 314.084 297.143 315.456 297.445C316.829 297.748 318.102 298.396 319.154 299.329C320.206 300.262 321.002 301.448 321.467 302.774C321.932 304.101 322.05 305.525 321.81 306.91" stroke="#333842" stroke-width="0.3" stroke-miterlimit="10"/>
<path d="M315.78 295.55C317.643 296.534 319.107 298.136 319.92 300.08" stroke="#333842" stroke-width="0.3" stroke-miterlimit="10"/>
<path d="M352.54 344.22C357.06 343.22 357.96 342.55 362.28 340.73L358 318.2L355.39 267.12C355.02 267.12 355.39 263.17 354.15 262.41C352.35 261.33 347.45 260.57 346.08 260.3V345.37C348.27 345.08 350.43 344.69 352.54 344.22Z" fill="#6C7995"/>
<path d="M360.53 269.06C363.78 273.85 365.72 280.14 367.71 285.54C369.7 290.94 373.04 297.91 372.91 303.71C372.921 304.795 372.691 305.869 372.234 306.854C371.777 307.838 371.106 308.708 370.27 309.4C369.324 310.021 368.256 310.431 367.138 310.604C366.02 310.777 364.878 310.707 363.79 310.4C357.29 308.85 355.49 303.3 353.45 297.79C350.896 290.939 349.346 283.755 348.85 276.46C348.68 273.53 347.55 259.74 354.01 262.35C355.076 262.861 356.026 263.586 356.8 264.48C358.17 265.899 359.418 267.431 360.53 269.06Z" fill="#6C7995"/>
<path d="M354.05 299.6C353.003 296 351.957 292.393 350.91 288.78" stroke="#333842" stroke-width="0.3" stroke-miterlimit="10"/>
<path d="M352.15 293.46L350 290" stroke="#333842" stroke-width="0.3" stroke-miterlimit="10"/>
<path d="M346.08 260.29L352.62 267.39L348.39 267.77L351.67 278.29L346.16 294.23L346.08 260.29Z" fill="#ABC0D4"/>
<path d="M367.06 311.9L357.06 314.9C356.063 315.202 355.017 315.305 353.98 315.203C352.944 315.1 351.938 314.795 351.019 314.304C350.101 313.812 349.288 313.145 348.628 312.34C347.967 311.534 347.472 310.607 347.17 309.61C346.866 308.614 346.762 307.568 346.863 306.531C346.964 305.495 347.269 304.489 347.759 303.57C348.249 302.651 348.916 301.839 349.721 301.178C350.526 300.517 351.453 300.022 352.45 299.72L362.45 296.72C363.447 296.418 364.493 296.315 365.53 296.417C366.566 296.52 367.572 296.825 368.491 297.316C369.409 297.808 370.222 298.475 370.882 299.28C371.543 300.086 372.038 301.013 372.34 302.01C372.951 304.022 372.738 306.193 371.747 308.048C370.757 309.903 369.071 311.288 367.06 311.9Z" fill="#6C7995"/>
<path d="M347.68 301.68L358.68 297.68C361.83 296.53 365.24 295.75 368.47 297.18" stroke="#333842" stroke-width="0.3" stroke-miterlimit="10" stroke-linecap="round"/>
<path d="M349.11 289.96H321.23V327.92H349.11V289.96Z" fill="#8198EC"/>
<path d="M318.52 314.29C322.353 314.29 325.46 311.183 325.46 307.35C325.46 303.517 322.353 300.41 318.52 300.41C314.687 300.41 311.58 303.517 311.58 307.35C311.58 311.183 314.687 314.29 318.52 314.29Z" fill="#F7B699"/>
<path d="M344 309.64C343.935 311.011 344.277 312.37 344.984 313.547C345.691 314.723 346.73 315.663 347.971 316.249C349.213 316.834 350.6 317.038 351.957 316.836C353.314 316.633 354.581 316.033 355.597 315.11C356.613 314.188 357.333 312.985 357.665 311.653C357.998 310.322 357.928 308.922 357.465 307.63C357.002 306.338 356.166 305.212 355.064 304.396C353.961 303.579 352.641 303.107 351.27 303.04C350.359 302.996 349.449 303.131 348.59 303.439C347.732 303.747 346.943 304.22 346.267 304.833C345.592 305.446 345.044 306.186 344.655 307.011C344.266 307.836 344.044 308.729 344 309.64Z" fill="#F7B699"/>
<path d="M326 241.62C326.008 242.144 326.142 242.658 326.39 243.12C327.39 244.91 329.79 244.3 330.44 242.56C330.695 241.811 330.695 240.999 330.44 240.25C330.05 239.04 329.02 238.05 327.72 238.72C327.34 238.917 327.003 239.189 326.73 239.519C326.457 239.849 326.253 240.23 326.13 240.64C326.033 240.957 325.989 241.288 326 241.62Z" fill="#C46E58"/>
<path d="M332.46 230.31C335.409 228.834 338.721 228.24 342 228.6C346.08 229.01 348 231.02 348.39 233.51C349.12 237.79 348.95 242.94 347.06 246.76C346.74 247.4 346.06 249.03 345.71 249.63C342.71 254.46 337.06 254.89 334.24 254.21C330.87 253.39 329.04 250.58 328.47 246.65C328.37 245.94 328.34 243.65 328.33 242.92C328.21 238.54 330.56 231.33 332.46 230.31Z" fill="#F7B699"/>
<path d="M331.66 226.07C334.015 224.767 336.618 223.977 339.3 223.75C346.06 222.85 351.08 227.45 351.14 233.97C351.14 236.2 350.04 241.24 347.51 242.24C344.43 243.46 344.73 239.92 345.13 237.71C345.338 236.903 345.481 236.08 345.56 235.25C345.591 234.826 345.516 234.401 345.342 234.013C345.167 233.625 344.898 233.287 344.56 233.03C344.014 232.739 343.408 232.578 342.79 232.56C340.67 232.35 328.73 233.33 328.89 229.33C328.916 229.038 329.019 228.758 329.19 228.52C329.808 227.52 330.655 226.68 331.66 226.07Z" fill="#333842"/>
<path d="M333.13 233.2C336.156 233.922 339.342 233.494 342.07 232" stroke="#333842" stroke-width="0.75" stroke-linecap="round" stroke-linejoin="round"/>
<path d="M348 226.77C347.728 225.827 347.185 224.985 346.438 224.348C345.692 223.711 344.774 223.309 343.8 223.19" stroke="#333842" stroke-width="0.75" stroke-linecap="round" stroke-linejoin="round"/>
<path d="M349.78 226.76C349.545 226.609 349.263 226.547 348.986 226.585C348.709 226.624 348.455 226.76 348.27 226.97" stroke="#333842" stroke-width="0.75" stroke-linecap="round" stroke-linejoin="round"/>
<path d="M328.05 240.81C328.05 240.96 328.12 241.11 328.16 241.26C328.25 241.26 328.44 241.16 328.49 241.06C329.84 238.59 329.07 234.92 331.14 232.87C331.85 232.17 332.93 231.66 333.03 230.67C333.045 230.237 332.941 229.808 332.73 229.43C332.655 229.213 332.523 229.02 332.35 228.87C332.082 228.702 331.759 228.645 331.45 228.71C327.4 229.19 327.67 233.84 327.85 236.81C327.836 238.146 327.903 239.482 328.05 240.81Z" fill="#333842"/>
<path d="M346 244.49C346.167 244.788 346.401 245.042 346.683 245.234C346.965 245.426 347.288 245.551 347.626 245.597C347.964 245.644 348.308 245.611 348.631 245.502C348.955 245.394 349.249 245.211 349.49 244.97C349.961 244.427 350.257 243.754 350.34 243.04C350.485 242.418 350.485 241.772 350.34 241.15C350.207 240.753 349.981 240.394 349.68 240.103C349.378 239.812 349.011 239.599 348.61 239.48C345.88 238.56 344.8 242.72 346 244.49Z" fill="#F7B699"/>
<path d="M330.84 236.86C331.525 236.672 332.244 236.648 332.94 236.79" stroke="#333842" stroke-width="0.48" stroke-miterlimit="10" stroke-linecap="round"/>
<path d="M333.83 247.79C334.368 248.097 334.963 248.292 335.578 248.363C336.193 248.433 336.817 248.378 337.41 248.2" stroke="#333842" stroke-width="0.48" stroke-miterlimit="10" stroke-linecap="round"/>
<path d="M339.49 236.65C340.493 236.535 341.508 236.727 342.4 237.2" stroke="#333842" stroke-width="0.48" stroke-miterlimit="10" stroke-linecap="round"/>
<path d="M340.44 240.58C340.442 240.759 340.39 240.934 340.292 241.084C340.194 241.233 340.054 241.35 339.889 241.42C339.724 241.489 339.542 241.508 339.367 241.473C339.191 241.439 339.03 241.353 338.903 241.226C338.777 241.1 338.691 240.939 338.656 240.763C338.622 240.588 338.641 240.406 338.71 240.241C338.779 240.076 338.896 239.936 339.046 239.838C339.195 239.739 339.371 239.688 339.55 239.69C339.786 239.69 340.012 239.784 340.179 239.951C340.346 240.118 340.44 240.344 340.44 240.58Z" fill="#333842"/>
<path d="M332.59 240.17C332.59 240.348 332.537 240.522 332.438 240.67C332.339 240.818 332.199 240.933 332.034 241.001C331.87 241.07 331.689 241.087 331.514 241.053C331.34 241.018 331.18 240.932 331.054 240.806C330.928 240.681 330.842 240.52 330.807 240.346C330.773 240.171 330.79 239.99 330.859 239.826C330.927 239.661 331.042 239.521 331.19 239.422C331.338 239.323 331.512 239.27 331.69 239.27C331.809 239.269 331.926 239.291 332.036 239.336C332.146 239.381 332.246 239.447 332.329 239.531C332.413 239.614 332.48 239.714 332.524 239.824C332.569 239.934 332.591 240.051 332.59 240.17Z" fill="#333842"/>
<path d="M334.79 245.43C333.97 245.3 332.79 244.71 333.24 243.73C333.373 243.474 333.537 243.235 333.73 243.02C334.263 242.304 334.607 241.464 334.73 240.58" stroke="#333842" stroke-width="0.48" stroke-miterlimit="10" stroke-linecap="round"/>
<path d="M253.29 369C241.43 371.34 241.11 385 242.14 394.74C244.32 415.35 250.31 464.15 250.31 464.15L261.71 524L269.71 524.44L265.47 463.86C265.47 463.86 267.47 419.73 269.52 404.36C272.79 382.82 269.06 365.85 253.29 369Z" fill="#4F5D7A"/>
<path d="M270.18 522.41C267.32 522.772 264.424 522.748 261.57 522.34C261.233 522.297 260.891 522.35 260.583 522.494C260.275 522.637 260.014 522.865 259.83 523.15C259.6 523.5 259.38 523.83 259.16 524.15C258.007 525.564 256.399 526.532 254.61 526.89L254.42 526.97C252.26 527.24 250.28 528.35 250.04 530.42H270C270.66 527.69 271 524.86 270.18 522.41Z" fill="#628AEC"/>
<path d="M270.33 530.07H250.02V532.69H270.33V530.07Z" fill="#333842"/>
<path d="M255.39 369.32C243.31 368.63 239.59 381.75 238.15 391.46C235.15 411.96 230.15 460.91 230.15 460.91L234.55 524.06L242.87 523.73L247.51 461.25C247.51 461.25 256.45 422.01 262.25 407.63C270.8 387.6 271.43 370.24 255.39 369.32Z" fill="#616E87"/>
<path d="M243.56 522.41C240.7 522.772 237.804 522.748 234.95 522.34C234.561 522.237 234.153 522.225 233.759 522.307C233.365 522.388 232.996 522.561 232.68 522.81C229.285 524.679 225.6 525.963 221.78 526.61C219.78 526.98 217.58 527.19 215.97 528.48C215.667 528.697 215.419 528.982 215.245 529.312C215.072 529.642 214.977 530.007 214.97 530.38H243.33C244 527.69 244.38 524.86 243.56 522.41Z" fill="#628AEC"/>
<path d="M243.29 530.07H214.33V532.69H243.29V530.07Z" fill="#333842"/>
<path d="M256.89 303.41C256.964 302.05 256.867 300.686 256.6 299.35C258.602 300.029 260.762 300.091 262.8 299.53C263.807 299.242 264.787 298.867 265.73 298.41C266.07 298.25 266.68 297.75 267.24 297.41C266.01 301.97 266.11 306.72 268.92 310.63C266.706 312.392 264.055 313.519 261.25 313.89C258.87 314.3 253.17 314.68 254.54 310.67C254.99 309.36 255.95 308.35 256.33 306.99C256.649 305.821 256.836 304.62 256.89 303.41Z" fill="#F7B699"/>
<path d="M262.41 299.62C260.486 300.077 258.473 299.983 256.6 299.35C257.089 301.894 256.997 304.516 256.33 307.02C256.33 307.14 256.25 307.26 256.21 307.38C256.44 307.38 256.68 307.31 256.91 307.26C259.564 305.419 261.506 302.722 262.41 299.62Z" fill="#C46E58"/>
<path d="M251.14 294.85C251.301 294.888 251.465 294.911 251.63 294.92C252.12 294.92 252.07 294.31 252.04 293.92C251.96 292.97 251.96 291.92 251.8 291.02C251.517 291.402 251.26 291.803 251.03 292.22L249.91 293.77C249.849 293.834 249.808 293.914 249.79 294C249.79 294.21 249.97 294.37 250.15 294.46C250.463 294.629 250.796 294.76 251.14 294.85Z" fill="#F7B699"/>
<path d="M269.08 294.47C269.932 292.492 270.348 290.353 270.3 288.2C270.26 285.858 269.448 283.594 267.99 281.76C266.885 280.466 265.448 279.498 263.834 278.959C262.221 278.42 260.49 278.33 258.83 278.7C257.981 278.91 257.168 279.247 256.42 279.7C254.58 280.77 252.42 282.92 252.15 285.13C252.08 285.63 252.15 286.13 252.09 286.61C251.95 287.36 251.79 288.1 251.67 288.85C251.423 290.347 251.326 291.864 251.38 293.38C251.403 295.156 251.742 296.913 252.38 298.57C252.985 300.056 254.102 301.277 255.53 302.01C256.794 302.615 258.196 302.87 259.592 302.751C260.988 302.631 262.327 302.141 263.47 301.33C265.964 299.634 267.912 297.251 269.08 294.47Z" fill="#F7B699"/>
<path d="M252.1 296.77L253.1 297.24" stroke="#333842" stroke-width="0.48" stroke-miterlimit="10" stroke-linecap="round"/>
<path d="M221.51 326.73C221.592 326.279 221.79 325.858 222.084 325.507C222.379 325.156 222.76 324.888 223.19 324.73C224.07 324.43 225.56 324.43 225.85 323.54C226 323.1 226.14 322.93 225.79 322.63C225.415 322.346 224.96 322.189 224.49 322.18C223.77 322.148 223.056 322.318 222.429 322.672C221.801 323.025 221.285 323.548 220.94 324.18C220.73 324.57 220.43 325.08 220 324.96C219.903 324.919 219.817 324.857 219.746 324.78C219.675 324.702 219.622 324.61 219.59 324.51C219.09 323.35 219.78 322.05 220.45 320.97C220.916 320.071 221.604 319.306 222.45 318.75C223.472 318.283 224.611 318.13 225.72 318.31C227.97 318.46 230.33 318.63 232.24 319.97C232.73 320.32 233.19 320.73 233.69 321.09C235.011 321.932 236.45 322.572 237.96 322.99C237.487 324.603 237.023 326.213 236.57 327.82C236.549 327.904 236.504 327.981 236.44 328.04C236.398 328.06 236.352 328.07 236.305 328.07C236.258 328.07 236.212 328.06 236.17 328.04C233.44 327.38 230.29 326.82 227.55 326.39C225.531 326.208 223.496 326.322 221.51 326.73Z" fill="#F7B699"/>
<path d="M254.65 327.28C253.172 326.591 251.657 325.987 250.11 325.47C247.41 324.54 244.56 323.78 241.84 323.06C240.84 322.79 236.84 321.8 235.84 321.63C232.84 324.04 232.04 325.63 232.04 329.21C236.62 332.112 241.342 334.782 246.19 337.21C248.122 338.204 250.128 339.046 252.19 339.73C254.342 340.429 256.635 340.581 258.86 340.17C259.952 340.01 260.942 339.442 261.63 338.58C261.902 338.072 262.017 337.494 261.96 336.92C261.75 333.07 258.94 329.32 254.65 327.28Z" fill="#628AEC"/>
<path d="M203.21 343.57C202.615 342.528 202.255 341.369 202.155 340.174C202.055 338.979 202.217 337.776 202.63 336.65C202.753 336.225 202.968 335.833 203.26 335.501C203.552 335.169 203.914 334.906 204.32 334.73C204.841 334.623 205.382 334.675 205.874 334.878C206.366 335.081 206.786 335.427 207.08 335.87C207.651 336.77 208.107 337.737 208.44 338.75C208.879 339.819 209.454 340.827 210.15 341.75C210.985 342.592 211.608 343.62 211.97 344.75C212.047 345.218 212.012 345.698 211.868 346.15C211.723 346.602 211.474 347.013 211.14 347.35C208.64 349.82 204.42 345.72 203.21 343.57Z" fill="#F7B699"/>
<path d="M231.43 342.05L216.29 349.39L196.26 331.21L211.4 323.87L231.43 342.05Z" fill="#F4AE2D"/>
<path d="M228.96 341.29L215.96 347.59L198.65 331.89L211.65 325.58L228.96 341.29Z" fill="white"/>
<path d="M213.63 328.91L202.82 334.14L201.77 333.19L212.57 327.95L213.63 328.91Z" fill="#C8DDF7"/>
<path d="M219.15 333.92L208.34 339.15L207.29 338.2L218.09 332.96L219.15 333.92Z" fill="#C8DDF7"/>
<path d="M220.98 335.58L210.17 340.81L209.12 339.86L219.92 334.62L220.98 335.58Z" fill="#C8DDF7"/>
<path d="M222.81 337.24L212 342.48L210.95 341.52L221.75 336.28L222.81 337.24Z" fill="#C8DDF7"/>
<path d="M224.64 338.9L213.83 344.13L212.78 343.18L223.58 337.94L224.64 338.9Z" fill="#C8DDF7"/>
<path d="M226.47 340.56L215.66 345.8L214.6 344.84L225.41 339.6L226.47 340.56Z" fill="#C8DDF7"/>
<path d="M211.01 327.06L201.92 331.47L198.06 327.96L207.14 323.55L211.01 327.06Z" fill="#333842"/>
<path d="M204.78 341.91C204.623 342.084 204.483 342.271 204.36 342.47C203.22 344.31 205.43 346.01 206.84 347.01C210.05 349.26 213.96 350.34 217.67 351.42C219.76 352.03 225.83 350.53 224.16 347.24C223.01 344.99 219.63 343.7 217.4 343.1C215.09 342.66 213.11 341.7 212.25 339.36C211.86 338.36 211.71 337.21 211.37 336.15C211.301 335.885 211.167 335.641 210.98 335.44C210.883 335.343 210.757 335.281 210.621 335.265C210.485 335.249 210.347 335.279 210.23 335.35C210.117 335.459 210.038 335.598 210 335.75C209.35 337.55 210.51 338.89 208.29 339.95C207.55 340.31 206.74 340.5 206.02 340.9C205.547 341.156 205.127 341.499 204.78 341.91Z" fill="#F7B699"/>
<path d="M271.82 386.36C271.82 386.36 272.33 386.15 272.73 385.96C274.89 384.85 275.62 382.04 275.83 379.55C276.32 373.86 274.51 368.49 274.73 362.47C274.97 356.09 276.45 349.54 277.35 342.68C278.14 336.68 278.44 330.23 277.1 324.07C276.1 319.47 274.72 314.35 271.91 310.76C270.55 309.02 268.08 308.33 266.19 307.87C263.806 307.287 261.31 307.353 258.96 308.06C255.747 309.099 252.923 311.086 250.86 313.76C249.18 315.86 248.35 319.43 247.5 322.1C245.588 328.042 244.248 334.153 243.5 340.35C242.75 346.65 243.66 344.63 243.34 350.83C243.02 357.03 244.8 361.96 241.62 367.13C239.94 369.84 237.81 372.21 236.75 375.13C235.69 378.05 236.04 381.83 238.49 383.71C238.35 384.81 238.18 385.9 238.08 386.99C243.01 389.39 249.55 389.91 254.82 390.39C259.643 390.823 264.493 390.847 269.32 390.46C270.159 390.462 270.995 390.361 271.81 390.16L271.82 386.36Z" fill="#628AEC"/>
<path d="M271.54 386.44C264.598 387.237 257.573 386.923 250.73 385.51" stroke="#333842" stroke-width="0.29" stroke-miterlimit="10" stroke-linecap="round"/>
<path d="M257.27 328.07C256.964 327.389 256.489 326.797 255.89 326.35C255.201 325.948 254.405 325.767 253.61 325.83C250.15 325.99 247.41 328.83 245.56 331.74C243.71 334.65 242.28 337.99 239.64 340.24C235.04 344.17 219.54 343.05 214.39 341.9C213.581 342.041 212.814 342.36 212.145 342.835C211.475 343.31 210.921 343.929 210.521 344.646C210.121 345.362 209.887 346.16 209.835 346.979C209.783 347.798 209.914 348.618 210.22 349.38C217.12 352.38 237.93 363.48 245.47 359.89C248.038 358.538 250.184 356.503 251.67 354.01C252.585 352.573 253.423 351.087 254.18 349.56C256.019 346.271 257.418 342.754 258.34 339.1C259.253 335.409 258.875 331.517 257.27 328.07Z" fill="#628AEC"/>
<path d="M260.33 315.61C259.161 314.455 257.637 313.727 256.003 313.546C254.37 313.364 252.723 313.739 251.33 314.61C249.71 315.61 248.88 317.73 248.05 319.4C247.018 321.441 246.142 323.557 245.43 325.73C244.69 327.98 244.13 330.28 243.43 332.54C242.3 336.25 240.82 339.85 239.97 343.64C239.12 347.43 238.97 351.48 240.36 355.08C242.36 360.23 249.16 357.49 252.18 354.63C254.78 352.16 256.03 348.63 257.18 345.24C258.33 341.85 259.5 338.42 260.67 335.02C261.894 331.69 262.678 328.214 263 324.68C263.16 321.28 262.56 318 260.33 315.61Z" fill="#628AEC"/>
<path d="M241.85 338.61C243.12 331 246.76 322.07 250.37 315.25" stroke="#333842" stroke-width="0.29" stroke-miterlimit="10"/>
<path d="M262.67 330.53C261.19 334.53 259.703 338.53 258.21 342.53C257.15 345.4 256.13 349.07 254.11 351.44C252.09 353.81 250.21 356.38 247.74 358.33C246.72 359.206 245.522 359.851 244.23 360.222C242.937 360.594 241.58 360.681 240.25 360.48" stroke="#333842" stroke-width="0.29" stroke-miterlimit="10" stroke-linecap="round"/>
<path d="M264.29 331.6C262.946 332.368 261.842 333.493 261.1 334.85" stroke="#333842" stroke-width="0.29" stroke-miterlimit="10"/>
<path d="M217.68 329.85L215.9 330.85L216.8 329.04L227.57 317.89C227.626 317.833 227.693 317.787 227.767 317.756C227.84 317.725 227.92 317.708 228 317.708C228.08 317.708 228.159 317.725 228.233 317.756C228.307 317.787 228.374 317.833 228.43 317.89C228.487 317.946 228.533 318.013 228.564 318.087C228.595 318.16 228.611 318.24 228.611 318.32C228.611 318.4 228.595 318.48 228.564 318.553C228.533 318.627 228.487 318.694 228.43 318.75L217.68 329.85Z" fill="#333842"/>
<path d="M252.53 292.18C251.938 291.713 251.398 291.183 250.92 290.6C247.92 286.85 249.92 282.7 252.26 279.37C254.92 275.65 260 273.61 264.47 273.86C267.011 273.91 269.439 274.917 271.27 276.68C272.114 277.478 272.711 278.502 272.99 279.63C273.07 279.98 273.32 282.77 272.74 282.83C277.15 282.39 276.93 291.99 276.89 294.61C276.776 301.317 276.67 308.027 276.57 314.74C276.57 317.16 276.43 319.74 274.93 321.66C274.147 322.567 273.133 323.246 271.996 323.624C270.859 324.003 269.64 324.067 268.47 323.81C266.125 323.25 264.062 321.861 262.66 319.9C261.43 318.28 259.96 315.9 259.92 313.78C259.87 311.44 260.19 309.02 260.18 306.66C260.18 302.56 259.37 298.17 256.47 295.27C255.212 294.171 253.897 293.139 252.53 292.18Z" fill="#333842"/>
<g opacity="0.72">
<g style="mix-blend-mode:multiply" opacity="0.46">
<path d="M-34.7201 463.33C7.17624 463.33 41.1399 458.732 41.1399 453.06C41.1399 447.388 7.17624 442.79 -34.7201 442.79C-76.6164 442.79 -110.58 447.388 -110.58 453.06C-110.58 458.732 -76.6164 463.33 -34.7201 463.33Z" fill="#8198EC"/>
</g>
</g>
<path d="M56.5798 113.84C56.8274 114.067 57.1257 114.232 57.4498 114.32C57.9316 114.458 58.4288 114.535 58.9298 114.55C59.5298 114.55 60.2898 114.55 61.1898 114.55C62.0876 114.53 62.9859 114.563 63.8798 114.65C64.5991 114.72 65.3038 114.899 65.9698 115.18C66.533 115.428 67.0373 115.793 67.4498 116.25C67.8766 116.739 68.1906 117.316 68.3698 117.94C68.602 118.645 68.6671 119.395 68.5598 120.13C68.4524 120.803 68.1849 121.441 67.7798 121.99C67.3424 122.577 66.7915 123.07 66.1598 123.44C65.4201 123.882 64.6224 124.218 63.7898 124.44C61.129 125.164 58.2988 124.934 55.7898 123.79C56.2298 122.79 56.4498 122.25 56.8998 121.22C57.8823 121.65 58.9182 121.946 59.9798 122.1C61.018 122.234 62.0727 122.156 63.0798 121.87C63.8478 121.705 64.5462 121.307 65.0798 120.73C65.2882 120.5 65.43 120.217 65.4899 119.912C65.5498 119.607 65.5256 119.292 65.4198 119C65.3387 118.723 65.1989 118.468 65.0098 118.25C64.789 118.017 64.5091 117.847 64.1998 117.76C63.7517 117.622 63.288 117.542 62.8198 117.52C62.1003 117.482 61.3793 117.482 60.6598 117.52C59.7538 117.571 58.8457 117.571 57.9398 117.52C57.2048 117.484 56.4797 117.336 55.7898 117.08C55.1842 116.855 54.6372 116.496 54.1898 116.03C53.7052 115.501 53.3402 114.873 53.1198 114.19C52.8748 113.545 52.7931 112.85 52.8821 112.166C52.9711 111.482 53.2279 110.831 53.6298 110.27C54.0521 109.675 54.5936 109.174 55.2198 108.8C55.9445 108.343 56.7379 108.005 57.5698 107.8C58.7861 107.483 60.0457 107.364 61.2998 107.45C62.484 107.551 63.6467 107.827 64.7498 108.27C64.3398 109.27 64.1398 109.81 63.7498 110.84C62.8346 110.515 61.885 110.297 60.9198 110.19C60.0631 110.094 59.1963 110.152 58.3598 110.36C57.5821 110.487 56.874 110.883 56.3598 111.48C56.1783 111.697 56.0561 111.958 56.0053 112.237C55.9545 112.515 55.9767 112.802 56.0698 113.07C56.1839 113.36 56.3577 113.622 56.5798 113.84Z" fill="url(#paint0_linear_533_25612)"/>
<path d="M68.81 107.62L68 105L71.39 104.25L72.17 106.92L68.81 107.62ZM73.21 121.76L69.51 109.48C70.75 109.19 71.38 109.05 72.62 108.78C74.06 113.68 74.78 116.14 76.21 121.04L73.21 121.76Z" fill="url(#paint1_linear_533_25612)"/>
<path d="M88.5399 116.3C88.4149 116.817 88.168 117.297 87.8199 117.7C87.4268 118.113 86.9627 118.451 86.4499 118.7C85.8696 118.993 85.2547 119.211 84.6199 119.35C83.6334 119.552 82.6223 119.606 81.6199 119.51C80.5644 119.411 79.5296 119.155 78.5499 118.75L79.3499 116.54C80.1484 116.863 80.9854 117.081 81.8399 117.19C82.5826 117.286 83.336 117.259 84.0699 117.11C84.5988 117.034 85.0913 116.797 85.4799 116.43C85.6267 116.299 85.7315 116.128 85.7813 115.937C85.8311 115.747 85.8237 115.546 85.7599 115.36C85.7051 115.133 85.5655 114.937 85.3699 114.81C85.1331 114.661 84.8728 114.552 84.5999 114.49C84.2704 114.417 83.9363 114.367 83.5999 114.34L82.3999 114.27L80.8099 114.12C80.2891 114.059 79.7783 113.931 79.2899 113.74C78.8161 113.579 78.378 113.328 77.9999 113C77.612 112.62 77.3383 112.138 77.2099 111.61C77.045 111.082 77.0175 110.521 77.1299 109.98C77.2506 109.467 77.4866 108.988 77.8199 108.58C78.191 108.144 78.6425 107.785 79.1499 107.52C79.7199 107.222 80.3293 107.007 80.9599 106.88C81.8455 106.707 82.7511 106.66 83.6499 106.74C84.5503 106.806 85.438 106.991 86.2899 107.29C86.0099 108.18 85.8599 108.62 85.5799 109.51C84.8696 109.289 84.1395 109.139 83.3999 109.06C82.7641 108.978 82.1193 108.998 81.4899 109.12C81.0001 109.185 80.5443 109.406 80.1899 109.75C80.0614 109.878 79.9702 110.039 79.9261 110.215C79.8821 110.391 79.8868 110.576 79.9399 110.75C79.9701 110.858 80.022 110.959 80.0925 111.047C80.163 111.135 80.2506 111.207 80.3499 111.26C80.5952 111.402 80.862 111.504 81.1399 111.56C81.4888 111.642 81.843 111.698 82.1999 111.73L83.4199 111.84C83.9399 111.84 84.4199 111.94 85.0099 112.02C85.5242 112.103 86.0274 112.244 86.5099 112.44C86.9621 112.621 87.3761 112.885 87.7299 113.22C88.0989 113.587 88.3555 114.052 88.4699 114.56C88.6378 115.125 88.6618 115.723 88.5399 116.3Z" fill="url(#paint2_linear_533_25612)"/>
<path d="M95.0002 113.08C95.032 113.3 95.1111 113.51 95.2319 113.697C95.3527 113.883 95.5125 114.041 95.7001 114.16C96.1011 114.354 96.5569 114.404 96.9902 114.3C97.6311 114.183 98.2387 113.927 98.7701 113.55C98.9701 114.46 99.0802 114.91 99.2802 115.82C98.9379 116.089 98.5654 116.317 98.1702 116.5C97.7055 116.7 97.2188 116.845 96.7202 116.93C96.2065 117.029 95.6827 117.066 95.1602 117.04C94.6867 117.009 94.2243 116.883 93.8002 116.67C93.3738 116.45 93.0094 116.127 92.7402 115.73C92.4081 115.231 92.1708 114.675 92.0402 114.09C91.4102 111.52 91.1002 110.24 90.4702 107.68L88.7602 108L88.1602 105.63L89.8801 105.31L89.0002 102C90.2702 101.77 90.9002 101.66 92.1702 101.45C92.4802 102.78 92.6402 103.45 92.9602 104.77L96.6102 104.15L97.1502 106.51C95.7002 106.75 94.9701 106.88 93.5201 107.14C94.1001 109.5 94.3802 110.69 95.0002 113.08Z" fill="url(#paint3_linear_533_25612)"/>
<path d="M105 112.38C105.828 112.796 106.769 112.93 107.68 112.76C108.345 112.671 108.985 112.446 109.56 112.1C110.103 111.737 110.585 111.292 110.99 110.78L113.05 111.95C112.525 112.745 111.845 113.425 111.05 113.95C110.144 114.535 109.119 114.911 108.05 115.05C107.14 115.21 106.21 115.21 105.3 115.05C104.445 114.89 103.625 114.579 102.88 114.13C102.149 113.679 101.51 113.092 101 112.4C100.465 111.659 100.091 110.814 99.9001 109.92C99.7108 109.089 99.6904 108.229 99.8401 107.39C99.9897 106.593 100.307 105.836 100.77 105.17C101.251 104.495 101.863 103.923 102.57 103.49C103.358 103.013 104.237 102.706 105.15 102.59C106.147 102.422 107.168 102.459 108.15 102.7C108.974 102.905 109.747 103.277 110.422 103.793C111.096 104.309 111.657 104.958 112.07 105.7C112.491 106.45 112.785 107.264 112.94 108.11L113 108.48V108.87C109.07 109.42 107.1 109.71 103.18 110.35C103.526 111.222 104.171 111.941 105 112.38ZM109.68 107.45C109.554 107.026 109.361 106.624 109.11 106.26C108.626 105.545 107.891 105.038 107.05 104.84C106.581 104.749 106.099 104.749 105.63 104.84C105.2 104.886 104.783 105.019 104.406 105.233C104.03 105.446 103.701 105.734 103.44 106.08C102.932 106.798 102.701 107.675 102.79 108.55C105.56 108.06 106.94 107.85 109.69 107.45H109.68Z" fill="url(#paint4_linear_533_25612)"/>
<path d="M128.33 100.35C129.12 99.8677 130.016 99.5862 130.94 99.53C132.232 99.3479 133.546 99.6585 134.62 100.4C135.108 100.791 135.509 101.28 135.798 101.834C136.087 102.388 136.258 102.996 136.3 103.62C136.67 106.62 136.85 108.1 137.22 111.09L134.16 111.38L133.28 104.72C133.232 103.928 132.873 103.187 132.28 102.66C131.982 102.43 131.641 102.263 131.276 102.168C130.912 102.074 130.532 102.054 130.16 102.11C129.781 102.125 129.408 102.215 129.065 102.377C128.721 102.538 128.413 102.767 128.16 103.05C127.922 103.37 127.756 103.738 127.673 104.128C127.59 104.518 127.593 104.921 127.68 105.31C128.07 107.97 128.26 109.31 128.68 111.96L125.62 112.31L124.62 105.58C124.551 104.811 124.194 104.097 123.62 103.58C123.316 103.355 122.97 103.193 122.603 103.104C122.235 103.015 121.853 103 121.48 103.06C121.095 103.076 120.718 103.173 120.373 103.346C120.028 103.518 119.724 103.762 119.48 104.06C119.255 104.39 119.101 104.763 119.029 105.156C118.956 105.548 118.967 105.952 119.06 106.34C119.51 109.01 119.74 110.34 120.2 113.01L117.2 113.42C116.34 108.65 115.91 106.27 115.06 101.5L118.22 101.12C118.34 101.85 118.4 102.21 118.53 102.94C118.702 102.637 118.9 102.35 119.12 102.08C119.347 101.795 119.609 101.54 119.9 101.32C120.221 101.071 120.579 100.872 120.96 100.73C121.403 100.559 121.867 100.448 122.34 100.4C123.217 100.282 124.109 100.392 124.93 100.72C125.637 101.007 126.255 101.476 126.72 102.08C127.142 101.406 127.688 100.819 128.33 100.35Z" fill="url(#paint5_linear_533_25612)"/>
<path d="M160.09 95.47C160.604 95.7433 161.038 96.1465 161.349 96.6394C161.659 97.1324 161.836 97.6979 161.86 98.28C161.891 98.6959 161.84 99.1137 161.71 99.51C161.598 99.8718 161.422 100.211 161.19 100.51C160.969 100.79 160.706 101.033 160.41 101.23C160.116 101.44 159.805 101.624 159.48 101.78C159.987 101.907 160.482 102.078 160.96 102.29C161.382 102.473 161.776 102.715 162.13 103.01C162.458 103.284 162.724 103.625 162.91 104.01C163.11 104.436 163.219 104.899 163.23 105.37C163.28 105.994 163.148 106.62 162.85 107.17C162.551 107.72 162.118 108.184 161.59 108.52C160.976 108.919 160.3 109.213 159.59 109.39C158.727 109.616 157.842 109.747 156.95 109.78C153.69 109.93 152.06 110.02 148.8 110.23L147.4 94.88C150.69 94.73 152.34 94.67 155.64 94.58C157.178 94.4488 158.721 94.7575 160.09 95.47ZM157.88 100.39C158.162 100.237 158.392 100.002 158.54 99.717C158.688 99.4319 158.747 99.1091 158.71 98.79C158.7 98.4934 158.611 98.2048 158.453 97.9536C158.295 97.7024 158.073 97.4976 157.81 97.36C157.059 96.9924 156.222 96.8401 155.39 96.92C153.55 96.98 152.63 97.01 150.78 97.09C150.92 98.72 150.99 99.54 151.12 101.17L155.45 100.99C156.297 100.996 157.133 100.79 157.88 100.39ZM159.28 106.74C159.555 106.579 159.778 106.343 159.924 106.06C160.069 105.776 160.13 105.457 160.1 105.14C160.085 104.824 159.985 104.518 159.808 104.255C159.632 103.993 159.387 103.783 159.1 103.65C158.216 103.265 157.25 103.11 156.29 103.2L151.29 103.42L151.64 107.62C153.7 107.51 154.73 107.46 156.79 107.37C157.66 107.377 158.518 107.16 159.28 106.74Z" fill="url(#paint6_linear_533_25612)"/>
<path d="M166.13 96.31L166 93.84H169.46C169.46 94.84 169.46 95.32 169.53 96.3L166.13 96.31ZM166.79 109.4C166.61 104.86 166.51 102.59 166.33 98.05H169.5C169.65 102.57 169.72 104.83 169.87 109.35L166.79 109.4Z" fill="url(#paint7_linear_533_25612)"/>
<path d="M183 107.57C182.735 108.001 182.376 108.367 181.95 108.64C181.46 108.934 180.926 109.15 180.37 109.28C179.733 109.423 179.082 109.494 178.43 109.49C177.441 109.482 176.459 109.338 175.51 109.06C174.53 108.786 173.597 108.368 172.74 107.82L174.07 106.07C174.774 106.49 175.526 106.826 176.31 107.07C177.016 107.292 177.75 107.413 178.49 107.43C179.019 107.458 179.546 107.347 180.02 107.11C180.18 107.027 180.314 106.902 180.41 106.749C180.505 106.596 180.556 106.42 180.56 106.24C180.561 106.135 180.54 106.031 180.498 105.935C180.457 105.839 180.396 105.752 180.32 105.68C180.125 105.506 179.902 105.368 179.66 105.27C179.337 105.129 179.003 105.018 178.66 104.94L177.52 104.64C177.03 104.51 176.52 104.37 176.02 104.21C175.543 104.064 175.086 103.859 174.66 103.6C174.266 103.366 173.926 103.053 173.66 102.68C173.379 102.286 173.232 101.813 173.24 101.33C173.225 100.83 173.346 100.336 173.59 99.9C173.839 99.4701 174.18 99.1012 174.59 98.82C175.066 98.5151 175.59 98.292 176.14 98.16C176.746 97.9948 177.371 97.9074 178 97.9C178.892 97.9233 179.779 98.0542 180.64 98.29C181.48 98.5254 182.289 98.8611 183.05 99.29L181.8 101.07C181.161 100.736 180.491 100.465 179.8 100.26C179.194 100.07 178.565 99.9619 177.93 99.94C177.443 99.9111 176.958 100.018 176.53 100.25C176.381 100.324 176.255 100.438 176.167 100.579C176.078 100.72 176.031 100.883 176.03 101.05C176.034 101.151 176.06 101.25 176.107 101.34C176.153 101.43 176.219 101.508 176.3 101.57C176.506 101.743 176.739 101.882 176.99 101.98C177.316 102.116 177.65 102.233 177.99 102.33L179.13 102.65C179.63 102.78 180.13 102.94 180.63 103.12C181.099 103.283 181.548 103.497 181.97 103.76C182.357 103.998 182.697 104.306 182.97 104.67C183.226 105.054 183.355 105.509 183.34 105.97C183.382 106.525 183.264 107.08 183 107.57Z" fill="url(#paint8_linear_533_25612)"/>
<path d="M189.52 109.45L186.44 109.37C186.51 104.95 186.54 102.74 186.61 98.31L189.79 98.44V100.17C190.02 99.91 190.271 99.6692 190.54 99.45C190.834 99.2213 191.152 99.0267 191.49 98.87C191.868 98.7021 192.264 98.5779 192.67 98.5C193.147 98.4068 193.635 98.3766 194.12 98.41C195.433 98.394 196.704 98.8723 197.68 99.75C198.083 100.157 198.391 100.647 198.583 101.186C198.774 101.726 198.845 102.3 198.79 102.87L198.44 109.79L195.36 109.65L195.62 103.46C195.654 103.098 195.611 102.734 195.496 102.389C195.381 102.045 195.195 101.728 194.95 101.46C194.337 100.976 193.587 100.699 192.808 100.669C192.028 100.638 191.258 100.856 190.61 101.29C190.313 101.529 190.077 101.835 189.92 102.182C189.764 102.53 189.692 102.909 189.71 103.29L189.52 109.45Z" fill="url(#paint9_linear_533_25612)"/>
<path d="M202.9 97.52C202.96 96.58 202.99 96.11 203.04 95.16L206.49 95.44C206.42 96.38 206.39 96.85 206.32 97.78L202.9 97.52ZM202.26 110C202.53 105.67 202.66 103.51 202.93 99.19L206.1 99.43C205.8 103.73 205.64 105.88 205.34 110.19L202.26 110Z" fill="url(#paint10_linear_533_25612)"/>
<path d="M218.61 109.57C218.299 109.969 217.898 110.287 217.44 110.5C216.921 110.744 216.368 110.906 215.8 110.98C215.136 111.059 214.464 111.059 213.8 110.98C212.819 110.895 211.854 110.68 210.93 110.34C209.986 110.007 209.096 109.535 208.29 108.94L209.79 107.38C210.452 107.855 211.171 108.244 211.93 108.54C212.614 108.818 213.335 108.993 214.07 109.06C214.597 109.137 215.135 109.075 215.63 108.88C215.794 108.817 215.939 108.712 216.05 108.575C216.16 108.438 216.233 108.274 216.26 108.1C216.27 108.002 216.259 107.904 216.228 107.811C216.197 107.717 216.147 107.632 216.08 107.56C215.899 107.373 215.686 107.22 215.45 107.11C215.147 106.956 214.833 106.825 214.51 106.72C214.16 106.59 213.79 106.47 213.4 106.34C213.01 106.21 212.4 106 211.95 105.81C211.487 105.635 211.047 105.403 210.64 105.12C210.273 104.851 209.964 104.511 209.73 104.12C209.495 103.722 209.397 103.259 209.45 102.8C209.482 102.319 209.652 101.857 209.94 101.47C210.234 101.073 210.618 100.751 211.06 100.53C211.565 100.275 212.109 100.106 212.67 100.03C213.311 99.9443 213.96 99.9443 214.6 100.03C215.487 100.118 216.36 100.313 217.2 100.61C218.013 100.897 218.788 101.279 219.51 101.75L218.08 103.34C217.474 102.967 216.835 102.652 216.17 102.4C215.581 102.175 214.966 102.024 214.34 101.95C213.853 101.877 213.356 101.936 212.9 102.12C212.749 102.177 212.615 102.274 212.515 102.401C212.415 102.528 212.351 102.68 212.33 102.84C212.322 102.937 212.336 103.035 212.373 103.125C212.409 103.215 212.467 103.296 212.54 103.36C212.733 103.538 212.953 103.687 213.19 103.8C213.46 103.94 213.78 104.08 214.13 104.22L215.25 104.61C215.73 104.777 216.21 104.967 216.69 105.18C217.142 105.373 217.571 105.614 217.97 105.9C218.336 106.164 218.64 106.505 218.86 106.9C219.086 107.275 219.175 107.717 219.11 108.15C219.076 108.66 218.903 109.151 218.61 109.57Z" fill="url(#paint11_linear_533_25612)"/>
<path d="M77.8401 151.14C77.8105 151.755 77.7336 152.367 77.6101 152.97C77.5101 153.431 77.338 153.873 77.1001 154.28C76.8822 154.635 76.5969 154.944 76.2601 155.19C75.8931 155.443 75.4879 155.635 75.0601 155.76C74.5561 155.926 74.0305 156.017 73.5001 156.03C73.009 156.031 72.5194 155.977 72.0401 155.87C72.1201 154.87 72.1601 154.43 72.2501 153.47C72.5402 153.527 72.8345 153.561 73.1301 153.57C73.4209 153.569 73.7103 153.529 73.9901 153.45C74.3371 153.354 74.6407 153.143 74.8501 152.85C75.0775 152.443 75.2011 151.986 75.2101 151.52C71.6501 147.19 69.8301 145.02 66.1201 140.69L69.1201 139.82C71.7201 143.08 73.0001 144.71 75.5201 147.97C75.6101 143.97 75.6701 141.97 75.8301 137.97L78.8301 137.18C78.3301 142.73 78.1401 145.53 77.8401 151.14Z" fill="url(#paint12_linear_533_25612)"/>
<path d="M91.5499 147L91.1499 145.5C90.8514 146.125 90.4336 146.685 89.9199 147.15C89.2992 147.693 88.5537 148.075 87.7499 148.26C87.197 148.414 86.6235 148.482 86.0499 148.46C85.5158 148.434 84.9907 148.312 84.4999 148.1C84.013 147.883 83.577 147.566 83.2199 147.17C82.8293 146.727 82.5454 146.2 82.3899 145.63C82.1971 145.037 82.1457 144.407 82.2399 143.79C82.3332 143.242 82.5637 142.726 82.9099 142.29C83.2815 141.822 83.7441 141.434 84.2699 141.15C84.8698 140.815 85.5123 140.563 86.1799 140.4C86.8119 140.23 87.4578 140.116 88.1099 140.06C88.6395 140.03 89.1703 140.03 89.6999 140.06L89.6199 139.76C89.5425 139.388 89.3842 139.037 89.156 138.733C88.9279 138.429 88.6356 138.178 88.2999 138C87.5232 137.671 86.655 137.629 85.8499 137.88C85.2232 138.029 84.6183 138.257 84.0499 138.56C83.5241 138.853 83.0225 139.187 82.5499 139.56L81.1299 137.56C81.7074 137.041 82.3336 136.579 82.9999 136.18C83.8019 135.76 84.656 135.447 85.5399 135.25C86.2737 135.01 87.0479 134.92 87.8172 134.983C88.5865 135.047 89.3353 135.263 90.0199 135.62C90.6215 136.018 91.1381 136.531 91.5397 137.13C91.9414 137.73 92.2202 138.402 92.3599 139.11L94.2599 146.33L91.5499 147ZM90.2199 141.81C89.7711 141.763 89.3187 141.763 88.8699 141.81C88.3396 141.841 87.8136 141.925 87.2999 142.06C86.5756 142.189 85.9087 142.538 85.3899 143.06C85.1981 143.286 85.0679 143.557 85.0119 143.848C84.9558 144.139 84.9758 144.439 85.0699 144.72C85.133 144.989 85.2634 145.237 85.4488 145.442C85.6342 145.647 85.8686 145.801 86.1299 145.89C86.7096 146.07 87.3302 146.07 87.9099 145.89C88.3364 145.781 88.7443 145.609 89.1199 145.38C89.4592 145.177 89.7576 144.912 89.9999 144.6C90.2241 144.305 90.378 143.963 90.4499 143.6C90.5341 143.235 90.5341 142.855 90.4499 142.49C90.3399 142.27 90.2999 142.12 90.2199 141.82V141.81Z" fill="url(#paint13_linear_533_25612)"/>
<path d="M100.33 144.88L97.55 145.54C96.32 140.67 95.71 138.24 94.48 133.38L97.37 132.75L97.83 134.65C97.9561 134.303 98.1134 133.968 98.3 133.65C98.488 133.332 98.7166 133.039 98.98 132.78C99.2799 132.502 99.6163 132.267 99.98 132.08C100.384 131.874 100.815 131.726 101.26 131.64C101.864 131.482 102.494 131.453 103.109 131.557C103.725 131.66 104.311 131.893 104.83 132.24C105.843 133.013 106.522 134.143 106.73 135.4C107.41 138.47 107.73 140 108.42 143.07L105.63 143.67L104 136.86C103.865 136.071 103.445 135.36 102.82 134.86C102.512 134.649 102.163 134.507 101.795 134.443C101.428 134.379 101.051 134.395 100.69 134.49C100.319 134.553 99.9656 134.695 99.6535 134.905C99.3414 135.115 99.0777 135.39 98.88 135.71C98.6833 136.071 98.5615 136.468 98.522 136.877C98.4825 137.286 98.526 137.698 98.65 138.09C99.33 140.78 99.66 142.15 100.33 144.88Z" fill="url(#paint14_linear_533_25612)"/>
<path d="M122.33 142.7C121.153 143.996 119.555 144.832 117.82 145.06C115.934 145.449 113.979 145.321 112.16 144.69L112.76 142.41C113.469 142.673 114.208 142.851 114.96 142.94C115.746 143.034 116.543 143.003 117.32 142.85C118.36 142.721 119.312 142.199 119.98 141.39C120.26 140.962 120.448 140.481 120.533 139.976C120.617 139.472 120.596 138.956 120.47 138.46L120.3 137.53C119.923 138.252 119.418 138.899 118.81 139.44C118.127 140.018 117.295 140.393 116.41 140.52C115.699 140.649 114.971 140.649 114.26 140.52C113.55 140.399 112.871 140.141 112.26 139.76C111.63 139.354 111.083 138.831 110.65 138.22C110.16 137.531 109.82 136.748 109.65 135.92C109.47 135.103 109.47 134.257 109.65 133.44C109.798 132.717 110.102 132.034 110.54 131.44C110.97 130.854 111.515 130.361 112.14 129.99C112.775 129.614 113.473 129.357 114.2 129.23C115.115 129.041 116.065 129.1 116.95 129.4C117.676 129.673 118.352 130.065 118.95 130.56C118.82 129.84 118.76 129.47 118.62 128.75L121.52 128.3C122.17 132.09 122.52 133.98 123.16 137.77C123.39 138.602 123.435 139.475 123.292 140.327C123.148 141.179 122.82 141.989 122.33 142.7ZM119.16 132.83C118.894 132.457 118.553 132.144 118.16 131.91C117.759 131.677 117.318 131.521 116.86 131.45C116.38 131.37 115.89 131.37 115.41 131.45C114.932 131.529 114.471 131.692 114.05 131.93C113.663 132.153 113.324 132.448 113.05 132.8C112.787 133.146 112.603 133.545 112.51 133.97C112.41 134.435 112.41 134.915 112.51 135.38C112.6 135.832 112.781 136.261 113.043 136.641C113.304 137.021 113.64 137.344 114.03 137.59C114.403 137.83 114.822 137.99 115.26 138.06C115.726 138.145 116.204 138.145 116.67 138.06C117.139 137.973 117.592 137.811 118.01 137.58C118.396 137.354 118.736 137.055 119.01 136.7C119.28 136.352 119.481 135.955 119.6 135.53C119.711 135.073 119.711 134.597 119.6 134.14C119.55 133.677 119.4 133.23 119.16 132.83Z" fill="url(#paint15_linear_533_25612)"/>
<path d="M144.78 125.73C145.51 125.264 146.346 124.989 147.21 124.93C147.805 124.844 148.41 124.877 148.992 125.026C149.574 125.175 150.12 125.438 150.6 125.8C151.047 126.2 151.407 126.688 151.659 127.234C151.91 127.779 152.046 128.37 152.06 128.97C152.31 131.92 152.44 133.4 152.7 136.35L149.86 136.63C149.61 134 149.49 132.69 149.24 130.06C149.211 129.308 148.901 128.594 148.37 128.06C148.097 127.829 147.776 127.66 147.431 127.565C147.085 127.47 146.723 127.451 146.37 127.51C146.013 127.53 145.664 127.623 145.344 127.783C145.024 127.943 144.74 128.166 144.51 128.44C144.276 128.757 144.11 129.118 144.022 129.502C143.935 129.886 143.927 130.283 144 130.67C144.29 133.29 144.43 134.61 144.72 137.23L141.89 137.57C141.58 134.91 141.42 133.57 141.1 130.92C141.052 130.164 140.728 129.453 140.19 128.92C139.611 128.502 138.894 128.32 138.186 128.413C137.477 128.506 136.832 128.866 136.38 129.42C135.94 130.078 135.779 130.883 135.93 131.66C136.29 134.3 136.47 135.66 136.82 138.26L134 138.65C133.32 133.94 133 131.58 132.31 126.87L135.24 126.5L135.48 128.3C135.652 128.008 135.842 127.727 136.05 127.46C136.266 127.181 136.514 126.929 136.79 126.71C137.095 126.472 137.432 126.277 137.79 126.13C138.2 125.964 138.63 125.856 139.07 125.81C139.882 125.694 140.71 125.808 141.46 126.14C142.116 126.43 142.677 126.897 143.08 127.49C143.518 126.791 144.097 126.192 144.78 125.73Z" fill="url(#paint16_linear_533_25612)"/>
<path d="M163.57 124L166.51 123.86L167.01 135.21L164.16 135.4L164.07 133.61C163.681 134.199 163.194 134.717 162.63 135.14C161.956 135.611 161.161 135.879 160.34 135.91C159.75 136.002 159.148 135.969 158.572 135.812C157.997 135.655 157.461 135.379 157 135C156.142 134.181 155.642 133.056 155.61 131.87C155.39 128.94 155.28 127.48 155.05 124.55L157.99 124.35L158.44 130.85C158.448 131.599 158.745 132.316 159.27 132.85C159.544 133.081 159.864 133.252 160.208 133.352C160.553 133.452 160.914 133.478 161.27 133.43C162.026 133.412 162.745 133.096 163.27 132.55C163.519 132.259 163.707 131.92 163.82 131.553C163.934 131.187 163.971 130.801 163.93 130.42L163.57 124Z" fill="url(#paint17_linear_533_25612)"/>
<path d="M179.83 134.64V132.78C179.358 133.385 178.787 133.906 178.14 134.32C177.383 134.769 176.52 135.011 175.64 135.02C174.918 135.05 174.197 134.951 173.51 134.73C172.827 134.507 172.198 134.146 171.66 133.67C171.095 133.169 170.636 132.561 170.31 131.88C169.941 131.104 169.744 130.259 169.73 129.4C169.685 128.538 169.821 127.676 170.13 126.87C170.414 126.159 170.839 125.512 171.38 124.97C171.912 124.448 172.545 124.04 173.24 123.77C173.942 123.495 174.686 123.346 175.44 123.33C176.342 123.278 177.242 123.464 178.05 123.87C178.706 124.217 179.298 124.674 179.8 125.22V119.22H182.8C182.8 125.37 182.8 128.44 182.73 134.59L179.83 134.64ZM179.56 127.64C179.364 127.219 179.089 126.838 178.75 126.52C178.408 126.209 178.007 125.971 177.57 125.82C177.125 125.659 176.654 125.581 176.18 125.59C175.7 125.603 175.226 125.701 174.78 125.88C174.348 126.046 173.956 126.301 173.63 126.63C173.301 126.961 173.042 127.356 172.87 127.79C172.69 128.283 172.608 128.806 172.63 129.33C172.633 129.843 172.742 130.351 172.95 130.82C173.138 131.243 173.414 131.62 173.759 131.929C174.103 132.237 174.509 132.47 174.95 132.61C175.39 132.761 175.854 132.833 176.32 132.82C176.787 132.8 177.248 132.699 177.68 132.52C178.109 132.339 178.5 132.078 178.83 131.75C179.157 131.417 179.421 131.027 179.61 130.6C179.808 130.128 179.906 129.621 179.9 129.11C179.904 128.584 179.788 128.064 179.56 127.59V127.64Z" fill="url(#paint18_linear_533_25612)"/>
<path d="M193.79 134.47L193.84 133.13C193.359 133.599 192.796 133.975 192.18 134.24C191.421 134.561 190.603 134.718 189.78 134.7C189.213 134.713 188.648 134.646 188.1 134.5C187.604 134.367 187.134 134.15 186.71 133.86C186.324 133.582 186.003 133.224 185.77 132.81C185.528 132.355 185.407 131.845 185.42 131.33C185.415 130.778 185.553 130.234 185.82 129.75C186.086 129.299 186.456 128.918 186.9 128.64C187.402 128.322 187.957 128.098 188.54 127.98C189.212 127.825 189.9 127.755 190.59 127.77C191.239 127.763 191.888 127.81 192.53 127.91C193.046 127.998 193.557 128.115 194.06 128.26V128C194.091 127.67 194.04 127.337 193.911 127.032C193.782 126.726 193.579 126.457 193.32 126.25C192.643 125.793 191.835 125.571 191.02 125.62C190.372 125.605 189.725 125.662 189.09 125.79C188.509 125.918 187.938 126.085 187.38 126.29C187.08 125.47 186.92 125.07 186.62 124.29C187.332 124.018 188.064 123.8 188.81 123.64C189.695 123.464 190.598 123.39 191.5 123.42C193.008 123.317 194.501 123.776 195.69 124.71C196.137 125.154 196.478 125.693 196.687 126.286C196.897 126.88 196.97 127.514 196.9 128.14C196.78 130.72 196.72 132.01 196.59 134.59L193.79 134.47ZM194.04 129.84C193.623 129.694 193.195 129.584 192.76 129.51C192.237 129.425 191.709 129.381 191.18 129.38C190.442 129.333 189.706 129.489 189.05 129.83C188.813 129.957 188.614 130.146 188.475 130.377C188.336 130.607 188.262 130.871 188.26 131.14V131.19C188.245 131.433 188.3 131.676 188.418 131.888C188.537 132.101 188.715 132.275 188.93 132.39C189.446 132.685 190.035 132.831 190.63 132.81C191.072 132.812 191.513 132.755 191.94 132.64C192.318 132.542 192.679 132.387 193.01 132.18C193.297 131.993 193.542 131.747 193.73 131.46C193.908 131.178 194.008 130.853 194.02 130.52L194.04 129.84Z" fill="url(#paint19_linear_533_25612)"/>
<path d="M202.84 134.62L199.98 134.55C200.33 128.55 200.51 125.55 200.86 119.55L203.86 119.68L203.47 125.5C203.691 125.244 203.935 125.01 204.2 124.8C204.479 124.573 204.784 124.382 205.11 124.23C205.468 124.064 205.844 123.939 206.23 123.86C206.678 123.776 207.135 123.749 207.59 123.78C208.191 123.768 208.789 123.877 209.347 124.1C209.905 124.324 210.413 124.657 210.84 125.08C211.197 125.486 211.462 125.964 211.617 126.482C211.773 127 211.814 127.545 211.74 128.08L211.1 134.84L208.24 134.71C208.45 132.29 208.55 131.08 208.76 128.66C208.819 128.307 208.802 127.946 208.709 127.601C208.616 127.256 208.449 126.935 208.22 126.66C207.966 126.405 207.664 126.205 207.33 126.071C206.997 125.936 206.639 125.872 206.28 125.88C205.528 125.812 204.778 126.03 204.18 126.49C203.897 126.727 203.668 127.022 203.51 127.355C203.351 127.688 203.266 128.051 203.26 128.42C203.08 131 203 132.19 202.84 134.62Z" fill="url(#paint20_linear_533_25612)"/>
<path d="M82.6798 180.08C82.4198 179.25 82.2798 178.84 82.0098 178.02C81.8259 178.787 81.5077 179.515 81.0698 180.17C80.597 180.857 79.912 181.37 79.1198 181.63C78.481 181.865 77.7968 181.951 77.1198 181.88C76.4106 181.813 75.7263 181.584 75.1198 181.21C74.4148 180.788 73.7916 180.243 73.2798 179.6C72.6639 178.826 72.1899 177.949 71.8798 177.01C71.5278 176.083 71.3384 175.102 71.3198 174.11C71.3105 173.28 71.4563 172.456 71.7498 171.68C72.0193 170.982 72.4472 170.355 72.9998 169.85C73.5127 169.364 74.1228 168.993 74.7898 168.76C75.5918 168.451 76.4719 168.409 77.2998 168.64C78.0167 168.862 78.6924 169.199 79.2998 169.64L77.1098 163L79.7598 162.17C81.9198 168.98 82.9998 172.38 85.1698 179.17L82.6798 180.08ZM79.9198 172.35C79.6084 171.953 79.2292 171.615 78.7998 171.35C78.4076 171.106 77.9677 170.949 77.5098 170.89C77.0681 170.836 76.6199 170.883 76.1998 171.03C75.7752 171.177 75.3866 171.412 75.0598 171.72C74.7313 172.04 74.4785 172.43 74.3198 172.86C74.1357 173.334 74.0506 173.841 74.0698 174.35C74.0795 174.954 74.1911 175.553 74.3998 176.12C74.5831 176.683 74.8603 177.21 75.2198 177.68C75.5217 178.082 75.8986 178.422 76.3298 178.68C76.7131 178.916 77.1429 179.066 77.5898 179.12C78.025 179.169 78.4658 179.118 78.8783 178.971C79.2909 178.824 79.6642 178.584 79.9698 178.27C80.2962 177.944 80.5486 177.552 80.7098 177.12C80.8831 176.642 80.9777 176.139 80.9898 175.63C80.994 175.042 80.8994 174.457 80.7098 173.9C80.5375 173.342 80.2703 172.817 79.9198 172.35Z" fill="url(#paint21_linear_533_25612)"/>
<path d="M83.9401 164C83.6101 162.93 83.4401 162.39 83.1201 161.32C84.2501 160.98 84.8201 160.8 85.9601 160.47L86.7601 163.14L83.9401 164ZM88.4001 178.15L84.6301 165.85L87.2401 165.05C88.7001 169.96 89.4301 172.42 90.9001 177.33C89.9001 177.63 89.4001 177.79 88.4001 178.13V178.15Z" fill="url(#paint22_linear_533_25612)"/>
<path d="M104.35 173.22L101.45 174.06C99.58 172.34 98.63 171.48 96.72 169.76C96.29 170.65 96.08 171.1 95.66 172L96.66 175.5C95.66 175.8 95.15 175.96 94.14 176.28C92.2 169.5 91.22 166.11 89.27 159.34L91.94 158.59C93.06 162.59 93.63 164.65 94.76 168.69C96 165.97 96.64 164.63 97.96 161.95L101.14 161.1C99.82 163.56 99.14 164.8 97.94 167.29C100.53 169.66 101.82 170.85 104.35 173.22Z" fill="url(#paint23_linear_533_25612)"/>
<path d="M110.44 158.77L113.09 158.15L115.69 170.15L113.15 170.8L112.72 168.9C112.495 169.572 112.157 170.202 111.72 170.76C111.089 171.465 110.228 171.923 109.29 172.053C108.353 172.183 107.4 171.976 106.6 171.47C105.629 170.678 104.967 169.57 104.73 168.34C103.97 165.25 103.58 163.7 102.81 160.61L105.46 159.94C106.12 162.69 106.46 164.06 107.1 166.81C107.244 167.586 107.645 168.291 108.24 168.81C108.514 169.008 108.83 169.139 109.163 169.193C109.497 169.247 109.838 169.222 110.16 169.12C110.504 169.039 110.826 168.886 111.106 168.671C111.385 168.455 111.615 168.182 111.78 167.87C112.129 167.126 112.197 166.28 111.97 165.49L110.44 158.77Z" fill="url(#paint24_linear_533_25612)"/>
<path d="M126.14 165.81C126.019 166.304 125.791 166.765 125.47 167.16C125.137 167.562 124.734 167.901 124.28 168.16C123.79 168.438 123.261 168.641 122.71 168.76C121.886 168.943 121.037 168.98 120.2 168.87C119.31 168.755 118.446 168.484 117.65 168.07C117.94 167.21 118.1 166.79 118.4 165.93C119.055 166.259 119.756 166.489 120.48 166.61C121.101 166.726 121.739 166.726 122.36 166.61C122.822 166.533 123.247 166.309 123.57 165.97C123.689 165.835 123.776 165.675 123.825 165.502C123.873 165.329 123.882 165.147 123.85 164.97C123.815 164.756 123.705 164.561 123.54 164.42C123.348 164.276 123.131 164.167 122.9 164.1C122.615 164.022 122.324 163.969 122.03 163.94L121.03 163.84C120.59 163.84 120.14 163.74 119.69 163.67C119.252 163.607 118.827 163.475 118.43 163.28C118.046 163.087 117.706 162.819 117.43 162.49C117.112 162.092 116.899 161.621 116.81 161.12V161C116.69 160.477 116.69 159.933 116.81 159.41C116.922 158.918 117.137 158.454 117.44 158.05C117.763 157.646 118.16 157.307 118.61 157.05C119.092 156.772 119.615 156.573 120.16 156.46C120.91 156.309 121.68 156.279 122.44 156.37C123.205 156.452 123.953 156.647 124.66 156.95C124.38 157.81 124.24 158.24 123.97 159.11C123.381 158.878 122.767 158.717 122.14 158.63C121.604 158.534 121.056 158.534 120.52 158.63C120.089 158.697 119.694 158.909 119.4 159.23C119.289 159.359 119.209 159.512 119.165 159.676C119.122 159.841 119.117 160.013 119.15 160.18V160.23C119.169 160.333 119.207 160.43 119.264 160.518C119.321 160.606 119.394 160.681 119.48 160.74C119.675 160.881 119.896 160.983 120.13 161.04C120.422 161.124 120.719 161.187 121.02 161.23C121.35 161.28 121.69 161.31 122.02 161.35C122.47 161.396 122.917 161.466 123.36 161.56C123.794 161.647 124.214 161.792 124.61 161.99C124.996 162.179 125.337 162.448 125.61 162.78C125.913 163.158 126.11 163.61 126.18 164.09C126.283 164.66 126.269 165.245 126.14 165.81Z" fill="url(#paint25_linear_533_25612)"/>
<path d="M131.67 162.76C131.684 162.965 131.74 163.165 131.835 163.347C131.929 163.529 132.06 163.69 132.22 163.82C132.38 163.918 132.558 163.981 132.744 164.007C132.93 164.033 133.119 164.02 133.3 163.97C133.859 163.859 134.384 163.615 134.83 163.26C134.97 164.15 135.03 164.59 135.17 165.48C134.864 165.737 134.529 165.955 134.17 166.13C133.775 166.317 133.358 166.455 132.93 166.54C132.496 166.63 132.051 166.656 131.61 166.62C131.208 166.585 130.821 166.455 130.48 166.24C130.12 166.006 129.825 165.686 129.62 165.31C129.36 164.806 129.187 164.262 129.11 163.7C128.68 161.19 128.47 159.93 128.04 157.42L126.58 157.71L126.18 155.38L127.65 155.1L127.1 151.84L129.8 151.35C130.01 152.65 130.12 153.35 130.33 154.61L133.45 154.05L133.8 156.36L130.7 156.92C131.11 159.25 131.3 160.42 131.67 162.76Z" fill="url(#paint26_linear_533_25612)"/>
<path d="M148 160.12C147.779 160.884 147.423 161.601 146.95 162.24C146.469 162.887 145.872 163.44 145.19 163.87C144.476 164.317 143.681 164.62 142.85 164.76C142.044 164.906 141.217 164.886 140.42 164.7C139.668 164.512 138.964 164.172 138.35 163.7C137.734 163.234 137.215 162.653 136.82 161.99C135.995 160.537 135.752 158.825 136.14 157.2C136.335 156.418 136.674 155.678 137.14 155.02C137.906 154.005 138.952 153.235 140.149 152.805C141.346 152.376 142.643 152.304 143.88 152.6C144.643 152.788 145.361 153.128 145.99 153.6C146.605 154.073 147.116 154.669 147.49 155.35C147.879 156.061 148.121 156.843 148.2 157.65C148.3 158.478 148.232 159.319 148 160.12ZM145.14 156.71C144.93 156.286 144.634 155.912 144.27 155.61C143.921 155.309 143.512 155.088 143.07 154.96C142.592 154.822 142.089 154.795 141.6 154.88C141.104 154.948 140.629 155.126 140.21 155.4C139.813 155.664 139.473 156.004 139.21 156.4C138.957 156.802 138.777 157.245 138.68 157.71C138.594 158.206 138.594 158.714 138.68 159.21C138.743 159.714 138.899 160.202 139.14 160.65C139.354 161.071 139.653 161.442 140.02 161.74C140.37 162.026 140.775 162.237 141.21 162.36C141.668 162.489 142.15 162.513 142.62 162.43C143.111 162.349 143.581 162.169 144 161.9C144.783 161.365 145.327 160.548 145.52 159.62C145.629 159.134 145.652 158.634 145.59 158.14C145.539 157.64 145.393 157.155 145.16 156.71H145.14Z" fill="url(#paint27_linear_533_25612)"/>
<path d="M161.8 150.52C162.479 150.068 163.265 149.802 164.08 149.75C164.625 149.664 165.182 149.697 165.713 149.845C166.245 149.993 166.738 150.254 167.16 150.61C167.565 151.02 167.882 151.508 168.092 152.044C168.302 152.581 168.4 153.154 168.38 153.73C168.5 156.63 168.56 158.07 168.69 160.97L166.07 161.24C165.94 158.66 165.87 157.37 165.74 154.79C165.759 154.057 165.502 153.343 165.02 152.79C164.786 152.571 164.504 152.408 164.198 152.315C163.891 152.221 163.567 152.199 163.25 152.25C162.911 152.27 162.579 152.362 162.278 152.519C161.976 152.675 161.711 152.894 161.5 153.16C161.041 153.788 160.844 154.57 160.95 155.34C161.12 157.92 161.2 159.21 161.37 161.79L158.76 162.12C158.57 159.5 158.47 158.19 158.27 155.58C158.271 154.843 158 154.131 157.51 153.58C157.271 153.363 156.985 153.204 156.674 153.116C156.364 153.027 156.037 153.012 155.72 153.07C155.376 153.099 155.042 153.203 154.743 153.376C154.444 153.549 154.187 153.786 153.99 154.07C153.561 154.718 153.386 155.501 153.5 156.27C153.73 158.87 153.85 160.17 154.08 162.77L151.48 163.14C151.02 158.5 150.79 156.14 150.34 151.54L153.04 151.2C153.11 151.91 153.14 152.26 153.2 152.97C153.366 152.682 153.549 152.405 153.75 152.14C153.958 151.87 154.196 151.625 154.46 151.41C154.743 151.174 155.06 150.982 155.4 150.84C155.783 150.682 156.187 150.581 156.6 150.54C157.343 150.435 158.101 150.549 158.78 150.87C159.377 151.167 159.877 151.628 160.22 152.2C160.634 151.544 161.171 150.974 161.8 150.52Z" fill="url(#paint28_linear_533_25612)"/>
<path d="M171.46 147.64C171.46 146.64 171.41 146.16 171.38 145.18L174.38 144.99L174.43 147.44C173.22 147.51 172.64 147.55 171.46 147.64ZM171.97 160.64C171.83 156.13 171.76 153.87 171.63 149.35L174.35 149.16L174.6 160.41L171.97 160.64Z" fill="url(#paint29_linear_533_25612)"/>
<path d="M185.81 157.9C185.59 158.337 185.28 158.722 184.9 159.03C184.489 159.345 184.03 159.592 183.54 159.76C183.003 159.94 182.445 160.048 181.88 160.08C180.162 160.183 178.458 159.719 177.03 158.76L178.18 156.93C178.77 157.32 179.413 157.624 180.09 157.83C180.692 158.012 181.321 158.089 181.95 158.06C182.417 158.054 182.873 157.912 183.26 157.65C183.407 157.551 183.528 157.416 183.612 157.26C183.695 157.103 183.739 156.928 183.74 156.75C183.744 156.554 183.672 156.364 183.54 156.22C183.379 156.054 183.185 155.925 182.97 155.84C182.703 155.722 182.425 155.631 182.14 155.57L181.14 155.34C180.71 155.24 180.29 155.12 179.85 155C179.44 154.878 179.05 154.7 178.69 154.47C178.346 154.246 178.053 153.953 177.83 153.61C177.592 153.208 177.474 152.747 177.49 152.28C177.475 151.783 177.578 151.29 177.79 150.84C177.998 150.404 178.298 150.018 178.67 149.71C179.066 149.379 179.52 149.125 180.01 148.96C180.537 148.774 181.091 148.669 181.65 148.65C182.411 148.611 183.174 148.692 183.91 148.89C184.637 149.067 185.335 149.35 185.98 149.73L184.88 151.57C184.341 151.276 183.771 151.044 183.18 150.88C182.661 150.727 182.121 150.657 181.58 150.67C181.148 150.673 180.726 150.806 180.37 151.05C180.236 151.143 180.127 151.267 180.052 151.412C179.977 151.556 179.938 151.717 179.94 151.88C179.94 151.976 179.959 152.07 179.997 152.158C180.035 152.245 180.09 152.325 180.16 152.39C180.336 152.544 180.535 152.669 180.75 152.76C181.024 152.873 181.304 152.97 181.59 153.05C181.9 153.14 182.23 153.22 182.59 153.3C183.02 153.404 183.444 153.53 183.86 153.68C184.268 153.812 184.655 154 185.01 154.24C185.344 154.461 185.627 154.751 185.84 155.09C186.068 155.469 186.176 155.908 186.15 156.35C186.154 156.886 186.038 157.415 185.81 157.9Z" fill="url(#paint30_linear_533_25612)"/>
<path d="M195.75 159.22L195.82 157.88C195.374 158.353 194.85 158.746 194.27 159.04C193.575 159.38 192.813 159.561 192.04 159.57C191.519 159.593 190.997 159.542 190.49 159.42C190.033 159.306 189.602 159.105 189.22 158.83C188.863 158.565 188.569 158.223 188.36 157.83C188.142 157.375 188.039 156.874 188.06 156.37C188.055 155.837 188.181 155.311 188.424 154.837C188.668 154.364 189.024 153.956 189.46 153.65C189.918 153.327 190.429 153.086 190.97 152.94C191.59 152.775 192.228 152.685 192.87 152.67C193.471 152.654 194.073 152.684 194.67 152.76C195.146 152.827 195.617 152.927 196.08 153.06V152.79C196.116 152.471 196.075 152.149 195.96 151.849C195.845 151.55 195.66 151.283 195.42 151.07C194.803 150.636 194.051 150.438 193.3 150.51C192.696 150.518 192.096 150.596 191.51 150.74C190.969 150.887 190.438 151.067 189.92 151.28L189.24 149.28C189.885 148.983 190.554 148.742 191.24 148.56C192.055 148.364 192.891 148.264 193.73 148.26C194.42 148.188 195.117 148.254 195.781 148.453C196.445 148.652 197.063 148.981 197.6 149.42C198.015 149.869 198.326 150.403 198.511 150.986C198.696 151.568 198.75 152.184 198.67 152.79C198.52 155.36 198.45 156.64 198.3 159.21L195.75 159.22ZM196.04 154.61C195.657 154.475 195.262 154.378 194.86 154.32C194.377 154.248 193.888 154.218 193.4 154.23C192.698 154.214 192.005 154.394 191.4 154.75C191.172 154.889 190.985 155.085 190.855 155.318C190.726 155.551 190.658 155.813 190.66 156.08C190.642 156.314 190.689 156.548 190.797 156.757C190.904 156.965 191.068 157.14 191.27 157.26C191.742 157.533 192.286 157.658 192.83 157.62C193.241 157.612 193.648 157.545 194.04 157.42C194.397 157.311 194.735 157.145 195.04 156.93C195.317 156.735 195.548 156.482 195.72 156.19C195.887 155.904 195.984 155.581 196 155.25L196.04 154.61Z" fill="url(#paint31_linear_533_25612)"/>
<path d="M209.48 157.41C209.22 157.809 208.879 158.15 208.48 158.41C208.047 158.692 207.57 158.901 207.07 159.03C206.518 159.172 205.95 159.243 205.38 159.24C204.54 159.247 203.706 159.115 202.91 158.85C202.091 158.594 201.323 158.198 200.64 157.68C201.15 157 201.41 156.68 201.93 155.99C202.492 156.41 203.111 156.747 203.77 156.99C204.36 157.203 204.982 157.315 205.61 157.32C206.094 157.349 206.577 157.238 207 157C207.151 156.914 207.28 156.793 207.374 156.647C207.468 156.5 207.525 156.333 207.54 156.16C207.552 156.067 207.544 155.972 207.517 155.882C207.489 155.793 207.442 155.71 207.38 155.64C207.235 155.469 207.054 155.332 206.85 155.24C206.59 155.112 206.319 155.008 206.04 154.93L205.04 154.65C204.63 154.53 204.21 154.39 203.78 154.24C203.38 154.102 203.003 153.906 202.66 153.66C202.334 153.433 202.064 153.136 201.87 152.79C201.659 152.391 201.576 151.938 201.63 151.49C201.653 151.009 201.797 150.541 202.05 150.13C202.306 149.728 202.648 149.387 203.05 149.13C203.478 148.842 203.951 148.625 204.45 148.49C204.994 148.346 205.556 148.279 206.12 148.29C206.88 148.306 207.634 148.431 208.36 148.66C209.067 148.874 209.74 149.187 210.36 149.59L209.12 151.3C208.6 150.983 208.046 150.725 207.47 150.53C206.962 150.349 206.429 150.251 205.89 150.24C205.457 150.21 205.025 150.311 204.65 150.53C204.513 150.61 204.397 150.722 204.312 150.856C204.226 150.99 204.174 151.142 204.16 151.3C204.154 151.392 204.168 151.484 204.201 151.57C204.234 151.657 204.284 151.735 204.35 151.8C204.51 151.96 204.696 152.092 204.9 152.19C205.14 152.3 205.41 152.41 205.72 152.52L206.72 152.82C207.144 152.943 207.562 153.09 207.97 153.26C208.362 153.413 208.732 153.618 209.07 153.87C209.387 154.1 209.65 154.397 209.84 154.74C210.039 155.117 210.113 155.548 210.05 155.97C209.97 156.487 209.775 156.979 209.48 157.41Z" fill="url(#paint32_linear_533_25612)"/>
<path d="M213.66 146.94L213.91 144.64L216.91 144.78C216.8 145.69 216.75 146.15 216.64 147.06L213.66 146.94ZM212.46 159.12C212.92 154.9 213.14 152.79 213.6 148.57C214.7 148.57 215.25 148.62 216.34 148.67C215.85 152.87 215.6 154.97 215.11 159.17C214.05 159.14 213.52 159.13 212.46 159.12Z" fill="url(#paint33_linear_533_25612)"/>
<path d="M384 69.94H289.55V212.48H384V69.94Z" fill="#E0E9FF"/>
<path d="M325.95 138.61H319.23V166.9H325.95V138.61Z" fill="#FFB861"/>
<path d="M354.81 124.76H348.09V166.89H354.81V124.76Z" fill="#FF6EA1"/>
<path d="M369.24 105.66H362.52V166.89H369.24V105.66Z" fill="#3FD4C7"/>
<path d="M303.77 136.34C317.93 132.64 343.57 119.2 355.86 106.11" stroke="#333842" stroke-width="0.75" stroke-miterlimit="10" stroke-linecap="round"/>
<path d="M357.58 104.18L356.23 107.89L355.71 106.25L354.02 105.89L357.58 104.18Z" fill="#333842"/>
<path d="M340.38 132.44H333.66V166.89H340.38V132.44Z" fill="#FEFEFF"/>
<path d="M311.51 141.88H304.79V166.89H311.51V141.88Z" fill="#628AEC"/>
<path d="M375.27 166.9H299.22V102.61" stroke="#333842" stroke-width="0.75" stroke-miterlimit="10" stroke-linecap="round"/>
<path d="M376.21 79.96H299.23V84.6H376.21V79.96Z" fill="#FEFEFF"/>
<path d="M359.93 87.46H315.5V92.1H359.93V87.46Z" fill="#FEFEFF"/>
<path d="M376.22 172.84H299.22V177.1H376.22V172.84Z" fill="#FEFEFF"/>
<path d="M376.22 180.66H299.22V184.92H376.22V180.66Z" fill="#FEFEFF"/>
<path d="M376.22 188.47H299.22V192.73H376.22V188.47Z" fill="#FEFEFF"/>
<path d="M333.41 196.91H299.22V201.17H333.41V196.91Z" fill="#FEFEFF"/>
</g>
<defs>
<linearGradient id="paint0_linear_533_25612" x1="49.7898" y1="116.11" x2="244.23" y2="116.11" gradientUnits="userSpaceOnUse">
<stop stop-color="#3C5CA9"/>
<stop offset="1" stop-color="#587FDD"/>
</linearGradient>
<linearGradient id="paint1_linear_533_25612" x1="225.632" y1="2082.53" x2="3657.82" y2="2082.53" gradientUnits="userSpaceOnUse">
<stop stop-color="#3C5CA9"/>
<stop offset="1" stop-color="#587FDD"/>
</linearGradient>
<linearGradient id="paint2_linear_533_25612" x1="642.766" y1="1560.53" x2="2766.58" y2="1560.53" gradientUnits="userSpaceOnUse">
<stop stop-color="#3C5CA9"/>
<stop offset="1" stop-color="#587FDD"/>
</linearGradient>
<linearGradient id="paint3_linear_533_25612" x1="503.381" y1="1805.39" x2="2996.93" y2="1805.39" gradientUnits="userSpaceOnUse">
<stop stop-color="#3C5CA9"/>
<stop offset="1" stop-color="#587FDD"/>
</linearGradient>
<linearGradient id="paint4_linear_533_25612" x1="764.787" y1="1482.33" x2="3070.42" y2="1482.33" gradientUnits="userSpaceOnUse">
<stop stop-color="#3C5CA9"/>
<stop offset="1" stop-color="#587FDD"/>
</linearGradient>
<linearGradient id="paint5_linear_533_25612" x1="1094.98" y1="1583.49" x2="5192.8" y2="1583.49" gradientUnits="userSpaceOnUse">
<stop stop-color="#3C5CA9"/>
<stop offset="1" stop-color="#587FDD"/>
</linearGradient>
<linearGradient id="paint6_linear_533_25612" x1="835.195" y1="1699.5" x2="3714.84" y2="1699.5" gradientUnits="userSpaceOnUse">
<stop stop-color="#3C5CA9"/>
<stop offset="1" stop-color="#587FDD"/>
</linearGradient>
<linearGradient id="paint7_linear_533_25612" x1="294.755" y1="1675.05" x2="1052.23" y2="1675.05" gradientUnits="userSpaceOnUse">
<stop stop-color="#3C5CA9"/>
<stop offset="1" stop-color="#587FDD"/>
</linearGradient>
<linearGradient id="paint8_linear_533_25612" x1="722.365" y1="1299.68" x2="2517.74" y2="1299.68" gradientUnits="userSpaceOnUse">
<stop stop-color="#3C5CA9"/>
<stop offset="1" stop-color="#587FDD"/>
</linearGradient>
<linearGradient id="paint9_linear_533_25612" x1="786.174" y1="1292.8" x2="2930.45" y2="1292.8" gradientUnits="userSpaceOnUse">
<stop stop-color="#3C5CA9"/>
<stop offset="1" stop-color="#587FDD"/>
</linearGradient>
<linearGradient id="paint10_linear_533_25612" x1="248.24" y1="1638.44" x2="1158.96" y2="1638.44" gradientUnits="userSpaceOnUse">
<stop stop-color="#3C5CA9"/>
<stop offset="1" stop-color="#587FDD"/>
</linearGradient>
<linearGradient id="paint11_linear_533_25612" x1="694.677" y1="1268.32" x2="2695.65" y2="1268.32" gradientUnits="userSpaceOnUse">
<stop stop-color="#3C5CA9"/>
<stop offset="1" stop-color="#587FDD"/>
</linearGradient>
<linearGradient id="paint12_linear_533_25612" x1="823.636" y1="2900.59" x2="2806.27" y2="2900.59" gradientUnits="userSpaceOnUse">
<stop stop-color="#3C5CA9"/>
<stop offset="1" stop-color="#587FDD"/>
</linearGradient>
<linearGradient id="paint13_linear_533_25612" x1="834.792" y1="2048.38" x2="3240.47" y2="2048.38" gradientUnits="userSpaceOnUse">
<stop stop-color="#3C5CA9"/>
<stop offset="1" stop-color="#587FDD"/>
</linearGradient>
<linearGradient id="paint14_linear_533_25612" x1="804.165" y1="2077.18" x2="3529.85" y2="2077.18" gradientUnits="userSpaceOnUse">
<stop stop-color="#3C5CA9"/>
<stop offset="1" stop-color="#587FDD"/>
</linearGradient>
<linearGradient id="paint15_linear_533_25612" x1="897.79" y1="2451.04" x2="3239.19" y2="2451.04" gradientUnits="userSpaceOnUse">
<stop stop-color="#3C5CA9"/>
<stop offset="1" stop-color="#587FDD"/>
</linearGradient>
<linearGradient id="paint16_linear_533_25612" x1="1244.38" y1="1938.52" x2="4685.6" y2="1938.52" gradientUnits="userSpaceOnUse">
<stop stop-color="#3C5CA9"/>
<stop offset="1" stop-color="#587FDD"/>
</linearGradient>
<linearGradient id="paint17_linear_533_25612" x1="798.737" y1="1695.91" x2="2808.37" y2="1695.91" gradientUnits="userSpaceOnUse">
<stop stop-color="#3C5CA9"/>
<stop offset="1" stop-color="#587FDD"/>
</linearGradient>
<linearGradient id="paint18_linear_533_25612" x1="946.575" y1="2128.37" x2="3030.61" y2="2128.37" gradientUnits="userSpaceOnUse">
<stop stop-color="#3C5CA9"/>
<stop offset="1" stop-color="#587FDD"/>
</linearGradient>
<linearGradient id="paint19_linear_533_25612" x1="860.28" y1="1580.68" x2="2703.52" y2="1580.68" gradientUnits="userSpaceOnUse">
<stop stop-color="#3C5CA9"/>
<stop offset="1" stop-color="#587FDD"/>
</linearGradient>
<linearGradient id="paint20_linear_533_25612" x1="827.872" y1="2065.35" x2="2784.33" y2="2065.35" gradientUnits="userSpaceOnUse">
<stop stop-color="#3C5CA9"/>
<stop offset="1" stop-color="#587FDD"/>
</linearGradient>
<linearGradient id="paint21_linear_533_25612" x1="1059.13" y1="3557.22" x2="3403.31" y2="3557.22" gradientUnits="userSpaceOnUse">
<stop stop-color="#3C5CA9"/>
<stop offset="1" stop-color="#587FDD"/>
</linearGradient>
<linearGradient id="paint22_linear_533_25612" x1="406.69" y1="3153.52" x2="3490.84" y2="3153.52" gradientUnits="userSpaceOnUse">
<stop stop-color="#3C5CA9"/>
<stop offset="1" stop-color="#587FDD"/>
</linearGradient>
<linearGradient id="paint23_linear_533_25612" x1="983.213" y1="3120.43" x2="4051.54" y2="3120.43" gradientUnits="userSpaceOnUse">
<stop stop-color="#3C5CA9"/>
<stop offset="1" stop-color="#587FDD"/>
</linearGradient>
<linearGradient id="paint24_linear_533_25612" x1="884.369" y1="2460.65" x2="3221.7" y2="2460.65" gradientUnits="userSpaceOnUse">
<stop stop-color="#3C5CA9"/>
<stop offset="1" stop-color="#587FDD"/>
</linearGradient>
<linearGradient id="paint25_linear_533_25612" x1="765.306" y1="2207.24" x2="2214.55" y2="2207.24" gradientUnits="userSpaceOnUse">
<stop stop-color="#3C5CA9"/>
<stop offset="1" stop-color="#587FDD"/>
</linearGradient>
<linearGradient id="paint26_linear_533_25612" x1="622.517" y1="2581.63" x2="2246.29" y2="2581.63" gradientUnits="userSpaceOnUse">
<stop stop-color="#3C5CA9"/>
<stop offset="1" stop-color="#587FDD"/>
</linearGradient>
<linearGradient id="paint27_linear_533_25612" x1="993.094" y1="2125.3" x2="2783.65" y2="2125.3" gradientUnits="userSpaceOnUse">
<stop stop-color="#3C5CA9"/>
<stop offset="1" stop-color="#587FDD"/>
</linearGradient>
<linearGradient id="paint28_linear_533_25612" x1="1352.45" y1="2251.48" x2="4146.79" y2="2251.48" gradientUnits="userSpaceOnUse">
<stop stop-color="#3C5CA9"/>
<stop offset="1" stop-color="#587FDD"/>
</linearGradient>
<linearGradient id="paint29_linear_533_25612" x1="354.727" y1="2536.62" x2="881.422" y2="2536.62" gradientUnits="userSpaceOnUse">
<stop stop-color="#3C5CA9"/>
<stop offset="1" stop-color="#587FDD"/>
</linearGradient>
<linearGradient id="paint30_linear_533_25612" x1="818.073" y1="1916.24" x2="2142.04" y2="1916.24" gradientUnits="userSpaceOnUse">
<stop stop-color="#3C5CA9"/>
<stop offset="1" stop-color="#587FDD"/>
</linearGradient>
<linearGradient id="paint31_linear_533_25612" x1="904.921" y1="1893.88" x2="2488.69" y2="1893.88" gradientUnits="userSpaceOnUse">
<stop stop-color="#3C5CA9"/>
<stop offset="1" stop-color="#587FDD"/>
</linearGradient>
<linearGradient id="paint32_linear_533_25612" x1="806.779" y1="1831.85" x2="2302.2" y2="1831.85" gradientUnits="userSpaceOnUse">
<stop stop-color="#3C5CA9"/>
<stop offset="1" stop-color="#587FDD"/>
</linearGradient>
<linearGradient id="paint33_linear_533_25612" x1="173.433" y1="2351.89" x2="1177.62" y2="2351.89" gradientUnits="userSpaceOnUse">
<stop stop-color="#3C5CA9"/>
<stop offset="1" stop-color="#587FDD"/>
</linearGradient>
<clipPath id="clip0_533_25612">
<rect width="411" height="550" fill="white"/>
</clipPath>
</defs>
</svg>
