<svg width="111" height="74" viewBox="0 0 111 74" fill="none" xmlns="http://www.w3.org/2000/svg">
<path d="M100.344 48.396C104.979 56.6903 98.2721 72.964 55.7354 61.6542C34.4082 55.9836 18.4764 68.7582 15.1948 59.8412C7.54805 39.072 38.776 15.0468 56.1413 31.82C72.0143 47.1517 91.9081 33.3 100.344 48.396Z" stroke="#E4E4E4" stroke-width="4" stroke-miterlimit="10" stroke-dasharray="32.09 32.09"/>
<path d="M100.1 66.6533H13.3687C16.083 46.5993 34.4616 31.0874 56.7326 31.0874C79.0037 31.0874 97.3838 46.5993 100.1 66.6533Z" fill="#F6F5F5"/>
<path d="M88.7943 14.1829H56.1717C54.653 14.1829 53.4219 15.414 53.4219 16.9327V63.7274C53.4219 65.2461 54.653 66.4772 56.1717 66.4772H88.7943C90.3129 66.4772 91.5441 65.2461 91.5441 63.7274V16.9327C91.5441 15.414 90.3129 14.1829 88.7943 14.1829Z" fill="#A9BAE6"/>
<path d="M88.2452 16.2903H56.8677V61.8699H88.2452V16.2903Z" fill="#F6F5F5"/>
<path d="M88.2451 16.2907C88.2547 34.064 88.8286 55.5 86.832 60.2467C78.0386 61.1036 67.7419 61.3785 56.8672 61.4307L61.0008 16.428L88.2451 16.2907Z" fill="#E4E4E4"/>
<path d="M85.4266 58.8097C71.7203 61.0034 62.5606 61.1192 55.1299 60.5676C56.0919 50.3186 56.4789 33.2919 56.8689 16.2926L73.3853 16.3296L88.3333 17.3164C88.549 34.9595 88.5731 51.2569 85.4266 58.8097Z" fill="white"/>
<path d="M80.583 20.885L64.0767 20.496L64.0174 23.0102L80.5237 23.3992L80.583 20.885Z" fill="#708CD5"/>
<path d="M83.7652 27.0377L68.8765 26.6868L68.8493 27.8376L83.7381 28.1885L83.7652 27.0377Z" fill="#708CD5"/>
<path d="M78.9369 29.4345L68.8169 29.196L68.7898 30.3467L78.9098 30.5852L78.9369 29.4345Z" fill="#D3DFFF"/>
<path d="M64.1849 26.6439L60.6602 26.5608L60.5771 30.0855L64.1019 30.1686L64.1849 26.6439Z" fill="white" stroke="#708CD5" stroke-width="6" stroke-miterlimit="10"/>
<path d="M61.235 27.4862C61.3438 27.9028 61.5447 29.6481 62.419 29.1601C62.6206 29.0491 62.7912 28.7501 62.9422 28.5788L63.7562 27.656L65.382 25.8097C65.5211 25.6521 64.9076 25.2566 64.7334 25.4545L63.2881 27.0955L62.5655 27.9162C62.3983 28.106 62.0105 28.7179 61.7637 28.7723L62.1681 28.9029C62.2636 28.981 62.0863 28.4268 62.0823 28.4116C62.0154 28.1543 61.9482 27.8969 61.8806 27.6394C61.8251 27.427 61.1543 27.1713 61.2365 27.4862H61.235Z" fill="#EE6F57"/>
<path d="M80.9861 33.3837L68.7256 33.0947L68.6985 34.2455L80.959 34.5344L80.9861 33.3837Z" fill="#708CD5"/>
<path d="M83.7053 35.6672L68.8125 35.3694L68.7895 36.5205L83.6823 36.8183L83.7053 35.6672Z" fill="#D3DFFF"/>
<path d="M64.0335 33.0521L60.5088 32.9691L60.4257 36.4938L63.9505 36.5769L64.0335 33.0521Z" fill="white" stroke="#708CD5" stroke-width="6" stroke-miterlimit="10"/>
<path d="M61.0821 33.9938C61.1909 34.4104 61.3918 36.1557 62.2661 35.6676C62.4678 35.5566 62.6384 35.2577 62.7893 35.0864L63.6033 34.1632L65.2291 32.3173C65.3682 32.1597 64.7548 31.7623 64.5805 31.9621L63.1353 33.603L62.4127 34.4233C62.2454 34.6131 61.8577 35.2255 61.6109 35.2799L62.0153 35.4105C62.1107 35.4886 61.9335 34.9343 61.9298 34.9191C61.8625 34.6619 61.7953 34.4045 61.7282 34.1469C61.6723 33.9346 61.0015 33.6789 61.0836 33.9938H61.0821Z" fill="#EE6F57"/>
<path d="M83.463 39.8539L68.5742 39.503L68.5471 40.6537L83.4359 41.0046L83.463 39.8539Z" fill="#708CD5"/>
<path d="M75.1737 42.1691L68.5151 42.0121L68.488 43.1629L75.1466 43.3198L75.1737 42.1691Z" fill="#D3DFFF"/>
<path d="M63.8827 39.46L60.3579 39.377L60.2748 42.9017L63.7996 42.9848L63.8827 39.46Z" fill="white" stroke="#708CD5" stroke-width="6" stroke-miterlimit="10"/>
<path d="M60.9792 40.4473C61.088 40.8639 61.2889 42.6092 62.1632 42.1211C62.3648 42.0101 62.5354 41.7112 62.686 41.5399L63.5 40.6171L65.1258 38.7708C65.2649 38.6132 64.6515 38.2176 64.4772 38.4156L63.0316 40.0565L62.3079 40.8772C62.1406 41.067 61.7529 41.679 61.5061 41.7334L61.9109 41.864C62.0059 41.942 61.8291 41.3878 61.825 41.3726C61.7582 41.1156 61.6909 40.8582 61.6234 40.6004C61.5679 40.3881 60.8967 40.1324 60.9792 40.4473Z" fill="#EE6F57"/>
<path d="M83.4988 45.978L68.606 45.6801L68.5829 46.8312L83.4758 47.129L83.4988 45.978Z" fill="#708CD5"/>
<path d="M80.1259 48.6972L68.3643 48.42L68.3371 49.5707L80.0987 49.8479L80.1259 48.6972Z" fill="#D3DFFF"/>
<path d="M63.7318 45.8679L60.207 45.7848L60.124 49.3095L63.6487 49.3926L63.7318 45.8679Z" fill="white" stroke="#708CD5" stroke-width="6" stroke-miterlimit="10"/>
<path d="M60.8279 46.8135C60.9367 47.2301 61.1376 48.9751 62.0119 48.487C62.2136 48.376 62.3841 48.0771 62.5347 47.9061L63.3487 46.9811L64.9745 45.1352C65.1136 44.9776 64.5002 44.5802 64.3259 44.78L62.8803 46.421L62.1599 47.2431C61.9927 47.4329 61.6049 48.0453 61.3581 48.0993L61.7629 48.2299C61.8584 48.3083 61.6811 47.7541 61.6771 47.7389C61.61 47.4814 61.5428 47.224 61.4754 46.9667C61.4199 46.754 60.7487 46.4983 60.8312 46.8135H60.8279Z" fill="#EE6F57"/>
<path d="M74.1751 52.4095L68.2734 52.2704L68.2463 53.4211L74.148 53.5602L74.1751 52.4095Z" fill="#708CD5"/>
<path d="M83.1048 55.13L68.216 54.7796L68.189 55.9303C73.9491 56.0654 81.2836 56.3351 82.7803 56.1057C83.0075 55.8456 83.1299 55.5285 83.1048 55.13Z" fill="#D3DFFF"/>
<path d="M63.6312 52.2289L60.1064 52.1458L60.0234 55.6706L63.5482 55.7536L63.6312 52.2289Z" fill="white" stroke="#708CD5" stroke-width="6" stroke-miterlimit="10"/>
<path d="M60.6798 53.1239C60.7908 53.5405 60.9898 55.2854 61.8638 54.7974C62.0651 54.6864 62.236 54.3874 62.3866 54.2165L63.2006 53.2915L64.8286 51.4456C64.9674 51.2876 64.3543 50.8906 64.1796 51.09L62.7344 52.7309L62.0118 53.5516C61.8445 53.7414 61.4568 54.3534 61.21 54.4078L61.6148 54.5384C61.7099 54.6168 61.533 54.0622 61.5289 54.0474C61.4616 53.7899 61.3944 53.5325 61.3273 53.2752C61.2718 53.0624 60.6006 52.8068 60.6827 53.122L60.6798 53.1239Z" fill="#EE6F57"/>
<path d="M79.5501 14.4996V18.019H65.416V14.4996C65.4157 14.2324 65.4681 13.9679 65.5702 13.721C65.6723 13.4741 65.8221 13.2499 66.011 13.061C66.0563 13.0154 66.1043 12.9724 66.1545 12.9322C66.5182 12.6298 66.9766 12.4648 67.4495 12.466C67.8093 12.4662 68.1644 12.3853 68.4885 12.2292C68.6257 12.1629 68.7565 12.0842 68.8792 11.9939C69.2921 11.6885 69.5956 11.2583 69.745 10.767C69.895 10.2746 70.1991 9.84344 70.6127 9.53701C71.0262 9.23058 71.5273 9.06512 72.042 9.065H72.9241C73.4388 9.06512 73.9398 9.23058 74.3534 9.53701C74.7669 9.84344 75.0711 10.2746 75.221 10.767C75.3703 11.2596 75.6744 11.6909 76.0883 11.9969C76.2111 12.0871 76.3419 12.1659 76.479 12.2322C76.8032 12.3882 77.1583 12.4692 77.518 12.469C78.0564 12.4698 78.5726 12.6839 78.9535 13.0645C79.3344 13.4451 79.5489 13.9611 79.5501 14.4996Z" fill="#EE6F57"/>
<path d="M80.697 16.2903V18.9055H64.269V16.2903H65.416V18.0175H79.55V16.2903H80.697Z" fill="#E4E4E4"/>
<path d="M72.4835 12.3636C73.1759 12.3636 73.7371 11.8302 73.7371 11.1722C73.7371 10.5142 73.1759 9.98077 72.4835 9.98077C71.7912 9.98077 71.23 10.5142 71.23 11.1722C71.23 11.8302 71.7912 12.3636 72.4835 12.3636Z" fill="white"/>
<path d="M45.396 27.6423C44.8947 27.5476 44.4263 26.7099 44.2635 26.3888C44.2233 26.3102 44.2103 26.2206 44.2265 26.1338L44.4263 25.0764C44.4263 25.0764 44.8866 25.1544 44.851 25.7675C44.8484 25.8314 44.8593 25.895 44.8829 25.9544L45.0593 26.4154L45.5803 26.0121L45.2947 25.2051C45.2947 25.2051 44.9121 25.3102 44.7145 25.2473C44.3075 25.1178 44.8407 24.8033 45.0105 24.7663C45.1803 24.7293 45.5485 24.5983 45.7165 24.884C45.8844 25.1696 45.9855 25.338 45.9855 25.338C45.9855 25.338 46.1705 24.699 46.0443 23.2704C46.0387 23.206 46.1997 23.2075 46.2448 23.2538C46.3802 23.3914 46.596 23.8106 46.6074 25.0856C46.6074 25.0856 46.63 23.5997 46.8846 23.4469C47.0947 23.3207 47.2009 24.0481 47.0529 25.2814C47.0529 25.2814 47.3271 24.2135 47.5236 24.2117C47.8547 24.2084 47.5276 27.0636 46.6951 27.9146L45.396 27.6423Z" fill="#F9B384"/>
<path d="M46.968 27.2054C46.9532 27.3475 46.9369 27.4851 46.9191 27.6183C46.8685 28.0412 46.7954 28.4611 46.7001 28.8763C46.6957 28.8941 46.6927 28.9103 46.6883 28.9266C46.4352 29.9626 46.3893 30.4717 45.525 30.3356L44.637 29.3233L44.6281 29.3129L44.563 29.2389L44.7435 28.7061L44.7672 28.6365L44.9004 28.2488L44.9167 28.1985L45.1446 27.5325L45.2364 27.2616L46.968 27.2054Z" fill="#F9B384"/>
<path d="M30.4431 64.067L30.2167 64.7748C28.6627 65.2847 27.7588 65.8689 27.7007 66.5508H32.1899L32.5499 64.1828C31.6408 64.4033 30.9119 64.2491 30.4431 64.067Z" fill="#1F3C88"/>
<path d="M31.0061 62.308L30.4434 64.067C30.9121 64.249 31.641 64.4033 32.5501 64.1813L32.7821 62.6532L31.0061 62.308Z" fill="#F9B384"/>
<path d="M38.6812 63.9886L38.813 62.197L36.7039 62.308L36.5889 63.9597C37.4809 64.2442 38.2209 64.1329 38.6812 63.9886Z" fill="#F9B384"/>
<path d="M41.2182 66.5508C41.1601 65.8689 40.3672 64.935 38.6282 64.713L38.6815 63.9885C38.2201 64.1328 37.4819 64.2442 36.5891 63.9597L36.4082 66.5497L41.2182 66.5508Z" fill="#1F3C88"/>
<path d="M36.9718 28.1022L34.4277 28.12V24.272H36.8949L36.8964 24.5073L36.9082 25.7268L36.926 27.6849L36.9718 28.1022Z" fill="#F9B384"/>
<path d="M36.9083 25.9118C36.4509 26.3928 35.2581 25.8497 34.7549 25.3199L36.8964 24.6909L36.9083 25.9118Z" fill="#E28B6D"/>
<path d="M37.4986 23.384C37.4992 23.6739 37.477 23.9634 37.432 24.2498C37.3077 25.0268 36.9791 25.6957 36.2214 25.7165C34.4306 25.7683 33.92 24.7441 33.5825 23.9064C33.2451 23.0687 33.7927 21.05 33.7927 21.05L36.1104 20.8206L37.3832 21.864C37.4623 22.3668 37.5009 22.8751 37.4986 23.384Z" fill="#F9B384"/>
<path d="M33.6548 23.4265C33.6548 23.4265 34.1658 23.4032 34.2531 22.0845C35.1666 22.3902 35.8345 22.1115 36.3621 21.5029C36.8135 22.099 38.077 22.2858 38.5037 21.0652C38.813 20.1835 37.962 18.87 36.7225 19.6655C35.5078 19.0516 33.6652 19.0938 33.1335 20.5994C33.1335 20.5994 31.2905 21.4504 33.2423 23.3203C33.2826 23.3577 33.6548 23.4265 33.6548 23.4265Z" fill="#102048"/>
<path d="M40.7004 41.9321L39.294 63.196H35.9888L36.815 42.5622L37.3208 42.328L40.7004 41.9321Z" fill="#102048"/>
<path d="M32.0917 39.0228L29.7729 63.196H33.3742L36.8029 43.1172L40.7001 41.9332L40.8729 37.6412L32.1902 37.444L32.0917 39.0228Z" fill="#1F3C88"/>
<path opacity="0.6" d="M32.6084 39.0753C34.5754 39.7817 39.1904 38.9747 40.1487 37.9909L39.4679 36.63L31.877 37.6386L32.6084 39.0753Z" fill="#102048"/>
<path d="M39.9716 37.663C39.908 37.6896 39.8429 37.7178 39.7763 37.7429C38.9799 38.0664 38.1542 38.3122 37.3106 38.477C36.7653 38.5851 36.2127 38.6529 35.6574 38.6798C34.7866 38.7286 33.9132 38.6578 33.0615 38.4696L34.1641 28.1895L34.2988 26.936C34.2988 26.936 35.7418 28.712 37.3328 26.751L39.9716 37.663Z" fill="white"/>
<path opacity="0.3" d="M35.6574 38.6798C34.7866 38.7286 33.9132 38.6578 33.0615 38.4696L34.1641 28.1895L34.5578 27.6205C35.5302 29.9855 36.5262 35.224 35.6574 38.6798Z" fill="#1F3C88"/>
<path d="M34.4287 26.529C35.525 31.1836 35.9761 35.9733 34.361 41.292C33.1633 41.7475 31.8591 41.7423 30.4638 41.3412L30.809 31.672L22.6812 37.259L22.188 34.2128C25.3123 31.2254 30.7143 26.714 34.4287 26.529Z" fill="#708CD5"/>
<path opacity="0.3" d="M39.7748 37.743C38.9784 38.0664 38.1527 38.3122 37.3091 38.4771C36.8207 35.668 36.7127 31.0534 37.1108 28.971L39.7748 37.743Z" fill="#1F3C88"/>
<path opacity="0.6" d="M46.6999 28.8793C46.6955 28.897 46.6925 28.9133 46.6881 28.9296C46.435 29.9656 46.3891 30.4747 45.5248 30.3385L44.6368 29.3262L44.6279 29.3159L44.7434 28.7091L44.767 28.6395L44.9002 28.2517L44.9165 28.2014L46.6999 28.8793Z" fill="#E28B6D"/>
<path d="M46.5462 29.822C46.5462 29.822 44.3632 34.447 43.0682 34.558C41.8128 34.6657 41.2182 33.448 41.2182 33.448L42.1062 40.2072C41.0628 40.6956 39.9232 40.9338 38.603 40.7C37.4294 36.889 36.9858 31.9614 36.8984 26.4735C37.8486 26.5327 39.7304 26.6137 40.4042 27.047C41.613 27.824 43.1052 30.599 43.1052 30.599L44.8442 28.231L46.5462 29.822Z" fill="#708CD5"/>
<path d="M19.9336 23.3052C19.9336 23.3052 20.0657 21.093 20.291 21.1962C20.5163 21.2994 20.9677 23.2245 20.9677 23.2245L20.4849 24.0038L19.9336 23.3052Z" fill="#6F3428"/>
<path d="M26.577 63.2578L26.6425 63.986C26.6979 64.6033 26.5058 65.2173 26.1085 65.693C25.7112 66.1688 25.1412 66.4672 24.5239 66.5227L24.3367 66.5393C24.0311 66.5668 23.723 66.5338 23.4302 66.4422C23.1373 66.3506 22.8653 66.2022 22.6298 66.0055C22.3943 65.8088 22.1998 65.5677 22.0575 65.2958C21.9152 65.024 21.8278 64.7267 21.8004 64.4211L21.7349 63.6929L26.577 63.2578Z" fill="#EE6F57"/>
<path d="M23.4073 28.0002L18.5649 28.4349L21.7304 63.6947L26.5727 63.26L23.4073 28.0002Z" fill="#FBC343"/>
<path opacity="0.3" d="M21.7824 27.4329L20.0625 27.5873L22.8371 58.4938L24.557 58.3394L21.7824 27.4329Z" stroke="#6F3428" stroke-width="8" stroke-miterlimit="10"/>
<path d="M26.5766 63.2582L21.7355 63.6933L21.6082 62.2725L21.5194 61.2853L21.2456 58.2513L26.0882 57.8162L26.3605 60.8502L26.4493 61.8374L26.5766 63.2582Z" fill="#102048"/>
<path d="M26.3646 60.8482L21.5234 61.2836L21.6122 62.2708L26.4534 61.8354L26.3646 60.8482Z" fill="#FBC343"/>
<path d="M18.5664 28.4334L19.9117 23.0425C19.9117 23.0425 20.3757 23.2486 20.9388 22.9008L23.4093 27.9982L18.5664 28.4334Z" fill="#EE6F57"/>
<path d="M33.9228 23.2035C33.9013 23.1239 33.5399 23.0148 33.4603 22.9929C33.3371 22.9589 33.2013 22.9419 33.0829 22.9963C32.6459 23.1938 32.7044 23.8195 32.9308 24.1484C33.0583 24.3369 33.2471 24.4755 33.4651 24.5406C33.5447 24.5632 34.2961 24.5725 34.2632 24.4515L33.9228 23.2035Z" fill="#F9B384"/>
<path d="M20.165 35.779C20.1397 35.6944 20.0976 35.6158 20.0412 35.5479C19.9848 35.4799 19.9153 35.424 19.8369 35.3835C19.7584 35.3429 19.6726 35.3186 19.5846 35.3119C19.4965 35.3053 19.4081 35.3164 19.3244 35.3446C18.7735 35.5348 18.2936 35.8575 18.2192 36.4065C18.1515 36.9064 18.4016 38.503 19.5183 38.7083L19.4273 37.888C19.4273 37.888 20.111 37.7285 20.2476 37.4322C20.3434 37.2246 20.35 36.3584 20.165 35.779Z" fill="#F9B384"/>
<path d="M40.8767 30.2875C40.9355 30.6368 40.9854 30.9871 41.0332 31.3379C41.0809 31.6887 41.1223 32.0409 41.1675 32.3913L41.2822 33.4465C41.3155 33.7991 41.3484 34.1495 41.3699 34.5055L41.3125 34.5121C41.2519 34.1629 41.2015 33.8125 41.1538 33.4617L41.0217 32.4083C40.9847 32.0561 40.9418 31.7053 40.9107 31.3523C40.8796 30.9994 40.8441 30.6475 40.8208 30.2941L40.8767 30.2875Z" fill="#1F3C88"/>
<path d="M30.924 30.229C30.924 30.6212 30.9136 31.0134 30.9022 31.4052C30.8907 31.7971 30.8722 32.19 30.8581 32.5818L30.7941 33.7562C30.7679 34.1477 30.7408 34.5388 30.7027 34.9295L30.645 34.9265C30.645 34.534 30.6543 34.1421 30.665 33.7503L30.7101 32.5752C30.7327 32.1837 30.7494 31.7919 30.7767 31.4008C30.8041 31.0097 30.8293 30.6183 30.8655 30.2275L30.924 30.229Z" fill="#1F3C88"/>
<path d="M35.7193 23.1668C35.7504 23.3063 35.693 23.438 35.5909 23.4628C35.4888 23.4876 35.3803 23.391 35.3493 23.2515C35.3182 23.1121 35.3755 22.9803 35.4777 22.9555C35.5798 22.9308 35.6878 23.0273 35.7193 23.1668Z" fill="#102048"/>
<path d="M37.1942 22.9944C37.1879 23.1372 37.0984 23.2493 36.9937 23.2449C36.889 23.2404 36.8087 23.1213 36.8153 22.9781C36.822 22.8349 36.9112 22.7232 37.0155 22.7276C37.1198 22.732 37.2001 22.8512 37.1942 22.9944Z" fill="#102048"/>
<path d="M36.3709 23.1113C36.4215 23.2338 36.4134 23.3655 36.4449 23.4658C36.4576 23.5124 36.4822 23.5548 36.5163 23.589C36.5585 23.6193 36.6055 23.6423 36.6554 23.6571C36.7253 23.6833 36.7862 23.7292 36.8308 23.7892C36.8561 23.8239 36.8711 23.865 36.8743 23.9078C36.8774 23.9506 36.8685 23.9935 36.8485 24.0315C36.8124 24.0914 36.7629 24.1421 36.7039 24.1795C36.6532 24.2139 36.6043 24.2502 36.5514 24.2824L36.5144 24.2387C36.5533 24.191 36.5958 24.1473 36.6365 24.1018C36.6757 24.0663 36.7082 24.0241 36.7324 23.9771C36.7634 23.9087 36.6954 23.8336 36.5992 23.7951C36.5492 23.7721 36.477 23.7522 36.419 23.6926C36.3678 23.6387 36.3346 23.5704 36.3239 23.4969C36.2994 23.36 36.3276 23.2427 36.3142 23.1269L36.3709 23.1113Z" fill="#E28B6D"/>
<path d="M35.0127 22.792C35.0365 22.7007 35.0897 22.6197 35.164 22.5615C35.2404 22.5002 35.3344 22.4649 35.4323 22.4608C35.527 22.4554 35.6213 22.4772 35.704 22.5237C35.7866 22.5702 35.8543 22.6394 35.8988 22.7232L35.8537 22.7602C35.7379 22.6622 35.591 22.6087 35.4393 22.6092C35.3651 22.6129 35.2928 22.6335 35.2279 22.6697C35.1631 22.7058 35.1074 22.7564 35.0652 22.8175L35.0127 22.792Z" fill="#102048"/>
<path d="M36.5405 22.6107C36.563 22.5396 36.6029 22.4754 36.6567 22.4238C36.7143 22.3683 36.7878 22.3319 36.8669 22.3199C37.0256 22.2936 37.1965 22.3746 37.2591 22.5156L37.2128 22.5504C37.1189 22.483 37.0033 22.4528 36.8883 22.4656C36.8337 22.4739 36.7812 22.493 36.734 22.5219C36.6827 22.5569 36.6346 22.5965 36.5905 22.6403L36.5405 22.6107Z" fill="#102048"/>
<path d="M35.7217 24.5447C35.9807 24.9491 36.3244 24.9931 36.5905 24.5676L35.7217 24.5447Z" fill="white"/>
<path opacity="0.4" d="M37.5059 23.2852C37.5041 23.6081 37.4793 23.9304 37.4319 24.2498C37.3418 24.2211 37.2633 24.1645 37.2076 24.0881C37.152 24.0117 37.1222 23.9195 37.1226 23.825C37.1229 23.6016 37.2961 23.3193 37.5059 23.2852Z" fill="#FC8879"/>
<path opacity="0.4" d="M35.0906 24.5669C35.3542 24.5669 35.5679 24.3532 35.5679 24.0896C35.5679 23.826 35.3542 23.6123 35.0906 23.6123C34.827 23.6123 34.6133 23.826 34.6133 24.0896C34.6133 24.3532 34.827 24.5669 35.0906 24.5669Z" fill="#FC8879"/>
<path d="M33.6098 23.68C33.5248 23.6157 33.4357 23.557 33.3431 23.5042C33.3071 23.4841 33.2666 23.4736 33.2254 23.4739C33.1801 23.4816 33.1376 23.501 33.1022 23.5301L33.0537 23.499C33.0637 23.4646 33.0816 23.433 33.106 23.4067C33.1305 23.3804 33.1607 23.3602 33.1943 23.3477C33.2298 23.3372 33.267 23.3339 33.3038 23.3382C33.3406 23.3424 33.3761 23.3541 33.4082 23.3725C33.5195 23.4325 33.6069 23.5287 33.6561 23.6452L33.6098 23.68Z" fill="#E28B6D"/>
<path opacity="0.6" d="M20.2477 37.4318L19.561 39.5189L19.4189 37.888C19.8459 37.7951 20.079 37.6242 20.2477 37.4318Z" fill="#6F3428"/>
<path d="M8.89551 66.5641H104.573" stroke="#102048" stroke-width="8" stroke-miterlimit="10"/>
</svg>
