<svg width="368" height="368" viewBox="0 0 368 368" fill="none" xmlns="http://www.w3.org/2000/svg">
<path d="M198.81 267.119C207.073 258.735 214.8 249.839 221.945 240.484C221.945 240.484 215.607 178.979 208.623 155.689C208.623 155.689 132.619 195.13 114.71 202.964C110.784 204.682 109.582 186.609 109.582 186.609C108.334 182.359 107.477 178.004 107.023 173.598C105.019 153.554 92.3027 142.759 83.1599 148.1C75.3747 152.655 77.967 157.561 81.9741 174.604C85.9812 191.646 77.967 223.67 86.9789 238.734C95.9908 253.797 90.25 270.063 80.7802 278.764C67.753 290.785 127.066 325.925 144.109 303.878C150.357 295.79 158.134 293.852 174.17 286.836C179.674 284.431 191.491 274.054 198.81 267.135V267.119Z" fill="#F5C8A1"/>
<path d="M208.918 135.678C208.918 135.678 132.913 180.246 115.004 189.095C111.079 191.033 109.876 170.597 109.876 170.597C108.624 165.768 107.768 160.845 107.317 155.877C106.877 150.208 105.538 144.646 103.351 139.398V249.185C103.351 261.574 111.438 269.237 124.228 269.237H159.695C166.638 269.237 155.672 280.163 142.874 280.58C125.7 281.136 107.529 301.089 107.529 301.089C121.612 310.011 137.035 313.879 144.395 303.109C150.651 293.967 158.428 291.783 174.465 283.859C179.968 281.136 191.785 269.409 199.096 261.591C207.417 252.041 215.146 241.991 222.239 231.497C222.239 231.497 215.893 161.985 208.918 135.678Z" fill="#EAB68F"/>
<path d="M106.589 59.0436V250.15C106.589 256.463 111.12 261.599 116.713 261.599H199.088C204.682 261.599 209.22 256.471 209.22 250.15V59.0436C209.22 52.7221 204.682 47.5947 199.088 47.5947H116.713C111.12 47.6028 106.589 52.7221 106.589 59.0436Z" fill="#043B72"/>
<path d="M204.15 71.253H111.651V237.941H204.15V71.253Z" fill="white"/>
<path d="M228.005 221.503C228.954 222.657 229.667 223.986 230.103 225.415C230.539 226.844 230.689 228.344 230.544 229.831C230.4 231.318 229.964 232.762 229.262 234.08C228.56 235.399 227.604 236.566 226.451 237.515L218.78 243.469C216.45 245.387 213.453 246.3 210.448 246.009C207.444 245.718 204.679 244.245 202.76 241.915C201.811 240.762 201.098 239.433 200.662 238.004C200.226 236.575 200.076 235.074 200.221 233.587C200.365 232.1 200.801 230.656 201.503 229.338C202.205 228.019 203.16 226.852 204.314 225.903L211.993 219.95C213.146 219 214.475 218.287 215.904 217.852C217.333 217.416 218.834 217.266 220.321 217.41C221.807 217.554 223.251 217.99 224.57 218.692C225.888 219.395 227.056 220.35 228.005 221.503Z" fill="#F5C8A1"/>
<path d="M227.481 196.52C229.4 198.849 230.314 201.843 230.025 204.846C229.735 207.849 228.264 210.614 225.936 212.532L218.257 218.486C217.103 219.435 215.774 220.148 214.345 220.584C212.917 221.019 211.416 221.169 209.929 221.025C208.442 220.881 206.998 220.445 205.68 219.743C204.361 219.04 203.194 218.085 202.245 216.932C201.294 215.779 200.58 214.451 200.143 213.022C199.706 211.593 199.555 210.093 199.698 208.605C199.842 207.118 200.277 205.674 200.979 204.355C201.681 203.037 202.637 201.869 203.79 200.92L211.469 194.966C212.622 194.016 213.951 193.302 215.38 192.866C216.809 192.43 218.31 192.279 219.797 192.424C221.285 192.568 222.729 193.004 224.047 193.707C225.366 194.41 226.533 195.366 227.481 196.52Z" fill="#F5C8A1"/>
<path d="M226.443 170.49C227.392 171.644 228.105 172.973 228.541 174.402C228.976 175.831 229.126 177.331 228.982 178.818C228.838 180.305 228.402 181.749 227.7 183.067C226.998 184.386 226.042 185.553 224.889 186.502L217.218 192.456C216.065 193.405 214.736 194.118 213.307 194.554C211.878 194.989 210.377 195.139 208.89 194.995C207.404 194.851 205.96 194.415 204.641 193.713C203.323 193.011 202.155 192.055 201.206 190.902C200.255 189.75 199.541 188.421 199.104 186.992C198.667 185.564 198.516 184.063 198.66 182.576C198.803 181.088 199.238 179.644 199.941 178.325C200.643 177.007 201.598 175.839 202.752 174.89L210.431 168.937C211.584 167.987 212.913 167.274 214.342 166.839C215.771 166.403 217.272 166.253 218.759 166.397C220.245 166.541 221.689 166.977 223.008 167.679C224.326 168.382 225.493 169.337 226.443 170.49Z" fill="#F5C8A1"/>
<path d="M225.396 143.929C226.347 145.081 227.061 146.41 227.498 147.839C227.935 149.267 228.086 150.768 227.943 152.255C227.799 153.742 227.364 155.187 226.662 156.506C225.959 157.824 225.004 158.992 223.851 159.941L216.172 165.894C215.021 166.847 213.693 167.563 212.266 168.002C210.838 168.441 209.337 168.594 207.85 168.453C206.363 168.311 204.919 167.878 203.599 167.178C202.279 166.478 201.11 165.525 200.159 164.373C199.21 163.22 198.497 161.891 198.061 160.462C197.626 159.033 197.476 157.532 197.62 156.045C197.764 154.559 198.2 153.115 198.902 151.796C199.605 150.478 200.56 149.311 201.713 148.361L209.384 142.408C210.535 141.456 211.862 140.739 213.29 140.301C214.718 139.862 216.218 139.708 217.705 139.85C219.192 139.991 220.637 140.424 221.957 141.124C223.276 141.824 224.445 142.777 225.396 143.929Z" fill="#F5C8A1"/>
<path d="M88.5573 267.912C84.6565 280.179 130.264 312.506 143.7 304.778C141.836 308.866 133.699 320.225 132.022 322.679C121.669 335.485 68.4727 297.14 75.8245 285.65C77.2883 283.352 83.2091 274.544 88.5573 267.912Z" fill="#3C5CA9"/>
<path d="M124.245 301.964C132.226 305.612 139.537 307.174 143.7 304.778C141.835 308.866 133.698 320.225 132.022 322.679C128.211 327.389 118.602 325.181 108.347 319.931L124.245 301.964Z" fill="#2B4570"/>
<path d="M162.795 191.074C171.756 191.074 179.02 183.81 179.02 174.849C179.02 165.888 171.756 158.624 162.795 158.624C153.834 158.624 146.57 165.888 146.57 174.849C146.57 183.81 153.834 191.074 162.795 191.074Z" fill="#AED3FF"/>
<path d="M258.361 227.342C258.975 228.367 259.785 229.261 260.744 229.972C261.704 230.684 262.794 231.2 263.953 231.49C265.112 231.78 266.317 231.839 267.498 231.663C268.68 231.488 269.815 231.081 270.84 230.466C271.865 229.851 272.759 229.041 273.471 228.08C274.182 227.12 274.697 226.028 274.987 224.868C275.276 223.709 275.334 222.503 275.157 221.321C274.98 220.139 274.572 219.003 273.956 217.979L261.828 197.755C260.588 195.688 258.578 194.197 256.239 193.611C253.901 193.026 251.425 193.392 249.357 194.631C248.332 195.245 247.438 196.055 246.727 197.015C246.015 197.974 245.499 199.065 245.209 200.223C244.919 201.382 244.86 202.587 245.036 203.769C245.211 204.95 245.618 206.086 246.233 207.11L258.361 227.342Z" fill="#F5C8A1"/>
<path d="M204.649 260.757C203.412 258.687 203.046 256.211 203.632 253.871C204.217 251.532 205.706 249.52 207.773 248.277L262.065 215.713C263.089 215.099 264.225 214.692 265.407 214.516C266.588 214.341 267.793 214.4 268.952 214.69C270.111 214.98 271.201 215.495 272.161 216.207C273.12 216.919 273.93 217.813 274.544 218.837L291.947 247.868C292.561 248.893 292.968 250.028 293.144 251.21C293.319 252.392 293.26 253.596 292.97 254.755C292.68 255.914 292.164 257.005 291.453 257.964C290.741 258.924 289.847 259.734 288.823 260.348L234.539 292.903C233.514 293.518 232.379 293.925 231.197 294.101C230.015 294.276 228.811 294.217 227.652 293.927C226.493 293.637 225.402 293.121 224.443 292.41C223.483 291.698 222.673 290.804 222.059 289.78L204.649 260.757Z" fill="#F5C8A1"/>
<path d="M239.609 236.984C240.852 239.05 242.864 240.539 245.204 241.124C247.544 241.708 250.02 241.339 252.088 240.1C253.113 239.486 254.007 238.676 254.719 237.716C255.43 236.756 255.946 235.666 256.236 234.507C256.526 233.348 256.585 232.144 256.409 230.962C256.234 229.78 255.827 228.645 255.212 227.62L237.638 198.327C237.024 197.303 236.214 196.409 235.255 195.697C234.295 194.986 233.205 194.47 232.046 194.18C230.887 193.89 229.682 193.831 228.5 194.006C227.319 194.182 226.183 194.589 225.159 195.204C224.128 195.816 223.228 196.626 222.511 197.587C221.794 198.548 221.274 199.642 220.981 200.805C220.689 201.967 220.629 203.177 220.806 204.363C220.982 205.549 221.392 206.688 222.01 207.716L239.609 236.984Z" fill="#F5C8A1"/>
<path d="M221.667 248.057C222.281 249.081 223.091 249.975 224.05 250.687C225.01 251.398 226.1 251.914 227.259 252.204C228.418 252.494 229.623 252.553 230.804 252.378C231.986 252.202 233.122 251.795 234.146 251.18C236.213 249.938 237.701 247.925 238.286 245.585C238.87 243.246 238.502 240.77 237.262 238.701L213.391 198.9C212.777 197.875 211.967 196.981 211.007 196.27C210.048 195.558 208.957 195.042 207.798 194.752C206.64 194.462 205.435 194.403 204.253 194.579C203.071 194.755 201.936 195.161 200.912 195.776C199.887 196.39 198.993 197.2 198.281 198.16C197.57 199.119 197.054 200.209 196.764 201.368C196.474 202.527 196.415 203.732 196.591 204.914C196.766 206.095 197.173 207.231 197.788 208.255L221.667 248.057Z" fill="#F5C8A1"/>
<path d="M210.169 269.867C210.783 270.891 211.593 271.785 212.552 272.497C213.512 273.209 214.602 273.724 215.761 274.014C216.92 274.304 218.125 274.363 219.306 274.188C220.488 274.012 221.624 273.605 222.648 272.991C223.673 272.377 224.567 271.567 225.278 270.607C225.99 269.647 226.506 268.557 226.796 267.398C227.086 266.239 227.145 265.035 226.969 263.853C226.793 262.671 226.387 261.536 225.772 260.511L170.547 168.92C169.933 167.895 169.123 167.002 168.164 166.29C167.204 165.578 166.114 165.063 164.955 164.773C163.796 164.482 162.591 164.424 161.41 164.599C160.228 164.775 159.093 165.182 158.068 165.796C156.006 167.043 154.522 169.057 153.941 171.396C153.36 173.735 153.73 176.209 154.969 178.276L210.169 269.867Z" fill="#F5C8A1"/>
<path d="M197.559 277.742C196.242 258.81 200.069 253.094 200.069 253.094L213.89 275.902L276.221 221.618L292.904 249.422C313.021 282.951 294.425 294.948 307.174 316.21C312.8 325.598 269.27 355.104 261.272 344.595C250.641 326.882 227.743 329.196 207.511 305.767C198.287 295.095 198.213 287.089 197.559 277.742Z" fill="#F5C8A1"/>
<path d="M222.82 289.027L200.07 253.094C199.353 254.349 198.915 255.744 198.786 257.183C207.593 269.499 222.82 289.027 222.82 289.027Z" fill="#EAB68F"/>
<path d="M268.714 333.76C263.3 324.764 250.722 322.981 233.549 317.682C206.906 309.439 199.808 292.871 199.808 292.871C202.179 299.765 204.183 301.417 207.503 305.783C226.255 330.415 250.641 326.898 261.264 344.612C263.717 347.785 269.36 347.294 275.943 344.808C273.677 341.512 271.273 337.857 268.714 333.76Z" fill="#EAB68F"/>
<path d="M298.194 259.718C303.69 283.973 291.415 297.638 305.554 323.505C307.525 320.626 308.286 318.058 307.19 316.243C295.823 297.295 309.292 285.707 298.194 259.718Z" fill="#EAB68F"/>
<path d="M305.702 313.258C308.065 323.48 268.297 347.605 257.862 340.416C259.113 343.859 264.985 353.664 266.187 355.774C273.768 366.896 319.645 339.19 314.436 329.344C313.381 327.381 305.784 313.209 305.702 313.258Z" fill="#3C5CA9"/>
<path d="M272.574 339.877C267.888 341.308 261.125 342.641 257.854 340.416C259.105 343.859 264.976 353.664 266.178 355.774C268.967 359.863 275.125 359.421 283.826 355.823L272.574 339.877Z" fill="#2B4570"/>
<path d="M305.702 313.258C306.102 314.983 305.276 317.11 303.616 319.416C303.78 319.628 309.341 331.535 311.958 337.153C314.411 334.128 315.49 331.364 314.411 329.344C313.331 327.324 305.783 313.209 305.702 313.258Z" fill="#2B4570"/>
<path d="M170.727 56.7538C171.379 56.8345 171.978 57.1505 172.413 57.6422C172.847 58.134 173.087 58.7676 173.087 59.4238C173.087 60.0801 172.847 60.7137 172.413 61.2054C171.978 61.6971 171.379 62.0131 170.727 62.0939H145.074C144.423 62.0131 143.823 61.6971 143.389 61.2054C142.954 60.7137 142.714 60.0801 142.714 59.4238C142.714 58.7676 142.954 58.134 143.389 57.6422C143.823 57.1505 144.423 56.8345 145.074 56.7538H170.727Z" fill="white"/>
<path d="M107.129 107.464H32.1713C29.3886 107.464 26.7199 108.57 24.7523 110.537C22.7846 112.505 21.6792 115.174 21.6792 117.956V164.709C21.6792 166.086 21.9506 167.451 22.4779 168.724C23.0051 169.997 23.778 171.153 24.7523 172.128C25.7265 173.102 26.8832 173.875 28.1561 174.402C29.4291 174.929 30.7934 175.201 32.1713 175.201H107.129V107.464Z" fill="#0E2033"/>
<path d="M209.22 33.5289H320.438C324.52 33.494 328.449 35.0806 331.362 37.9401C334.275 40.7997 335.935 44.6985 335.976 48.7804V116.762C335.937 120.846 334.279 124.747 331.365 127.608C328.452 130.469 324.521 132.057 320.438 132.022H209.22V33.5289Z" fill="#0E2033"/>
<path d="M131.769 97.9943H36.2196C31.4818 97.9943 27.6411 101.835 27.6411 106.573V161.38C27.6411 166.118 31.4818 169.959 36.2196 169.959H131.769C136.507 169.959 140.347 166.118 140.347 161.38V106.573C140.347 101.835 136.507 97.9943 131.769 97.9943Z" fill="#587FDD"/>
<path d="M89.7949 138.045C92.0574 124.046 82.5427 110.862 68.543 108.6C54.5434 106.337 41.3603 115.852 39.0977 129.852C36.8351 143.851 46.3499 157.034 60.3496 159.297C74.3492 161.56 87.5323 152.045 89.7949 138.045Z" fill="#B1DCE0"/>
<path d="M86.6845 122.119C84.5195 117.972 81.2596 114.497 77.2589 112.072C73.2581 109.647 68.6695 108.365 63.9912 108.364V133.977L86.6845 122.119Z" fill="#F45252"/>
<path d="M72.9295 157.986C76.3366 156.721 79.4351 154.745 82.0187 152.188C84.6022 149.632 86.6116 146.555 87.913 143.161C89.2144 139.768 89.7779 136.136 89.5661 132.508C89.3543 128.879 88.372 125.338 86.6845 122.119L63.9912 133.977L72.9295 157.986Z" fill="#5A9297"/>
<path d="M64.0157 159.581C67.0581 159.584 70.0766 159.044 72.9295 157.986L64.0157 133.977L54.9302 157.921C57.833 159.021 60.9116 159.583 64.0157 159.581Z" fill="#325681"/>
<path d="M64.0156 133.977L39.5558 126.371C37.6303 132.599 38.1479 139.327 41.0035 145.187C43.8591 151.047 48.8385 155.6 54.9301 157.921L64.0156 133.977Z" fill="#2776CC"/>
<path d="M100.08 114.595H96.146V118.529H100.08V114.595Z" fill="#F45252"/>
<path d="M122.765 114.595H101.56V115.666H122.765V114.595Z" fill="#B1DCE0"/>
<path d="M127.124 117.457H101.56V118.529H127.124V117.457Z" fill="#B1DCE0"/>
<path d="M100.08 123.305H96.146V127.238H100.08V123.305Z" fill="#5A9297"/>
<path d="M122.765 123.305H101.56V124.376H122.765V123.305Z" fill="#B1DCE0"/>
<path d="M127.124 126.167H101.56V127.238H127.124V126.167Z" fill="#B1DCE0"/>
<path d="M100.08 132.006H96.146V135.939H100.08V132.006Z" fill="#325681"/>
<path d="M122.765 132.006H101.56V133.077H122.765V132.006Z" fill="#B1DCE0"/>
<path d="M127.124 134.868H101.56V135.939H127.124V134.868Z" fill="#B1DCE0"/>
<path d="M100.08 140.715H96.146V144.649H100.08V140.715Z" fill="#2776CC"/>
<path d="M122.765 140.715H101.56V141.786H122.765V140.715Z" fill="#B1DCE0"/>
<path d="M127.124 143.577H101.56V144.649H127.124V143.577Z" fill="#B1DCE0"/>
<path d="M100.08 149.424H96.146V153.358H100.08V149.424Z" fill="#B1DCE0"/>
<path d="M122.765 149.424H101.56V150.496H122.765V149.424Z" fill="#B1DCE0"/>
<path d="M127.124 152.287H101.56V153.358H127.124V152.287Z" fill="#B1DCE0"/>
<path d="M318.058 26.9785H189.659C183.806 26.9785 179.061 31.7236 179.061 37.5769V115.487C179.061 121.34 183.806 126.085 189.659 126.085H318.058C323.912 126.085 328.657 121.34 328.657 115.487V37.5769C328.657 31.7236 323.912 26.9785 318.058 26.9785Z" fill="#587FDD"/>
<path d="M198.164 84.1657V103.065" stroke="#B1DCE0" stroke-width="1.15" stroke-miterlimit="10"/>
<path d="M212.426 77.7952V103.065" stroke="#B1DCE0" stroke-width="1.15" stroke-miterlimit="10"/>
<path d="M226.688 84.8853V103.065" stroke="#B1DCE0" stroke-width="1.15" stroke-miterlimit="10"/>
<path d="M240.95 80.2731V103.065" stroke="#B1DCE0" stroke-width="1.15" stroke-miterlimit="10"/>
<path d="M255.212 69.5111V103.065" stroke="#B1DCE0" stroke-width="1.15" stroke-miterlimit="10"/>
<path d="M269.474 65.275V103.065" stroke="#B1DCE0" stroke-width="1.15" stroke-miterlimit="10"/>
<path d="M283.728 76.4377V103.065" stroke="#B1DCE0" stroke-width="1.15" stroke-miterlimit="10"/>
<path d="M297.99 70.5824V103.065" stroke="#B1DCE0" stroke-width="1.15" stroke-miterlimit="10"/>
<path d="M312.252 58.9781V103.065" stroke="#B1DCE0" stroke-width="1.15" stroke-miterlimit="10"/>
<path d="M190.387 103.065H320.037" stroke="#B1DCE0" stroke-miterlimit="10"/>
<path d="M193.813 88.32C193.813 88.32 202.997 78.2286 210.987 77.787C218.977 77.3454 219.901 86.8644 231.505 84.6564C243.109 82.4484 254.329 66.3545 265.369 64.9561C276.409 63.5577 276.115 78.8583 287.506 76.2332C298.898 73.6082 304.843 60.998 316.169 57.2444" stroke="white" stroke-miterlimit="10"/>
<path d="M314.477 58.9781C314.477 59.4181 314.346 59.8481 314.102 60.2139C313.857 60.5797 313.51 60.8648 313.103 61.0332C312.697 61.2015 312.25 61.2456 311.818 61.1597C311.387 61.0739 310.99 60.8621 310.679 60.551C310.368 60.2399 310.156 59.8436 310.071 59.4121C309.985 58.9806 310.029 58.5334 310.197 58.1269C310.366 57.7205 310.651 57.3731 311.016 57.1286C311.382 56.8842 311.812 56.7538 312.252 56.7538C312.842 56.7538 313.408 56.9881 313.825 57.4053C314.242 57.8224 314.477 58.3882 314.477 58.9781Z" fill="#FABC26"/>
<path d="M297.99 73.0194C299.214 73.0194 300.206 72.0272 300.206 70.8032C300.206 69.5792 299.214 68.587 297.99 68.587C296.766 68.587 295.774 69.5792 295.774 70.8032C295.774 72.0272 296.766 73.0194 297.99 73.0194Z" fill="#FABC26"/>
<path d="M285.953 76.4377C285.954 76.8797 285.824 77.3121 285.579 77.6798C285.333 78.0476 284.984 78.3338 284.575 78.5022C284.167 78.6705 283.717 78.7133 283.284 78.625C282.851 78.5368 282.454 78.3215 282.144 78.0066C281.834 77.6917 281.624 77.2916 281.542 76.8572C281.461 76.4229 281.51 75.974 281.684 75.5678C281.859 75.1617 282.15 74.8167 282.522 74.5769C282.893 74.3371 283.327 74.2134 283.769 74.2215C284.351 74.2301 284.907 74.4674 285.315 74.8821C285.724 75.2968 285.953 75.8555 285.953 76.4377Z" fill="#FABC26"/>
<path d="M271.69 65.275C271.692 65.7157 271.563 66.1468 271.319 66.5139C271.075 66.8809 270.728 67.1673 270.321 67.3367C269.914 67.506 269.466 67.5508 269.034 67.4652C268.602 67.3796 268.205 67.1676 267.893 66.856C267.582 66.5445 267.37 66.1474 267.284 65.7151C267.198 65.2829 267.243 64.835 267.413 64.4282C267.582 64.0214 267.868 63.6741 268.235 63.4303C268.602 63.1865 269.034 63.0572 269.474 63.0588C270.061 63.061 270.624 63.2952 271.039 63.7103C271.454 64.1255 271.688 64.6879 271.69 65.275Z" fill="#FABC26"/>
<path d="M257.428 69.5111C257.43 69.9517 257.301 70.3829 257.057 70.75C256.813 71.117 256.466 71.4034 256.059 71.5727C255.652 71.7421 255.204 71.7869 254.772 71.7013C254.34 71.6157 253.943 71.4037 253.631 71.0921C253.319 70.7806 253.107 70.3835 253.022 69.9512C252.936 69.519 252.981 69.0711 253.15 68.6643C253.32 68.2575 253.606 67.9102 253.973 67.6664C254.34 67.4226 254.771 67.2933 255.212 67.2949C255.8 67.2949 256.363 67.5284 256.779 67.944C257.195 68.3597 257.428 68.9233 257.428 69.5111Z" fill="#FABC26"/>
<path d="M243.166 80.2731C243.166 80.7134 243.035 81.1437 242.791 81.5097C242.546 81.8757 242.198 82.1608 241.791 82.3289C241.384 82.497 240.936 82.5406 240.505 82.4541C240.073 82.3676 239.677 82.1549 239.366 81.843C239.055 81.5311 238.844 81.134 238.759 80.702C238.674 80.27 238.719 79.8225 238.889 79.4162C239.059 79.0099 239.345 78.663 239.712 78.4196C240.079 78.1762 240.51 78.0471 240.95 78.0487C241.242 78.0487 241.53 78.1063 241.8 78.2182C242.069 78.3301 242.314 78.494 242.52 78.7007C242.726 78.9074 242.889 79.1526 243 79.4225C243.111 79.6923 243.167 79.9813 243.166 80.2731Z" fill="#FABC26"/>
<path d="M228.904 84.8853C228.904 85.3256 228.774 85.756 228.529 86.122C228.284 86.4879 227.936 86.773 227.529 86.9411C227.122 87.1093 226.675 87.1528 226.243 87.0663C225.811 86.9798 225.415 86.7672 225.104 86.4553C224.793 86.1434 224.582 85.7463 224.497 85.3142C224.412 84.8822 224.458 84.4347 224.627 84.0284C224.797 83.6221 225.083 83.2753 225.45 83.0319C225.817 82.7884 226.248 82.6594 226.688 82.661C226.98 82.661 227.269 82.7186 227.538 82.8305C227.807 82.9423 228.052 83.1063 228.258 83.313C228.464 83.5196 228.627 83.7649 228.738 84.0347C228.849 84.3046 228.905 84.5936 228.904 84.8853Z" fill="#FABC26"/>
<path d="M214.642 78.0487C214.642 78.487 214.512 78.9155 214.269 79.28C214.025 79.6444 213.679 79.9285 213.274 80.0962C212.869 80.2639 212.424 80.3078 211.994 80.2223C211.564 80.1368 211.169 79.9257 210.859 79.6158C210.549 79.3059 210.338 78.911 210.253 78.4811C210.167 78.0512 210.211 77.6056 210.379 77.2006C210.546 76.7957 210.83 76.4495 211.195 76.206C211.559 75.9625 211.988 75.8325 212.426 75.8325C213.014 75.8325 213.578 76.066 213.993 76.4816C214.409 76.8973 214.642 77.4609 214.642 78.0487Z" fill="#FABC26"/>
<path d="M200.355 84.1657C200.357 84.606 200.228 85.0368 199.985 85.4037C199.741 85.7706 199.394 86.0569 198.988 86.2265C198.582 86.3962 198.134 86.4414 197.702 86.3565C197.27 86.2716 196.873 86.0604 196.561 85.7496C196.249 85.4389 196.037 85.0425 195.95 84.6108C195.864 84.1791 195.907 83.7315 196.075 83.3245C196.243 82.9176 196.528 82.5697 196.894 82.325C197.26 82.0802 197.691 81.9495 198.131 81.9495C198.72 81.9495 199.284 82.1827 199.701 82.5981C200.118 83.0135 200.353 83.5772 200.355 84.1657Z" fill="#FABC26"/>
</svg>
