<svg width="137" height="39" viewBox="0 0 137 39" fill="none" xmlns="http://www.w3.org/2000/svg">
<g clip-path="url(#clip0_489_25445)">
<path d="M16.2633 4.53599L12.7992 15.547L9.41752 4.53599H4.75741L10.6135 21.3206V33.4039H14.9849V21.3206L20.841 4.53599H16.2633ZM31.8404 33.4039H36.2943L31.5105 4.53599H25.6544L20.8706 33.4039H25.242L26.1906 27.0117H30.8919L31.8404 33.4039ZM26.7679 22.8053L28.5412 10.722L30.3145 22.8053H26.7679ZM39.6708 33.4039H44.0423V21.6918H46.5167C50.6819 21.6918 53.3625 18.9699 53.3625 14.8047V11.423C53.3625 7.25782 50.6819 4.53599 46.5167 4.53599H39.6708V33.4039ZM44.0423 17.5678V8.65997H46.3105C48.0013 8.65997 48.991 9.64973 48.991 11.3406V14.8872C48.991 16.578 48.0013 17.5678 46.3105 17.5678H44.0423ZM63.6683 33.8163C67.8747 33.8163 70.679 31.012 70.679 26.8468V11.0931C70.679 6.9279 67.8747 4.12359 63.6683 4.12359C59.4618 4.12359 56.6575 6.9279 56.6575 11.0931V26.8468C56.6575 31.012 59.4618 33.8163 63.6683 33.8163ZM63.6683 29.6923C62.0599 29.6923 61.0289 28.6613 61.0289 26.8468V11.0931C61.0289 9.27857 62.0599 8.24758 63.6683 8.24758C65.2766 8.24758 66.3076 9.27857 66.3076 11.0931V26.8468C66.3076 28.6613 65.2766 29.6923 63.6683 29.6923ZM81.1736 33.8163C85.3388 33.8163 88.2256 30.847 88.2256 26.723C88.2256 23.5476 86.8647 21.4443 82.6583 17.2379C79.5653 14.1449 78.658 12.8252 78.658 11.0106C78.658 9.19609 79.524 8.24758 81.0499 8.24758C82.5758 8.24758 83.4418 9.40229 83.4418 11.6292V12.454L87.6483 12.0004V11.2581C87.6483 6.9279 85.1739 4.12359 81.0087 4.12359C76.8434 4.12359 74.369 6.9279 74.369 11.2168C74.369 14.3923 75.6062 16.6193 79.9364 20.702C83.1944 23.795 83.9367 25.1147 83.9367 26.9292C83.9367 28.6201 82.8645 29.6923 81.1324 29.6923C79.4003 29.6923 78.3281 28.4139 78.3281 26.3106V25.2384L74.1216 25.692V26.723C74.1216 30.847 77.0084 33.8163 81.1736 33.8163Z" fill="#3C5CA9"/>
<path d="M96.749 2.02084C97.6743 4.40265 98.4272 6.10535 98.5499 6.26091C98.6096 6.33658 98.6697 6.40895 98.6697 6.40895C98.7529 6.50906 98.8253 6.58895 98.8953 6.6665C100.677 8.64037 103.541 10.015 104.676 10.5254C108.268 12.1417 111.632 12.7813 112.183 12.8649C112.47 12.9079 112.755 12.9682 113.034 13.0454C113.493 13.1789 113.939 13.3494 114.37 13.5553C115.607 14.1536 116.485 14.9408 116.899 15.3191C117.364 15.7469 117.801 16.2044 118.207 16.6886C118.669 17.2249 119.103 17.7848 119.507 18.3659C120.006 19.0621 120.467 19.7856 120.886 20.533C121.21 21.1143 121.605 21.8874 121.787 22.2441C121.89 22.4472 121.975 22.6168 122.034 22.7338L112.212 29.375C112.214 29.3785 112.215 29.3823 112.215 29.3863C112.215 29.3902 112.214 29.3941 112.212 29.3975C112.079 29.5775 106.553 26.7281 102.314 22.1327C99.2126 18.7673 97.7998 15.5532 97.1329 13.9929C96.8721 13.3819 95.646 10.4615 95.5209 7.33433C95.4575 5.73643 95.7042 4.67288 95.8701 4.09811C96.0787 3.37295 96.3738 2.67552 96.749 2.02084Z" fill="#3C5CA9"/>
<path d="M106.272 26.3183C106.962 26.8743 107.74 27.4462 108.606 28.0177C109.615 28.6803 110.662 29.2817 111.743 29.8186C111.425 30.2242 110.971 30.7797 110.392 31.41C109.788 32.0679 108.845 33.0934 107.726 33.9351C105.96 35.2628 104.256 35.7548 102.67 36.2126C101.282 36.6125 99.8558 36.869 98.415 36.9782C101.758 34.0205 104.436 30.3873 106.272 26.3183Z" fill="#3C5CA9"/>
<path d="M114.16 13.0483C114.913 13.372 115.629 13.7738 116.299 14.2471C116.895 14.6731 117.453 15.1513 117.965 15.6763C118.471 16.1971 118.934 16.7581 119.349 17.3536C120.592 19.0925 121.704 20.9541 122.287 21.9594C123.729 15.5201 125.17 9.08155 126.611 2.64359L114.16 13.0483Z" fill="#3C5CA9"/>
<path d="M126.895 2.89267C126.572 4.36524 126.25 5.83609 125.927 7.30522C126.278 6.92501 126.871 6.39583 127.736 6.11948C128.165 5.98225 128.511 5.95546 128.906 5.9315C129.687 5.8845 130.774 5.84361 132.126 5.86382L126.895 2.89267Z" fill="#3C5CA9"/>
</g>
<defs>
<clipPath id="clip0_489_25445">
<rect width="136.228" height="39" fill="white"/>
</clipPath>
</defs>
</svg>
